<?xml version="1.0" encoding="UTF-8"?>
<svg width="627px" height="492px" viewBox="0 0 627 492" version="1.1" xmlns="http://www.w3.org/2000/svg" xmlns:xlink="http://www.w3.org/1999/xlink">
    <!-- Generator: Sketch 47.1 (45422) - http://www.bohemiancoding.com/sketch -->
    <title>Group 31</title>
    <desc>Created with Sketch.</desc>
    <defs></defs>
    <g id="Fastlane-HP-Build" stroke="none" stroke-width="1" fill="none" fill-rule="evenodd">
        <g id="Fastlane-Build" transform="translate(-155.000000, -3238.000000)">
            <g id="Publish" transform="translate(-67.000000, 2885.000000)">
                <g id="Group-33" transform="translate(191.000000, 221.000000)">
                    <g id="Group-32">
                        <g id="Group-31" transform="translate(31.000000, 134.000000)">
                            <g id="Group-30" transform="translate(176.000000, 188.000000)" stroke="#0082FF" stroke-width="5">
                                <path d="M194.724808,299 C306.132472,299 396.446228,214.089335 396.446228,109.346722" id="Oval-6"></path>
                                <path d="M0.229431544,299 C111.637096,299 201.950852,214.089335 201.950852,109.346722" id="Oval-6" transform="translate(101.090142, 204.173361) scale(-1, 1) translate(-101.090142, -204.173361) "></path>
                                <path d="M-4.86583683,105.68833 C106.541827,105.68833 105.679122,109.764324 105.679122,5.0217105" id="Oval-6" transform="translate(50.406693, 55.365647) scale(-1, 1) rotate(-90.000000) translate(-50.406693, -55.365647) "></path>
                            </g>
                            <path d="M594.486441,383 L486.513559,383 C468.631101,383 454,368.363454 454,350.474343 L454,48.5256572 C454,30.6365457 468.631101,16 486.513559,16 L594.486441,16 C612.368899,16 627,30.6365457 627,48.5256572 L627,350.474343 C627,368.363454 612.368899,383 594.486441,383" id="Fill-1" fill="#0082FF"></path>
                            <g id="Group-29" transform="translate(428.000000, 0.000000)">
                                <path d="M153.126031,364.819633 L47.4374944,364.819633 C29.9333704,364.819633 15.6118143,350.518786 15.6118143,333.039972 L15.6118143,38.0166673 C15.6118143,20.5378537 29.9333704,6.23700624 47.4374944,6.23700624 L153.126031,6.23700624 C170.630155,6.23700624 184.951711,20.5378537 184.951711,38.0166673 L184.951711,333.039972 C184.951711,350.518786 170.630155,364.819633 153.126031,364.819633" id="Fill-3" fill="#090A49"></path>
                                <path d="M145.071452,374.586864 L31.82568,374.586864 C14.321556,374.586864 0,360.286017 0,342.807203 L0,31.779661 C0,14.3008475 14.321556,0 31.82568,0 L145.071452,0 C162.575576,0 176.897132,14.3008475 176.897132,31.779661 L176.897132,342.807203 C176.897132,360.286017 162.575576,374.586864 145.071452,374.586864 Z" id="Stroke-5" stroke="#FFFFFF" stroke-width="4"></path>
                            </g>
                            <g id="Group-14" transform="translate(364.000000, 255.000000)">
                                <rect id="Rectangle-12" fill="#7704B4" opacity="0.5" x="0" y="-2.30926389e-14" width="123.206947" height="9.47020203" rx="4.73510101"></rect>
                                <rect id="Rectangle-12" fill="#C400FF" x="89.5734597" y="20.2932901" width="65.2996818" height="9.47020203" rx="4.73510101"></rect>
                                <rect id="Rectangle-12" fill="#7704B4" opacity="0.5" transform="translate(186.906948, 25.028391) scale(-1, 1) translate(-186.906948, -25.028391) " x="161.033489" y="20.2932901" width="51.7469177" height="9.47020203" rx="4.73510101"></rect>
                                <rect id="Rectangle-12" fill="#C400FF" x="115.165877" y="40.4255319" width="27.1055283" height="9.47020203" rx="4.73510101"></rect>
                                <rect id="Rectangle-12" fill="#C400FF" transform="translate(186.867218, 45.160633) scale(-1, 1) translate(-186.867218, -45.160633) " x="149.2891" y="40.4255319" width="75.1562376" height="9.47020203" rx="4.73510101"></rect>
                            </g>
                            <g id="Group-15" transform="translate(516.629410, 136.017037) rotate(-165.000000) translate(-516.629410, -136.017037) translate(465.129410, 84.017037)">
                                <g id="Group" transform="translate(51.566868, 49.136814) rotate(-165.000000) translate(-51.566868, -49.136814) translate(9.566868, 9.636814)" stroke="#1054EB" fill="#3E3EF8">
                                    <path d="M0.00244549596,0.604867511 L0.00244549596,52.8181338 L42.0493521,26.7115006 L0.00244549596,0.604867511 Z M0.890766679,2.26989056 L40.2567199,26.7115006 L0.890766679,51.1531107 L0.890766679,2.26989056 Z" id="Fill-1" fill-opacity="0.9"></path>
                                    <path d="M40.9832277,26.6318193 L83.0310226,52.7384524 L83.0310226,0.525186145 L40.9832277,26.6318193 Z M42.7767482,26.6318193 L82.1427014,2.19020919 L82.1427014,51.0734294 L42.7767482,26.6318193 Z" id="Fill-8"></path>
                                    <path d="M41.1612086,78.6022049 L83.2090034,52.4955718 L41.1612086,26.3889387 L41.1612086,78.6022049 Z M42.0495297,28.0539617 L81.415483,52.4955718 L42.0495297,76.9371819 L42.0495297,28.0539617 Z" id="Fill-9" opacity="0.5"></path>
                                </g>
                                <ellipse id="Oval-2" fill="#00FE00" opacity="0.987149004" cx="35.6270025" cy="98.63179" rx="4.35311153" ry="4.74437095"></ellipse>
                            </g>
                            <g id="Group-16" transform="translate(0.000000, 15.000000)">
                                <g id="Page-1">
                                    <path d="M4.75308642,242.548521 C2.13888889,242.548521 0,240.416348 0,237.810359 L0,25.7214485 C0,23.1154596 2.13888889,20.9832869 4.75308642,20.9832869 L290.843395,20.9832869 C293.457593,20.9832869 295.596481,23.1154596 295.596481,25.7214485 L295.596481,237.810359 C295.596481,240.416348 293.457593,242.548521 290.843395,242.548521 L4.75308642,242.548521 Z" id="Fill-1" fill="#0082FF"></path>
                                    <path d="M301.707593,229.687797 L15.617284,229.687797 C13.0030864,229.687797 10.8641975,227.555624 10.8641975,224.949635 L10.8641975,12.8607242 C10.8641975,10.2547354 13.0030864,8.12256267 15.617284,8.12256267 L301.707593,8.12256267 C304.32179,8.12256267 306.460679,10.2547354 306.460679,12.8607242 L306.460679,224.949635 C306.460679,227.555624 304.32179,229.687797 301.707593,229.687797" id="Fill-3" fill="#090A49"></path>
                                    <path d="M212.518642,81.2019359 L135.466358,81.2019359 C133.036852,81.2019359 131.049383,79.2274763 131.049383,76.8143983 C131.049383,74.4006435 133.036852,72.4261838 135.466358,72.4261838 L212.518642,72.4261838 C214.948148,72.4261838 216.935617,74.4006435 216.935617,76.8143983 C216.935617,79.2274763 214.948148,81.2019359 212.518642,81.2019359" id="Fill-5" fill="#1A1C84"></path>
                                    <path d="M157.59537,63.6030501 L49.9108025,63.6030501 C47.4812963,63.6030501 45.4938272,61.6285905 45.4938272,59.2155125 C45.4938272,56.8017577 47.4812963,54.8272981 49.9108025,54.8272981 L157.59537,54.8272981 C160.024877,54.8272981 162.012346,56.8017577 162.012346,59.2155125 C162.012346,61.6285905 160.024877,63.6030501 157.59537,63.6030501" id="Fill-7" fill="#1A1C84"></path>
                                    <path d="M121.369383,81.2019359 L101.515741,81.2019359 C99.0862346,81.2019359 97.0987654,79.2274763 97.0987654,76.8143983 C97.0987654,74.4006435 99.0862346,72.4261838 101.515741,72.4261838 L121.369383,72.4261838 C123.798889,72.4261838 125.786358,74.4006435 125.786358,76.8143983 C125.786358,79.2274763 123.798889,81.2019359 121.369383,81.2019359" id="Fill-9" fill="#1A1C84"></path>
                                    <path d="M87.2048765,81.2019359 L59.4169753,81.2019359 C56.9874691,81.2019359 55,79.2274763 55,76.8143983 C55,74.4006435 56.9874691,72.4261838 59.4169753,72.4261838 L87.2048765,72.4261838 C89.6337037,72.4261838 91.6218519,74.4006435 91.6218519,76.8143983 C91.6218519,79.2274763 89.6337037,81.2019359 87.2048765,81.2019359" id="Fill-11" fill="#1A1C84"></path>
                                    <path d="M60.5889506,100.154582 L59.4169753,100.154582 C56.9874691,100.154582 55,98.1801226 55,95.7670446 C55,93.3532897 56.9874691,91.3788301 59.4169753,91.3788301 L60.5889506,91.3788301 C63.0184568,91.3788301 65.0059259,93.3532897 65.0059259,95.7670446 C65.0059259,98.1801226 63.0184568,100.154582 60.5889506,100.154582" id="Fill-13" fill="#1A1C84"></path>
                                    <path d="M167.898704,100.154582 L73.6762346,100.154582 C71.2467284,100.154582 69.2592593,98.1801226 69.2592593,95.7670446 C69.2592593,93.3532897 71.2467284,91.3788301 73.6762346,91.3788301 L167.898704,91.3788301 C170.327531,91.3788301 172.315679,93.3532897 172.315679,95.7670446 C172.315679,98.1801226 170.327531,100.154582 167.898704,100.154582" id="Fill-15" fill="#1A1C84"></path>
                                    <path d="M296.418765,189.502772 L227.132346,189.502772 C224.703519,189.502772 222.716049,187.528312 222.716049,185.115234 C222.716049,182.701479 224.703519,180.727019 227.132346,180.727019 L296.418765,180.727019 C298.848272,180.727019 300.835741,182.701479 300.835741,185.115234 C300.835741,187.528312 298.848272,189.502772 296.418765,189.502772" id="Fill-21" fill="#C400FF" opacity="0.590806159"></path>
                                    <g id="Group-17" transform="translate(112.037037, 111.008357)">
                                        <path d="M69.6571605,8.77575209 L4.41697531,8.77575209 C1.98746914,8.77575209 0,6.80129248 0,4.38821448 C0,1.97445961 1.98746914,0 4.41697531,0 L69.6571605,0 C72.0866667,0 74.0741358,1.97445961 74.0741358,4.38821448 C74.0741358,6.80129248 72.0866667,8.77575209 69.6571605,8.77575209" id="Fill-17" fill="#1A1C84"></path>
                                        <path d="M177.67716,8.77575209 L86.5767901,8.77575209 C84.147963,8.77575209 82.1604938,6.80129248 82.1604938,4.38821448 C82.1604938,1.97445961 84.147963,0 86.5767901,0 L177.67716,0 C180.106667,0 182.094136,1.97445961 182.094136,4.38821448 C182.094136,6.80129248 180.106667,8.77575209 177.67716,8.77575209" id="Fill-19" fill="#1A1C84"></path>
                                        <path d="M36.2504321,27.7283983 L5.77432099,27.7283983 C3.34549383,27.7283983 1.35802469,25.7539387 1.35802469,23.3408607 C1.35802469,20.9271058 3.34549383,18.9526462 5.77432099,18.9526462 L36.2504321,18.9526462 C38.6792593,18.9526462 40.6674074,20.9271058 40.6674074,23.3408607 C40.6674074,25.7539387 38.6792593,27.7283983 36.2504321,27.7283983" id="Fill-23" fill="#1A1C84"></path>
                                        <path d="M94.1097531,27.7283983 L50.5898148,27.7283983 C48.1603086,27.7283983 46.1728395,25.7539387 46.1728395,23.3408607 C46.1728395,20.9271058 48.1603086,18.9526462 50.5898148,18.9526462 L94.1097531,18.9526462 C96.5392593,18.9526462 98.5267284,20.9271058 98.5267284,23.3408607 C98.5267284,25.7539387 96.5392593,27.7283983 94.1097531,27.7283983" id="Fill-25" fill="#1A1C84"></path>
                                        <path d="M118.812901,27.7283983 L111.700247,27.7283983 C109.27142,27.7283983 107.283951,25.7539387 107.283951,23.3408607 C107.283951,20.9271058 109.27142,18.9526462 111.700247,18.9526462 L118.812901,18.9526462 C121.242407,18.9526462 123.229877,20.9271058 123.229877,23.3408607 C123.229877,25.7539387 121.242407,27.7283983 118.812901,27.7283983" id="Fill-27" fill="#7704B4" opacity="0.486979167"></path>
                                    </g>
                                    <path d="M227.875185,167.842604 L184.355247,167.842604 C181.925741,167.842604 179.938272,165.868145 179.938272,163.455067 C179.938272,161.041312 181.925741,159.066852 184.355247,159.066852 L227.875185,159.066852 C230.304691,159.066852 232.29216,161.041312 232.29216,163.455067 C232.29216,165.868145 230.304691,167.842604 227.875185,167.842604" id="Fill-29" fill="#C400FF" opacity="0.332484149"></path>
                                    <path d="M246.69537,167.842604 L245.465679,167.842604 C243.036852,167.842604 241.049383,165.868145 241.049383,163.455067 C241.049383,161.041312 243.036852,159.066852 245.465679,159.066852 L246.69537,159.066852 C249.124877,159.066852 251.112346,161.041312 251.112346,163.455067 C251.112346,165.868145 249.124877,167.842604 246.69537,167.842604" id="Fill-31" fill="#C400FF"></path>
                                    <path d="M305.961605,167.842604 L262.441667,167.842604 C260.01216,167.842604 258.024691,165.868145 258.024691,163.455067 C258.024691,161.041312 260.01216,159.066852 262.441667,159.066852 L305.961605,159.066852 C308.391111,159.066852 310.37858,161.041312 310.37858,163.455067 C310.37858,165.868145 308.391111,167.842604 305.961605,167.842604" id="Fill-33" fill="#1A1C84"></path>
                                    <path d="M279.967654,208.455418 C282.396481,208.455418 284.383951,206.480958 284.383951,204.06788 C284.383951,201.654125 282.396481,199.679666 279.967654,199.679666 L278.737963,199.679666 C276.308457,199.679666 274.320988,201.654125 274.320988,204.06788 C274.320988,206.480958 276.308457,208.455418 278.737963,208.455418 L279.967654,208.455418 Z" id="Fill-35" fill="#C400FF" opacity="0.507189764"></path>
                                    <path d="M298.429321,208.455418 L341.949259,208.455418 C344.378765,208.455418 346.366235,206.480958 346.366235,204.06788 C346.366235,201.654125 344.378765,199.679666 341.949259,199.679666 L298.429321,199.679666 C295.999815,199.679666 294.012346,201.654125 294.012346,204.06788 C294.012346,206.480958 295.999815,208.455418 298.429321,208.455418" id="Fill-37" fill="#C400FF"></path>
                                    <path d="M379.965802,230.115585 L314.725617,230.115585 C312.296111,230.115585 310.308642,228.141125 310.308642,225.728047 C310.308642,223.314292 312.296111,221.339833 314.725617,221.339833 L379.965802,221.339833 C382.395309,221.339833 384.382778,223.314292 384.382778,225.728047 C384.382778,228.141125 382.395309,230.115585 379.965802,230.115585" id="Fill-39" fill="#C400FF"></path>
                                    <path d="M315.288043,221.56564 L29.1977346,221.56564 C26.583537,221.56564 24.4446481,219.433467 24.4446481,216.827479 L24.4446481,4.73856769 C24.4446481,2.13257883 26.583537,0.000406128134 29.1977346,0.000406128134 L315.288043,0.000406128134 C317.902241,0.000406128134 320.04113,2.13257883 320.04113,4.73856769 L320.04113,216.827479 C320.04113,219.433467 317.902241,221.56564 315.288043,221.56564 Z" id="Stroke-41" stroke="#FEFEFE" stroke-width="4"></path>
                                    <path d="M298.429321,208.455418 L341.949259,208.455418 C344.378765,208.455418 346.366235,206.480958 346.366235,204.06788 C346.366235,201.654125 344.378765,199.679666 341.949259,199.679666 L298.429321,199.679666 C295.999815,199.679666 294.012346,201.654125 294.012346,204.06788 C294.012346,206.480958 295.999815,208.455418 298.429321,208.455418" id="Fill-37" fill="#C400FF"></path>
                                    <path d="M24.4085926,33.5619552 L320.077049,33.9410081" id="Stroke-43" stroke="#FEFEFE" stroke-width="4"></path>
                                </g>
                                <g id="Page-1" transform="translate(42.777778, 14.214485)" stroke="#FEFEFE" stroke-width="4">
                                    <path d="M6.60135802,3.29031476 C6.60135802,5.10773816 5.12382716,6.58062953 3.30067901,6.58062953 C1.47753086,6.58062953 0,5.10773816 0,3.29031476 C0,1.47289136 1.47753086,0 3.30067901,0 C5.12382716,0 6.60135802,1.47289136 6.60135802,3.29031476 Z" id="Stroke-1"></path>
                                    <path d="M20.9740802,3.29031476 C20.9740802,5.10773816 19.4965494,6.58062953 17.6734012,6.58062953 C15.8502531,6.58062953 14.3727222,5.10773816 14.3727222,3.29031476 C14.3727222,1.47289136 15.8502531,0 17.6734012,0 C19.4965494,0 20.9740802,1.47289136 20.9740802,3.29031476 Z" id="Stroke-3"></path>
                                    <path d="M35.5200864,3.29031476 C35.5200864,5.10773816 34.0425556,6.58062953 32.2194074,6.58062953 C30.3962593,6.58062953 28.9187284,5.10773816 28.9187284,3.29031476 C28.9187284,1.47289136 30.3962593,0 32.2194074,0 C34.0425556,0 35.5200864,1.47289136 35.5200864,3.29031476 Z" id="Stroke-5"></path>
                                </g>
                            </g>
                        </g>
                    </g>
                </g>
            </g>
        </g>
    </g>
</svg>