<?xml version="1.0" encoding="UTF-8"?>
<svg width="686px" height="453px" viewBox="0 0 686 453" version="1.1" xmlns="http://www.w3.org/2000/svg" xmlns:xlink="http://www.w3.org/1999/xlink">
    <!-- Generator: Sketch 47.1 (45422) - http://www.bohemiancoding.com/sketch -->
    <title>Page 1</title>
    <desc>Created with Sketch.</desc>
    <defs></defs>
    <g id="Fastlane-HP-Build" stroke="none" stroke-width="1" fill="none" fill-rule="evenodd">
        <g id="Fastlane-Build" transform="translate(-147.000000, -4023.000000)">
            <g id="Code-signing" transform="translate(-15.000000, 3745.000000)">
                <g id="Page-1" transform="translate(164.000000, 280.000000)">
                    <path d="M95.4658081,416 C93.0096137,416 91,413.987078 91,411.526841 L91,257.473159 C91,255.012922 93.0096137,253 95.4658081,253 L361.534192,253 C363.990386,253 366,255.012922 366,257.473159 L366,411.526841 C366,413.987078 363.990386,416 361.534192,416 L95.4658081,416 Z" id="Fill-1" fill="#0082FF" opacity="0.298856431"></path>
                    <path d="M89.4658081,411 C87.0096137,411 85,408.987078 85,406.526841 L85,252.473159 C85,250.012922 87.0096137,248 89.4658081,248 L355.534192,248 C357.990386,248 360,250.012922 360,252.473159 L360,406.526841 C360,408.987078 357.990386,411 355.534192,411 L89.4658081,411 Z" id="Fill-1" fill="#090A49"></path>
                    <path d="M352.545938,410 L84.4540616,410 C82.0043277,410 80,407.994643 80,405.543651 L80,250.456349 C80,248.005357 82.0043277,246 84.4540616,246 L352.545938,246 C354.995672,246 357,248.005357 357,250.456349 L357,405.543651 C357,407.994643 354.995672,410 352.545938,410 Z" id="Stroke-3" stroke="#FEFEFE" stroke-width="4"></path>
                    <path d="M81,275 L358,275.56" id="Stroke-5" stroke="#FEFEFE" stroke-width="4"></path>
                    <path d="M184.508609,260 L94.4913906,260 C93.6712217,260 93,259.550032 93,259.000214 C93,258.449968 93.6712217,258 94.4913906,258 L184.508609,258 C185.328778,258 186,258.449968 186,259.000214 C186,259.550032 185.328778,260 184.508609,260" id="Fill-7" fill="#FEFEFE"></path>
                    <path d="M102,303 C102,305.209452 100.209452,307 98,307 C95.791176,307 94,305.209452 94,303 C94,300.790548 95.791176,299 98,299 C100.209452,299 102,300.790548 102,303 Z" id="Stroke-9" stroke="#FEFEFE" stroke-width="3"></path>
                    <path d="M102,331 C102,333.209452 100.209452,335 98,335 C95.791176,335 94,333.209452 94,331 C94,328.790548 95.791176,327 98,327 C100.209452,327 102,328.790548 102,331 Z" id="Stroke-11" stroke="#00E1EB" stroke-width="3"></path>
                    <path d="M102,358 C102,360.209452 100.209452,362 98,362 C95.791176,362 94,360.209452 94,358 C94,355.790548 95.791176,354 98,354 C100.209452,354 102,355.790548 102,358 Z" id="Stroke-13" stroke="#1BF01B" stroke-width="3"></path>
                    <path d="M364.534192,204 L98.4658081,204 C96.0096137,204 94,201.987078 94,199.526841 L94,45.4731591 C94,43.0129216 96.0096137,41 98.4658081,41 L364.534192,41 C366.990386,41 369,43.0129216 369,45.4731591 L369,199.526841 C369,201.987078 366.990386,204 364.534192,204" id="Fill-15" fill="#0082FF" opacity="0.499660326"></path>
                    <path d="M360.534192,198 L94.4658081,198 C92.0096137,198 90,195.987078 90,193.526841 L90,39.4731591 C90,37.0129216 92.0096137,35 94.4658081,35 L360.534192,35 C362.990386,35 365,37.0129216 365,39.4731591 L365,193.526841 C365,195.987078 362.990386,198 360.534192,198" id="Fill-15" fill="#090A49"></path>
                    <path d="M355.545938,195 L87.4540616,195 C85.0043277,195 83,192.994643 83,190.543651 L83,35.4563487 C83,33.0053569 85.0043277,31 87.4540616,31 L355.545938,31 C357.995672,31 360,33.0053569 360,35.4563487 L360,190.543651 C360,192.994643 357.995672,195 355.545938,195 Z" id="Stroke-17" stroke="#FEFEFE" stroke-width="4"></path>
                    <path d="M83,63 L360,63.56" id="Stroke-19" stroke="#FEFEFE" stroke-width="4"></path>
                    <path d="M186.508609,49 L96.4913906,49 C95.6712217,49 95,48.5500321 95,48.0002143 C95,47.4499679 95.6712217,47 96.4913906,47 L186.508609,47 C187.328778,47 188,47.4499679 188,48.0002143 C188,48.5500321 187.328778,49 186.508609,49" id="Fill-21" fill="#FEFEFE"></path>
                    <path d="M105,90 C105,92.209452 103.208824,94 101,94 C98.790548,94 97,92.209452 97,90 C97,87.790548 98.790548,86 101,86 C103.208824,86 105,87.790548 105,90 Z" id="Stroke-23" stroke="#C400FF" stroke-width="3"></path>
                    <path d="M105,119 C105,121.208824 103.208824,123 101,123 C98.790548,123 97,121.208824 97,119 C97,116.790548 98.790548,115 101,115 C103.208824,115 105,116.790548 105,119 Z" id="Stroke-25" stroke="#00E1EB" stroke-width="3"></path>
                    <path d="M105,145 C105,147.209452 103.208824,149 101,149 C98.790548,149 97,147.209452 97,145 C97,142.791176 98.790548,141 101,141 C103.208824,141 105,142.791176 105,145 Z" id="Stroke-27" stroke="#FEFEFE" stroke-width="3"></path>
                    <path d="M679.534192,304 L413.465808,304 C411.009614,304 409,301.987078 409,299.526841 L409,145.473159 C409,143.012922 411.009614,141 413.465808,141 L679.534192,141 C681.990386,141 684,143.012922 684,145.473159 L684,299.526841 C684,301.987078 681.990386,304 679.534192,304" id="Fill-29" fill="#0082FF" opacity="0.341938406"></path>
                    <path d="M675.534192,298 L409.465808,298 C407.009614,298 405,295.987078 405,293.526841 L405,139.473159 C405,137.012922 407.009614,135 409.465808,135 L675.534192,135 C677.990386,135 680,137.012922 680,139.473159 L680,293.526841 C680,295.987078 677.990386,298 675.534192,298" id="Fill-29" fill="#090A49"></path>
                    <path d="M668.545938,295 L400.454062,295 C398.004328,295 396,292.994643 396,290.543651 L396,135.456349 C396,133.005357 398.004328,131 400.454062,131 L668.545938,131 C670.995672,131 673,133.005357 673,135.456349 L673,290.543651 C673,292.994643 670.995672,295 668.545938,295 Z" id="Stroke-31" stroke="#FEFEFE" stroke-width="4"></path>
                    <path d="M396,159 L673,159.56" id="Stroke-33" stroke="#FEFEFE" stroke-width="4"></path>
                    <path d="M499.508609,146 L409.491391,146 C408.671222,146 408,145.550032 408,145.000214 C408,144.449968 408.671222,144 409.491391,144 L499.508609,144 C500.328778,144 501,144.449968 501,145.000214 C501,145.550032 500.328778,146 499.508609,146" id="Fill-35" fill="#FEFEFE"></path>
                    <path d="M418,187 C418,189.208824 416.208824,191 414,191 C411.791176,191 410,189.208824 410,187 C410,184.790548 411.791176,183 414,183 C416.208824,183 418,184.790548 418,187 Z" id="Stroke-37" stroke="#C400FF" stroke-width="3"></path>
                    <path d="M418,215 C418,217.208824 416.208824,219 414,219 C411.791176,219 410,217.208824 410,215 C410,212.790548 411.791176,211 414,211 C416.208824,211 418,212.790548 418,215 Z" id="Stroke-39" stroke="#00E1EB" stroke-width="3"></path>
                    <path d="M418,243 C418,245.209452 416.208824,247 414,247 C411.791176,247 410,245.209452 410,243 C410,240.791176 411.791176,239 414,239 C416.208824,239 418,240.791176 418,243 Z" id="Stroke-41" stroke="#1BF01B" stroke-width="3"></path>
                    <path d="M416.832053,189 C441.150938,189 457,168.826508 457,144.170018 L457,142.248734 L457,146.952679 L457,46.7512665 L457,44.8299815 C457,20.1734917 439.810587,0 418.801587,0 L98.1984129,0 C77.1894129,0 60,20.1734917 60,44.8299815 L60,46.7512665 C60,71.4077563 77.1894129,91.581248 98.1984129,91.581248" id="Stroke-43" stroke="#C400FF" stroke-width="3"></path>
                    <path d="M418.585101,243 C443.053498,243 459,263.195638 459,287.879197 L459,304.67171 L459,306.595104 L459,287.879197 L459,402.197409 L459,404.120803 C459,428.804362 441.507957,449 420.128084,449 L93.8719161,449 C72.492682,449 55,428.804362 55,404.120803 L55,402.197409 C55,377.513851 72.492682,357.318213 93.8719161,357.318213" id="Stroke-45" stroke="#1BF01B" stroke-width="3"></path>
                    <path d="M102,331 L416.787108,330.594124 C448.254039,330.594124 474,304.585286 474,272.797062 L474,272.797062 C474,241.008839 448.254039,215 416.787108,215" id="Stroke-47" stroke="#00E1EB" stroke-width="3"></path>
                    <path d="M104,119 L419,119.631" id="Stroke-51" stroke="#00E1EB" stroke-width="3"></path>
                    <path d="M467,168 C467,195.500462 444.499802,218 417,218" id="Stroke-53" stroke="#00E1EB" stroke-width="3"></path>
                    <path d="M417,119 C444.500462,119 467,141.500198 467,169" id="Stroke-55" stroke="#00E1EB" stroke-width="3"></path>
                    <path d="M93.2330224,332 C40.2133235,332 0,284.076227 0,224.988135 C0,165.900042 42.9803011,118 96,118" id="Stroke-57" stroke="#00E1EB" stroke-width="3"></path>
                </g>
            </g>
        </g>
    </g>
</svg>