<?xml version="1.0" encoding="UTF-8"?>
<svg width="27px" height="31px" viewBox="0 0 27 31" version="1.1" xmlns="http://www.w3.org/2000/svg" xmlns:xlink="http://www.w3.org/1999/xlink">
    <!-- Generator: Sketch 47.1 (45422) - http://www.bohemiancoding.com/sketch -->
    <title>screenshots</title>
    <desc>Created with Sketch.</desc>
    <defs></defs>
    <g id="Fastlane-HP-Build" stroke="none" stroke-width="1" fill="none" fill-rule="evenodd">
        <g id="icons" transform="translate(-140.000000, -216.000000)" stroke="#FFFFFF">
            <g id="screenshots" transform="translate(140.000000, 216.000000)">
                <path d="M18.8334,26.25 L20.3334,26.25 C21.4334,26.25 22.3334,25.35 22.3334,24.25 L22.3334,6.057 C22.3334,4.957 21.4334,4.057 20.3334,4.057 L6.0004,4.057 C4.9004,4.057 4.0004,4.957 4.0004,6.057 L4.0004,7.994" id="Stroke-1"></path>
                <path d="M22.4167,22.693 L23.9167,22.693 C25.0167,22.693 25.9167,21.793 25.9167,20.693 L25.9167,2.5 C25.9167,1.4 25.0167,0.5 23.9167,0.5 L9.5837,0.5 C8.4837,0.5 7.5837,1.4 7.5837,2.5 L7.5837,4.437" id="Stroke-3"></path>
                <path d="M16.8333,30.1875 L2.5003,30.1875 C1.4003,30.1875 0.5003,29.2875 0.5003,28.1875 L0.5003,9.9945 C0.5003,8.8945 1.4003,7.9945 2.5003,7.9945 L16.8333,7.9945 C17.9333,7.9945 18.8333,8.8945 18.8333,9.9945 L18.8333,28.1875 C18.8333,29.2875 17.9333,30.1875 16.8333,30.1875 Z" id="Stroke-5"></path>
                <path d="M13.6667,20.4167 L5.9997,20.4167 C5.4477,20.4167 4.9997,19.9687 4.9997,19.4167 L4.9997,13.2497 C4.9997,12.6977 5.4477,12.2497 5.9997,12.2497 L13.6667,12.2497 C14.2187,12.2497 14.6667,12.6977 14.6667,13.2497 L14.6667,19.4167 C14.6667,19.9687 14.2187,20.4167 13.6667,20.4167 Z" id="Stroke-7"></path>
                <path d="M5,23 L12.167,23" id="Stroke-9" stroke-linecap="round"></path>
                <path d="M5,26.25 L15,26.25" id="Stroke-11" stroke-linecap="round"></path>
            </g>
        </g>
    </g>
</svg>