<?xml version="1.0" encoding="UTF-8" standalone="no"?>
<svg width="504px" height="703px" viewBox="0 0 504 703" version="1.1" xmlns="http://www.w3.org/2000/svg" xmlns:xlink="http://www.w3.org/1999/xlink" xmlns:sketch="http://www.bohemiancoding.com/sketch/ns">
    <!-- Generator: Sketch 3.2.2 (9983) - http://www.bohemiancoding.com/sketch -->
    <title>Group</title>
    <desc>Created with Sketch.</desc>
    <defs></defs>
    <g id="Page-1" stroke="none" stroke-width="1" fill="none" fill-rule="evenodd" sketch:type="MSPage">
        <g id="Flat-1" sketch:type="MSArtboardGroup" transform="translate(-103.000000, -774.000000)">
            <g id="Group" sketch:type="MSLayerGroup" transform="translate(103.000000, 774.000000)">
                <g id="Diagram" sketch:type="MSShapeGroup">
                    <path d="M196,0.13762406 L196,694.48409 M331.289,141.593985 L249.093486,141.593985 M196,88.4022857 C196,117.779729 219.832541,141.593985 249.232541,141.593985 M383.197216,194.785684 C383.197216,165.408241 359.363351,141.593985 329.964676,141.593985 M331.289,600.269835 L249.093486,600.269835 M196,653.461534 C196,624.08409 219.832541,600.269835 249.232541,600.269835 M383.197216,547.078135 C383.197216,576.455579 359.363351,600.269835 329.964676,600.269835 M383.197216,194.785684 L383.197216,552.371368" id="Stroke-1" stroke="#E1E1E1" stroke-width="3"></path>
                    <path d="M204.277027,194.785684 C204.277027,199.352421 200.571568,203.055038 196,203.055038 C191.428432,203.055038 187.722973,199.352421 187.722973,194.785684 C187.722973,190.217624 191.428432,186.515008 196,186.515008 C200.571568,186.515008 204.277027,190.217624 204.277027,194.785684" id="Fill-2" fill="#5F6461"></path>
                    <path d="M391.472919,194.785684 C391.472919,199.352421 387.767459,203.055038 383.197216,203.055038 C378.625649,203.055038 374.920189,199.352421 374.920189,194.785684 C374.920189,190.217624 378.625649,186.515008 383.197216,186.515008 C387.767459,186.515008 391.472919,190.217624 391.472919,194.785684" id="Fill-3" fill="#5F6461"></path>
                    <path d="M204.277027,69.6086617 C204.277027,74.1753985 200.571568,77.8793383 196,77.8793383 C191.428432,77.8793383 187.722973,74.1753985 187.722973,69.6086617 C187.722973,65.0406015 191.428432,61.337985 196,61.337985 C200.571568,61.337985 204.277027,65.0406015 204.277027,69.6086617" id="Fill-4" fill="#5F6461"></path>
                    <path d="M204.277027,282.858466 C204.277027,287.426526 200.571568,291.129143 196,291.129143 C191.428432,291.129143 187.722973,287.426526 187.722973,282.858466 C187.722973,278.291729 191.428432,274.587789 196,274.587789 C200.571568,274.587789 204.277027,278.291729 204.277027,282.858466" id="Fill-5" fill="#5F6461"></path>
                    <path d="M391.472919,282.858466 C391.472919,287.426526 387.767459,291.129143 383.197216,291.129143 C378.625649,291.129143 374.920189,287.426526 374.920189,282.858466 C374.920189,278.291729 378.625649,274.587789 383.197216,274.587789 C387.767459,274.587789 391.472919,278.291729 391.472919,282.858466" id="Fill-6" fill="#5F6461"></path>
                    <path d="M391.472919,370.931248 C391.472919,375.499308 387.767459,379.201925 383.197216,379.201925 C378.625649,379.201925 374.920189,375.499308 374.920189,370.931248 C374.920189,366.364511 378.625649,362.661895 383.197216,362.661895 C387.767459,362.661895 391.472919,366.364511 391.472919,370.931248" id="Fill-7" fill="#5F6461"></path>
                    <path d="M391.472919,459.005353 C391.472919,463.57209 387.767459,467.274707 383.197216,467.274707 C378.625649,467.274707 374.920189,463.57209 374.920189,459.005353 C374.920189,454.437293 378.625649,450.734677 383.197216,450.734677 C387.767459,450.734677 391.472919,454.437293 391.472919,459.005353" id="Fill-8" fill="#5F6461"></path>
                    <path d="M391.472919,547.078135 C391.472919,551.646195 387.767459,555.348812 383.197216,555.348812 C378.625649,555.348812 374.920189,551.646195 374.920189,547.078135 C374.920189,542.510075 378.625649,538.807459 383.197216,538.807459 C387.767459,538.807459 391.472919,542.510075 391.472919,547.078135" id="Fill-9" fill="#5F6461"></path>
                    <path d="M60.711,141.593985 L142.906514,141.593985 M196,88.4022857 C196,117.779729 172.167459,141.593985 142.767459,141.593985 M8.80410811,194.785684 C8.80410811,165.408241 32.6366486,141.593985 62.0353243,141.593985 M60.711,600.269835 L142.906514,600.269835 M196,653.461534 C196,624.08409 172.167459,600.269835 142.767459,600.269835 M8.80410811,547.078135 C8.80410811,576.455579 32.6366486,600.269835 62.0353243,600.269835 M8.80410811,194.785684 L8.80410811,552.371368" id="Stroke-10" stroke="#E1E1E1" stroke-width="3"></path>
                    <path d="M0.527081081,194.785684 C0.527081081,199.352421 4.23254054,203.055038 8.80410811,203.055038 C13.3743514,203.055038 17.0798108,199.352421 17.0798108,194.785684 C17.0798108,190.217624 13.3743514,186.515008 8.80410811,186.515008 C4.23254054,186.515008 0.527081081,190.217624 0.527081081,194.785684" id="Fill-11" fill="#5F6461"></path>
                    <path d="M0.527081081,282.858466 C0.527081081,287.426526 4.23254054,291.129143 8.80410811,291.129143 C13.3743514,291.129143 17.0798108,287.426526 17.0798108,282.858466 C17.0798108,278.291729 13.3743514,274.587789 8.80410811,274.587789 C4.23254054,274.587789 0.527081081,278.291729 0.527081081,282.858466" id="Fill-12" fill="#5F6461"></path>
                    <path d="M0.527081081,370.931248 C0.527081081,375.499308 4.23254054,379.201925 8.80410811,379.201925 C13.3743514,379.201925 17.0798108,375.499308 17.0798108,370.931248 C17.0798108,366.364511 13.3743514,362.661895 8.80410811,362.661895 C4.23254054,362.661895 0.527081081,366.364511 0.527081081,370.931248" id="Fill-13" fill="#5F6461"></path>
                    <path d="M204.277027,694.48409 C204.277027,699.050827 200.571568,702.753444 196,702.753444 C191.428432,702.753444 187.722973,699.050827 187.722973,694.48409 C187.722973,689.91603 191.428432,686.213414 196,686.213414 C200.571568,686.213414 204.277027,689.91603 204.277027,694.48409" id="Fill-14" fill="#5F6461"></path>
                </g>
                <text id="CocoaPods" sketch:type="MSTextLayer" font-family="Open Sans" font-size="19" font-weight="526" fill="#363636">
                    <tspan x="217" y="76">CocoaPods</tspan>
                </text>
                <text id="CocoaPods" sketch:type="MSTextLayer" font-family="Open Sans" font-size="19" font-weight="526" fill="#363636">
                    <tspan x="217" y="200">CocoaPods</tspan>
                </text>
                <text id="CocoaPods" sketch:type="MSTextLayer" font-family="Open Sans" font-size="19" font-weight="526" fill="#363636">
                    <tspan x="26" y="200">CocoaPods</tspan>
                </text>
                <text id="CocoaPods" sketch:type="MSTextLayer" font-family="Open Sans" font-size="19" font-weight="526" fill="#363636">
                    <tspan x="405" y="200">CocoaPods</tspan>
                </text>
                <text id="CocoaPods" sketch:type="MSTextLayer" font-family="Open Sans" font-size="19" font-weight="526" fill="#363636">
                    <tspan x="217" y="291">CocoaPods</tspan>
                </text>
                <text id="CocoaPods" sketch:type="MSTextLayer" font-family="Open Sans" font-size="19" font-weight="526" fill="#363636">
                    <tspan x="217" y="702">CocoaPods</tspan>
                </text>
                <text id="CocoaPods" sketch:type="MSTextLayer" font-family="Open Sans" font-size="19" font-weight="526" fill="#363636">
                    <tspan x="26" y="291">CocoaPods</tspan>
                </text>
                <text id="CocoaPods" sketch:type="MSTextLayer" font-family="Open Sans" font-size="19" font-weight="526" fill="#363636">
                    <tspan x="405" y="291">CocoaPods</tspan>
                </text>
                <text id="CocoaPods" sketch:type="MSTextLayer" font-family="Open Sans" font-size="19" font-weight="526" fill="#363636">
                    <tspan x="405" y="377">CocoaPods</tspan>
                </text>
                <text id="CocoaPods" sketch:type="MSTextLayer" font-family="Open Sans" font-size="19" font-weight="526" fill="#363636">
                    <tspan x="405" y="465">CocoaPods</tspan>
                </text>
                <text id="CocoaPods" sketch:type="MSTextLayer" font-family="Open Sans" font-size="19" font-weight="526" fill="#363636">
                    <tspan x="405" y="553">CocoaPods</tspan>
                </text>
            </g>
        </g>
    </g>
</svg>