<?xml version="1.0" encoding="UTF-8" standalone="no"?>
<svg width="435px" height="629px" viewBox="0 0 435 629" version="1.1" xmlns="http://www.w3.org/2000/svg" xmlns:xlink="http://www.w3.org/1999/xlink" xmlns:sketch="http://www.bohemiancoding.com/sketch/ns">
    <!-- Generator: Sketch 3.2.2 (9983) - http://www.bohemiancoding.com/sketch -->
    <title>Diagram</title>
    <desc>Created with Sketch.</desc>
    <defs></defs>
    <g id="Page-1" stroke="none" stroke-width="1" fill="none" fill-rule="evenodd" sketch:type="MSPage">
        <g id="Flat-1" sketch:type="MSArtboardGroup" transform="translate(-635.000000, -805.000000)">
            <g id="Diagram" sketch:type="MSLayerGroup" transform="translate(635.000000, 805.000000)">
                <g sketch:type="MSShapeGroup">
                    <path d="M174.181132,0.122267703 L174.181132,616.992221 M294.409658,125.794656 L221.364212,125.794656 M174.181132,78.5381889 C174.181132,104.637641 195.360616,125.794656 221.487786,125.794656 M340.539413,173.051123 C340.539413,146.951671 319.358752,125.794656 293.232759,125.794656 M294.409658,533.290573 L221.364212,533.290573 M174.181132,580.547041 C174.181132,554.447589 195.360616,533.290573 221.487786,533.290573 M340.539413,486.034106 C340.539413,512.133558 319.358752,533.290573 293.232759,533.290573 M340.539413,173.051123 L340.539413,490.73671" id="Stroke-1" stroke="#E1E1E1" stroke-width="3"></path>
                    <path d="M181.536754,173.051123 C181.536754,177.108295 178.243789,180.397766 174.181132,180.397766 C170.118475,180.397766 166.82551,177.108295 166.82551,173.051123 C166.82551,168.992776 170.118475,165.703305 174.181132,165.703305 C178.243789,165.703305 181.536754,168.992776 181.536754,173.051123" id="Fill-2" fill="#CDDC39"></path>
                    <path d="M347.893858,173.051123 C347.893858,177.108295 344.600893,180.397766 340.539413,180.397766 C336.476756,180.397766 333.183791,177.108295 333.183791,173.051123 C333.183791,168.992776 336.476756,165.703305 340.539413,165.703305 C344.600893,165.703305 347.893858,168.992776 347.893858,173.051123" id="Fill-3" fill="#CDDC39"></path>
                    <path d="M181.536754,61.8415935 C181.536754,65.898765 178.243789,69.1894122 174.181132,69.1894122 C170.118475,69.1894122 166.82551,65.898765 166.82551,61.8415935 C166.82551,57.7832463 170.118475,54.4937748 174.181132,54.4937748 C178.243789,54.4937748 181.536754,57.7832463 181.536754,61.8415935" id="Fill-4" fill="#CDDC39"></path>
                    <path d="M181.536754,251.296575 C181.536754,255.354922 178.243789,258.644394 174.181132,258.644394 C170.118475,258.644394 166.82551,255.354922 166.82551,251.296575 C166.82551,247.239404 170.118475,243.948756 174.181132,243.948756 C178.243789,243.948756 181.536754,247.239404 181.536754,251.296575" id="Fill-5" fill="#FF5252"></path>
                    <path d="M347.893858,251.296575 C347.893858,255.354922 344.600893,258.644394 340.539413,258.644394 C336.476756,258.644394 333.183791,255.354922 333.183791,251.296575 C333.183791,247.239404 336.476756,243.948756 340.539413,243.948756 C344.600893,243.948756 347.893858,247.239404 347.893858,251.296575" id="Fill-6" fill="#CDDC39"></path>
                    <path d="M347.893858,329.542027 C347.893858,333.600374 344.600893,336.889846 340.539413,336.889846 C336.476756,336.889846 333.183791,333.600374 333.183791,329.542027 C333.183791,325.484855 336.476756,322.195384 340.539413,322.195384 C344.600893,322.195384 347.893858,325.484855 347.893858,329.542027" id="Fill-7" fill="#CDDC39"></path>
                    <path d="M347.893858,407.788654 C347.893858,411.845826 344.600893,415.135297 340.539413,415.135297 C336.476756,415.135297 333.183791,411.845826 333.183791,407.788654 C333.183791,403.730307 336.476756,400.440836 340.539413,400.440836 C344.600893,400.440836 347.893858,403.730307 347.893858,407.788654" id="Fill-8" fill="#CDDC39"></path>
                    <path d="M347.893858,486.034106 C347.893858,490.092453 344.600893,493.381925 340.539413,493.381925 C336.476756,493.381925 333.183791,490.092453 333.183791,486.034106 C333.183791,481.975759 336.476756,478.686287 340.539413,478.686287 C344.600893,478.686287 347.893858,481.975759 347.893858,486.034106" id="Fill-9" fill="#CDDC39"></path>
                    <path d="M53.9526057,125.794656 L126.998053,125.794656 M174.181132,78.5381889 C174.181132,104.637641 153.001648,125.794656 126.874478,125.794656 M7.82402815,173.051123 C7.82402815,146.951671 29.0035123,125.794656 55.1295052,125.794656 M53.9526057,533.290573 L126.998053,533.290573 M174.181132,580.547041 C174.181132,554.447589 153.001648,533.290573 126.874478,533.290573 M7.82402815,486.034106 C7.82402815,512.133558 29.0035123,533.290573 55.1295052,533.290573 M7.82402815,173.051123 L7.82402815,490.73671" id="Stroke-10" stroke="#E1E1E1" stroke-width="3"></path>
                    <path d="M0.468406017,173.051123 C0.468406017,177.108295 3.76137093,180.397766 7.82402815,180.397766 C11.8855085,180.397766 15.1784734,177.108295 15.1784734,173.051123 C15.1784734,168.992776 11.8855085,165.703305 7.82402815,165.703305 C3.76137093,165.703305 0.468406017,168.992776 0.468406017,173.051123" id="Fill-11" fill="#CDDC39"></path>
                    <path d="M0.468406017,251.296575 C0.468406017,255.354922 3.76137093,258.644394 7.82402815,258.644394 C11.8855085,258.644394 15.1784734,255.354922 15.1784734,251.296575 C15.1784734,247.239404 11.8855085,243.948756 7.82402815,243.948756 C3.76137093,243.948756 0.468406017,247.239404 0.468406017,251.296575" id="Fill-12" fill="#CDDC39"></path>
                    <path d="M0.468406017,329.542027 C0.468406017,333.600374 3.76137093,336.889846 7.82402815,336.889846 C11.8855085,336.889846 15.1784734,333.600374 15.1784734,329.542027 C15.1784734,325.484855 11.8855085,322.195384 7.82402815,322.195384 C3.76137093,322.195384 0.468406017,325.484855 0.468406017,329.542027" id="Fill-13" fill="#FF5252"></path>
                    <path d="M181.536754,616.992221 C181.536754,621.049393 178.243789,624.338864 174.181132,624.338864 C170.118475,624.338864 166.82551,621.049393 166.82551,616.992221 C166.82551,612.933874 170.118475,609.644403 174.181132,609.644403 C178.243789,609.644403 181.536754,612.933874 181.536754,616.992221" id="Fill-14" fill="#CDDC39"></path>
                </g>
                <text id="CocoaPods" sketch:type="MSTextLayer" font-family="Open Sans" font-size="16.8076923" font-weight="526" fill="#363636">
                    <tspan x="192.843396" y="67.7514124">CocoaPods</tspan>
                </text>
                <text id="xctool" sketch:type="MSTextLayer" font-family="Open Sans" font-size="16.8076923" font-weight="526" fill="#363636">
                    <tspan x="192.843396" y="177.915254">xctool</tspan>
                </text>
                <text id="xctool" sketch:type="MSTextLayer" font-family="Open Sans" font-size="16.8076923" font-weight="526" fill="#363636">
                    <tspan x="23.1056604" y="177.915254">xctool</tspan>
                </text>
                <text id="xctool" sketch:type="MSTextLayer" font-family="Open Sans" font-size="16.8076923" font-weight="526" fill="#363636">
                    <tspan x="359.915094" y="177.915254">xctool</tspan>
                </text>
                <text id="deliver:-beta" sketch:type="MSTextLayer" font-family="Open Sans" font-size="16.8076923" font-weight="526" fill="#363636">
                    <tspan x="192.843396" y="258.761299">deliver: beta</tspan>
                </text>
                <text id="snapshot" sketch:type="MSTextLayer" font-family="Open Sans" font-size="16.8076923" font-weight="526" fill="#363636">
                    <tspan x="23.1056604" y="258.761299">snapshot</tspan>
                </text>
                <text id="frameit" sketch:type="MSTextLayer" font-family="Open Sans" font-size="16.8076923" font-weight="526" fill="#363636">
                    <tspan x="23.1056604" y="335.165254">frameit</tspan>
                </text>
                <text id="snapshot" sketch:type="MSTextLayer" font-family="Open Sans" font-size="16.8076923" font-weight="526" fill="#363636">
                    <tspan x="359.915094" y="258.761299">snapshot</tspan>
                </text>
                <text id="sigh" sketch:type="MSTextLayer" font-family="Open Sans" font-size="16.8076923" font-weight="526" fill="#363636">
                    <tspan x="359.915094" y="335.165254">sigh</tspan>
                </text>
                <text id="delivery" sketch:type="MSTextLayer" font-family="Open Sans" font-size="16.8076923" font-weight="526" fill="#363636">
                    <tspan x="359.915094" y="413.346045">delivery</tspan>
                </text>
                <text id="frameit" sketch:type="MSTextLayer" font-family="Open Sans" font-size="16.8076923" font-weight="526" fill="#363636">
                    <tspan x="359.915094" y="491.526836">frameit</tspan>
                </text>
                <text id="completion" sketch:type="MSTextLayer" font-family="Open Sans" font-size="16.8076923" font-weight="526" fill="#363636">
                    <tspan x="192.843396" y="623.90113">completion</tspan>
                </text>
            </g>
        </g>
    </g>
</svg>