<?xml version="1.0" encoding="utf-8"?>
<!-- Generator: Adobe Illustrator 18.0.0, SVG Export Plug-In . SVG Version: 6.00 Build 0)  -->
<!DOCTYPE svg PUBLIC "-//W3C//DTD SVG 1.1//EN" "http://www.w3.org/Graphics/SVG/1.1/DTD/svg11.dtd">
<svg version="1.1" id="Layer_1" xmlns="http://www.w3.org/2000/svg" xmlns:xlink="http://www.w3.org/1999/xlink" x="0px" y="0px"
	 viewBox="0 0 417.1 601.1" enable-background="new 0 0 417.1 601.1" xml:space="preserve">
<g enable-background="new    ">
	<g>
		<defs>
			<rect id="SVGID_1_" x="4" y="4" width="406" height="590"/>
		</defs>
		<clipPath id="SVGID_2_">
			<use xlink:href="#SVGID_1_"  overflow="visible"/>
		</clipPath>
		<g clip-path="url(#SVGID_2_)">
			<defs>
				<rect id="SVGID_3_" x="-674.2" y="-906.6" width="1200" height="4766"/>
			</defs>
			<clipPath id="SVGID_4_">
				<use xlink:href="#SVGID_3_"  overflow="visible"/>
			</clipPath>
			<g clip-path="url(#SVGID_4_)">
				<defs>
					<rect id="SVGID_5_" x="4" y="4" width="406" height="590"/>
				</defs>
				<clipPath id="SVGID_6_">
					<use xlink:href="#SVGID_5_"  overflow="visible"/>
				</clipPath>
				<path clip-path="url(#SVGID_6_)" fill="none" stroke="#E1E1E1" stroke-width="3" stroke-miterlimit="10" d="M324,167v298.5
					 M324,461.1c0,24.5-19.9,44.4-44.5,44.4 M167.7,550c0-24.5,19.9-44.4,44.5-44.4 M280.7,505.5H212 M324,167
					c0-24.5-19.9-44.4-44.5-44.4 M167.7,78.2c0,24.5,19.9,44.4,44.5,44.4 M280.7,122.6H212 M167.7,4.5v579.7"/>
			</g>
		</g>
		<g clip-path="url(#SVGID_2_)">
			<defs>
				<rect id="SVGID_7_" x="-674.2" y="-906.6" width="1200" height="4766"/>
			</defs>
			<clipPath id="SVGID_8_">
				<use xlink:href="#SVGID_7_"  overflow="visible"/>
			</clipPath>
			<g clip-path="url(#SVGID_8_)">
				<defs>
					<path id="SVGID_9_" d="M174.6,167c0,3.8-3.1,6.9-6.9,6.9s-6.9-3.1-6.9-6.9c0-3.8,3.1-6.9,6.9-6.9S174.6,163.2,174.6,167"/>
				</defs>
				<clipPath id="SVGID_10_">
					<use xlink:href="#SVGID_9_"  overflow="visible"/>
				</clipPath>
				<g clip-path="url(#SVGID_10_)">
					<defs>
						<rect id="SVGID_11_" x="4" y="4" width="406" height="590"/>
					</defs>
					<clipPath id="SVGID_12_">
						<use xlink:href="#SVGID_11_"  overflow="visible"/>
					</clipPath>
					<rect x="155.8" y="155.1" clip-path="url(#SVGID_12_)" fill="#CDDC39" width="23.8" height="23.8"/>
				</g>
			</g>
		</g>
		<g clip-path="url(#SVGID_2_)">
			<defs>
				<rect id="SVGID_13_" x="-674.2" y="-906.6" width="1200" height="4766"/>
			</defs>
			<clipPath id="SVGID_14_">
				<use xlink:href="#SVGID_13_"  overflow="visible"/>
			</clipPath>
			<g clip-path="url(#SVGID_14_)">
				<defs>
					<path id="SVGID_15_" d="M330.9,167c0,3.8-3.1,6.9-6.9,6.9c-3.8,0-6.9-3.1-6.9-6.9c0-3.8,3.1-6.9,6.9-6.9
						C327.8,160.1,330.9,163.2,330.9,167"/>
				</defs>
				<clipPath id="SVGID_16_">
					<use xlink:href="#SVGID_15_"  overflow="visible"/>
				</clipPath>
				<g clip-path="url(#SVGID_16_)">
					<defs>
						<rect id="SVGID_17_" x="4" y="4" width="406" height="590"/>
					</defs>
					<clipPath id="SVGID_18_">
						<use xlink:href="#SVGID_17_"  overflow="visible"/>
					</clipPath>
					<rect x="312.1" y="155.1" clip-path="url(#SVGID_18_)" fill="#CDDC39" width="23.8" height="23.8"/>
				</g>
			</g>
		</g>
		<g clip-path="url(#SVGID_2_)">
			<defs>
				<rect id="SVGID_19_" x="-674.2" y="-906.6" width="1200" height="4766"/>
			</defs>
			<clipPath id="SVGID_20_">
				<use xlink:href="#SVGID_19_"  overflow="visible"/>
			</clipPath>
			<g clip-path="url(#SVGID_20_)">
				<defs>
					<path id="SVGID_21_" d="M174.6,62.5c0,3.8-3.1,6.9-6.9,6.9s-6.9-3.1-6.9-6.9c0-3.8,3.1-6.9,6.9-6.9S174.6,58.7,174.6,62.5"/>
				</defs>
				<clipPath id="SVGID_22_">
					<use xlink:href="#SVGID_21_"  overflow="visible"/>
				</clipPath>
				<g clip-path="url(#SVGID_22_)">
					<defs>
						<rect id="SVGID_23_" x="4" y="4" width="406" height="590"/>
					</defs>
					<clipPath id="SVGID_24_">
						<use xlink:href="#SVGID_23_"  overflow="visible"/>
					</clipPath>
					<rect x="155.8" y="50.6" clip-path="url(#SVGID_24_)" fill="#CDDC39" width="23.8" height="23.8"/>
				</g>
			</g>
		</g>
		<g clip-path="url(#SVGID_2_)">
			<defs>
				<rect id="SVGID_25_" x="-674.2" y="-906.6" width="1200" height="4766"/>
			</defs>
			<clipPath id="SVGID_26_">
				<use xlink:href="#SVGID_25_"  overflow="visible"/>
			</clipPath>
			<g clip-path="url(#SVGID_26_)">
				<defs>
					<path id="SVGID_27_" d="M174.6,240.5c0,3.8-3.1,6.9-6.9,6.9s-6.9-3.1-6.9-6.9c0-3.8,3.1-6.9,6.9-6.9S174.6,236.7,174.6,240.5"
						/>
				</defs>
				<clipPath id="SVGID_28_">
					<use xlink:href="#SVGID_27_"  overflow="visible"/>
				</clipPath>
				<g clip-path="url(#SVGID_28_)">
					<defs>
						<rect id="SVGID_29_" x="4" y="4" width="406" height="590"/>
					</defs>
					<clipPath id="SVGID_30_">
						<use xlink:href="#SVGID_29_"  overflow="visible"/>
					</clipPath>
					<rect x="155.8" y="228.6" clip-path="url(#SVGID_30_)" fill="#FF5252" width="23.8" height="23.8"/>
				</g>
			</g>
		</g>
		<g clip-path="url(#SVGID_2_)">
			<defs>
				<rect id="SVGID_31_" x="-674.2" y="-906.6" width="1200" height="4766"/>
			</defs>
			<clipPath id="SVGID_32_">
				<use xlink:href="#SVGID_31_"  overflow="visible"/>
			</clipPath>
			<g clip-path="url(#SVGID_32_)">
				<defs>
					<path id="SVGID_33_" d="M330.9,240.5c0,3.8-3.1,6.9-6.9,6.9c-3.8,0-6.9-3.1-6.9-6.9c0-3.8,3.1-6.9,6.9-6.9
						C327.8,233.6,330.9,236.7,330.9,240.5"/>
				</defs>
				<clipPath id="SVGID_34_">
					<use xlink:href="#SVGID_33_"  overflow="visible"/>
				</clipPath>
				<g clip-path="url(#SVGID_34_)">
					<defs>
						<rect id="SVGID_35_" x="4" y="4" width="406" height="590"/>
					</defs>
					<clipPath id="SVGID_36_">
						<use xlink:href="#SVGID_35_"  overflow="visible"/>
					</clipPath>
					<rect x="312.1" y="228.6" clip-path="url(#SVGID_36_)" fill="#CDDC39" width="23.8" height="23.8"/>
				</g>
			</g>
		</g>
		<g clip-path="url(#SVGID_2_)">
			<defs>
				<rect id="SVGID_37_" x="-674.2" y="-906.6" width="1200" height="4766"/>
			</defs>
			<clipPath id="SVGID_38_">
				<use xlink:href="#SVGID_37_"  overflow="visible"/>
			</clipPath>
			<g clip-path="url(#SVGID_38_)">
				<defs>
					<path id="SVGID_39_" d="M330.9,314.1c0,3.8-3.1,6.9-6.9,6.9c-3.8,0-6.9-3.1-6.9-6.9c0-3.8,3.1-6.9,6.9-6.9
						C327.8,307.2,330.9,310.3,330.9,314.1"/>
				</defs>
				<clipPath id="SVGID_40_">
					<use xlink:href="#SVGID_39_"  overflow="visible"/>
				</clipPath>
				<g clip-path="url(#SVGID_40_)">
					<defs>
						<rect id="SVGID_41_" x="4" y="4" width="406" height="590"/>
					</defs>
					<clipPath id="SVGID_42_">
						<use xlink:href="#SVGID_41_"  overflow="visible"/>
					</clipPath>
					<rect x="312.1" y="302.2" clip-path="url(#SVGID_42_)" fill="#CDDC39" width="23.8" height="23.8"/>
				</g>
			</g>
		</g>
		<g clip-path="url(#SVGID_2_)">
			<defs>
				<rect id="SVGID_43_" x="-674.2" y="-906.6" width="1200" height="4766"/>
			</defs>
			<clipPath id="SVGID_44_">
				<use xlink:href="#SVGID_43_"  overflow="visible"/>
			</clipPath>
			<g clip-path="url(#SVGID_44_)">
				<defs>
					<path id="SVGID_45_" d="M330.9,387.6c0,3.8-3.1,6.9-6.9,6.9c-3.8,0-6.9-3.1-6.9-6.9c0-3.8,3.1-6.9,6.9-6.9
						C327.8,380.7,330.9,383.8,330.9,387.6"/>
				</defs>
				<clipPath id="SVGID_46_">
					<use xlink:href="#SVGID_45_"  overflow="visible"/>
				</clipPath>
				<g clip-path="url(#SVGID_46_)">
					<defs>
						<rect id="SVGID_47_" x="4" y="4" width="406" height="590"/>
					</defs>
					<clipPath id="SVGID_48_">
						<use xlink:href="#SVGID_47_"  overflow="visible"/>
					</clipPath>
					<rect x="312.1" y="375.7" clip-path="url(#SVGID_48_)" fill="#CDDC39" width="23.8" height="23.8"/>
				</g>
			</g>
		</g>
		<g clip-path="url(#SVGID_2_)">
			<defs>
				<rect id="SVGID_49_" x="-674.2" y="-906.6" width="1200" height="4766"/>
			</defs>
			<clipPath id="SVGID_50_">
				<use xlink:href="#SVGID_49_"  overflow="visible"/>
			</clipPath>
			<g clip-path="url(#SVGID_50_)">
				<defs>
					<path id="SVGID_51_" d="M330.9,461.1c0,3.8-3.1,6.9-6.9,6.9c-3.8,0-6.9-3.1-6.9-6.9c0-3.8,3.1-6.9,6.9-6.9
						C327.8,454.2,330.9,457.3,330.9,461.1"/>
				</defs>
				<clipPath id="SVGID_52_">
					<use xlink:href="#SVGID_51_"  overflow="visible"/>
				</clipPath>
				<g clip-path="url(#SVGID_52_)">
					<defs>
						<rect id="SVGID_53_" x="4" y="4" width="406" height="590"/>
					</defs>
					<clipPath id="SVGID_54_">
						<use xlink:href="#SVGID_53_"  overflow="visible"/>
					</clipPath>
					<rect x="312.1" y="449.2" clip-path="url(#SVGID_54_)" fill="#CDDC39" width="23.8" height="23.8"/>
				</g>
			</g>
		</g>
		<g clip-path="url(#SVGID_2_)">
			<defs>
				<rect id="SVGID_55_" x="-674.2" y="-906.6" width="1200" height="4766"/>
			</defs>
			<clipPath id="SVGID_56_">
				<use xlink:href="#SVGID_55_"  overflow="visible"/>
			</clipPath>
			<g clip-path="url(#SVGID_56_)">
				<defs>
					<rect id="SVGID_57_" x="4" y="4" width="406" height="590"/>
				</defs>
				<clipPath id="SVGID_58_">
					<use xlink:href="#SVGID_57_"  overflow="visible"/>
				</clipPath>
				<path clip-path="url(#SVGID_58_)" fill="none" stroke="#E1E1E1" stroke-width="3" stroke-miterlimit="10" d="M11.4,167v298.5
					 M11.4,461.1c0,24.5,19.9,44.4,44.5,44.4 M167.7,550c0-24.5-19.9-44.4-44.5-44.4 M54.7,505.5h68.6 M11.4,167
					c0-24.5,19.9-44.4,44.5-44.4 M167.7,78.2c0,24.5-19.9,44.4-44.5,44.4 M54.7,122.6h68.6"/>
			</g>
		</g>
		<g clip-path="url(#SVGID_2_)">
			<defs>
				<rect id="SVGID_59_" x="-674.2" y="-906.6" width="1200" height="4766"/>
			</defs>
			<clipPath id="SVGID_60_">
				<use xlink:href="#SVGID_59_"  overflow="visible"/>
			</clipPath>
			<g clip-path="url(#SVGID_60_)">
				<defs>
					<path id="SVGID_61_" d="M4.4,167c0,3.8,3.1,6.9,6.9,6.9c3.8,0,6.9-3.1,6.9-6.9c0-3.8-3.1-6.9-6.9-6.9
						C7.5,160.1,4.4,163.2,4.4,167"/>
				</defs>
				<clipPath id="SVGID_62_">
					<use xlink:href="#SVGID_61_"  overflow="visible"/>
				</clipPath>
				<g clip-path="url(#SVGID_62_)">
					<defs>
						<rect id="SVGID_63_" x="4" y="4" width="406" height="590"/>
					</defs>
					<clipPath id="SVGID_64_">
						<use xlink:href="#SVGID_63_"  overflow="visible"/>
					</clipPath>
					<rect x="-0.6" y="155.1" clip-path="url(#SVGID_64_)" fill="#CDDC39" width="23.8" height="23.8"/>
				</g>
			</g>
		</g>
		<g clip-path="url(#SVGID_2_)">
			<defs>
				<rect id="SVGID_65_" x="-674.2" y="-906.6" width="1200" height="4766"/>
			</defs>
			<clipPath id="SVGID_66_">
				<use xlink:href="#SVGID_65_"  overflow="visible"/>
			</clipPath>
			<g clip-path="url(#SVGID_66_)">
				<defs>
					<path id="SVGID_67_" d="M4.4,240.5c0,3.8,3.1,6.9,6.9,6.9c3.8,0,6.9-3.1,6.9-6.9c0-3.8-3.1-6.9-6.9-6.9
						C7.5,233.6,4.4,236.7,4.4,240.5"/>
				</defs>
				<clipPath id="SVGID_68_">
					<use xlink:href="#SVGID_67_"  overflow="visible"/>
				</clipPath>
				<g clip-path="url(#SVGID_68_)">
					<defs>
						<rect id="SVGID_69_" x="4" y="4" width="406" height="590"/>
					</defs>
					<clipPath id="SVGID_70_">
						<use xlink:href="#SVGID_69_"  overflow="visible"/>
					</clipPath>
					<rect x="-0.6" y="228.6" clip-path="url(#SVGID_70_)" fill="#CDDC39" width="23.8" height="23.8"/>
				</g>
			</g>
		</g>
		<g clip-path="url(#SVGID_2_)">
			<defs>
				<rect id="SVGID_71_" x="-674.2" y="-906.6" width="1200" height="4766"/>
			</defs>
			<clipPath id="SVGID_72_">
				<use xlink:href="#SVGID_71_"  overflow="visible"/>
			</clipPath>
			<g clip-path="url(#SVGID_72_)">
				<defs>
					<path id="SVGID_73_" d="M4.4,314.1c0,3.8,3.1,6.9,6.9,6.9c3.8,0,6.9-3.1,6.9-6.9c0-3.8-3.1-6.9-6.9-6.9
						C7.5,307.2,4.4,310.3,4.4,314.1"/>
				</defs>
				<clipPath id="SVGID_74_">
					<use xlink:href="#SVGID_73_"  overflow="visible"/>
				</clipPath>
				<g clip-path="url(#SVGID_74_)">
					<defs>
						<rect id="SVGID_75_" x="4" y="4" width="406" height="590"/>
					</defs>
					<clipPath id="SVGID_76_">
						<use xlink:href="#SVGID_75_"  overflow="visible"/>
					</clipPath>
					<rect x="-0.6" y="302.2" clip-path="url(#SVGID_76_)" fill="#FF5252" width="23.8" height="23.8"/>
				</g>
			</g>
		</g>
		<g clip-path="url(#SVGID_2_)">
			<defs>
				<rect id="SVGID_77_" x="-674.2" y="-906.6" width="1200" height="4766"/>
			</defs>
			<clipPath id="SVGID_78_">
				<use xlink:href="#SVGID_77_"  overflow="visible"/>
			</clipPath>
			<g clip-path="url(#SVGID_78_)">
				<defs>
					<path id="SVGID_79_" d="M174.6,584.2c0,3.8-3.1,6.9-6.9,6.9s-6.9-3.1-6.9-6.9c0-3.8,3.1-6.9,6.9-6.9S174.6,580.4,174.6,584.2"
						/>
				</defs>
				<clipPath id="SVGID_80_">
					<use xlink:href="#SVGID_79_"  overflow="visible"/>
				</clipPath>
				<g clip-path="url(#SVGID_80_)">
					<defs>
						<rect id="SVGID_81_" x="4" y="4" width="406" height="590"/>
					</defs>
					<clipPath id="SVGID_82_">
						<use xlink:href="#SVGID_81_"  overflow="visible"/>
					</clipPath>
					<rect x="155.8" y="572.3" clip-path="url(#SVGID_82_)" fill="#CDDC39" width="23.8" height="23.8"/>
				</g>
			</g>
		</g>
		<g clip-path="url(#SVGID_2_)">
			<defs>
				<rect id="SVGID_83_" x="-674.2" y="-906.6" width="1200" height="4766"/>
			</defs>
			<clipPath id="SVGID_84_">
				<use xlink:href="#SVGID_83_"  overflow="visible"/>
			</clipPath>
			<g clip-path="url(#SVGID_84_)">
				<defs>
					<rect id="SVGID_85_" x="4" y="4" width="406" height="590"/>
				</defs>
				<clipPath id="SVGID_86_">
					<use xlink:href="#SVGID_85_"  overflow="visible"/>
				</clipPath>
				<g clip-path="url(#SVGID_86_)">
					<path fill="#464646" d="M191.3,57.6c-1,0-1.8,0.4-2.4,1.1s-0.9,1.7-0.9,3c0,1.3,0.3,2.4,0.9,3s1.4,1,2.5,1c0.5,0,0.9,0,1.3-0.1
						c0.4-0.1,0.9-0.2,1.4-0.4v1.5c-0.9,0.3-1.8,0.5-2.9,0.5c-1.6,0-2.8-0.5-3.7-1.5c-0.9-1-1.3-2.4-1.3-4.2c0-1.1,0.2-2.1,0.6-3
						c0.4-0.9,1-1.5,1.8-2c0.8-0.5,1.7-0.7,2.8-0.7c1.1,0,2.2,0.2,3.1,0.7l-0.6,1.5c-0.4-0.2-0.8-0.3-1.2-0.5
						C192.2,57.6,191.8,57.6,191.3,57.6z"/>
					<path fill="#464646" d="M203.6,63c0,1.4-0.3,2.4-1,3.2c-0.7,0.8-1.7,1.1-2.9,1.1c-0.8,0-1.5-0.2-2.1-0.5
						c-0.6-0.3-1.1-0.9-1.4-1.5c-0.3-0.7-0.5-1.4-0.5-2.3c0-1.3,0.3-2.4,1-3.1c0.7-0.8,1.7-1.1,2.9-1.1c1.2,0,2.1,0.4,2.8,1.2
						C203.2,60.6,203.6,61.7,203.6,63z M197.5,63c0,1.9,0.7,2.9,2.1,2.9c1.4,0,2.1-1,2.1-2.9c0-1.9-0.7-2.8-2.1-2.8
						c-0.7,0-1.3,0.2-1.6,0.7C197.7,61.4,197.5,62.1,197.5,63z"/>
					<path fill="#464646" d="M208.9,67.3c-1.3,0-2.2-0.4-2.9-1.1c-0.7-0.7-1-1.8-1-3.2c0-1.4,0.3-2.5,1-3.2c0.7-0.7,1.7-1.1,3-1.1
						c0.9,0,1.7,0.2,2.4,0.5l-0.5,1.4c-0.7-0.3-1.4-0.4-1.8-0.4c-1.4,0-2.2,1-2.2,2.9c0,0.9,0.2,1.6,0.5,2.1
						c0.4,0.5,0.9,0.7,1.6,0.7c0.8,0,1.5-0.2,2.2-0.6v1.5c-0.3,0.2-0.7,0.3-1,0.4C209.9,67.2,209.4,67.3,208.9,67.3z"/>
					<path fill="#464646" d="M220.5,63c0,1.4-0.3,2.4-1,3.2c-0.7,0.8-1.7,1.1-2.9,1.1c-0.8,0-1.5-0.2-2.1-0.5
						c-0.6-0.3-1.1-0.9-1.4-1.5c-0.3-0.7-0.5-1.4-0.5-2.3c0-1.3,0.3-2.4,1-3.1c0.7-0.8,1.7-1.1,2.9-1.1c1.2,0,2.1,0.4,2.8,1.2
						C220.2,60.6,220.5,61.7,220.5,63z M214.5,63c0,1.9,0.7,2.9,2.1,2.9c1.4,0,2.1-1,2.1-2.9c0-1.9-0.7-2.8-2.1-2.8
						c-0.7,0-1.3,0.2-1.6,0.7C214.7,61.4,214.5,62.1,214.5,63z"/>
					<path fill="#464646" d="M227.7,67.1l-0.4-1.2h-0.1c-0.4,0.5-0.8,0.8-1.2,1c-0.4,0.2-0.9,0.3-1.6,0.3c-0.8,0-1.5-0.2-1.9-0.7
						s-0.7-1.1-0.7-1.9c0-0.9,0.3-1.5,1-1.9s1.6-0.7,2.9-0.7l1.4,0v-0.4c0-0.5-0.1-0.9-0.4-1.2c-0.2-0.3-0.6-0.4-1.2-0.4
						c-0.4,0-0.8,0.1-1.2,0.2s-0.8,0.3-1.1,0.4l-0.6-1.3c0.4-0.2,0.9-0.4,1.5-0.5c0.5-0.1,1-0.2,1.5-0.2c1.1,0,1.8,0.2,2.4,0.7
						s0.8,1.2,0.8,2.2v5.6H227.7z M225.1,65.9c0.6,0,1.2-0.2,1.5-0.5c0.4-0.4,0.6-0.9,0.6-1.5v-0.7l-1.1,0c-0.8,0-1.4,0.2-1.8,0.4
						c-0.4,0.2-0.6,0.6-0.6,1.1c0,0.4,0.1,0.7,0.3,0.9C224.3,65.8,224.7,65.9,225.1,65.9z"/>
					<path fill="#464646" d="M238.9,59.5c0,1.1-0.4,2-1.1,2.6S236,63,234.6,63h-1.1v4.1h-1.8v-11h3.2c1.4,0,2.4,0.3,3.1,0.8
						C238.6,57.6,238.9,58.4,238.9,59.5z M233.4,61.5h1c0.9,0,1.6-0.2,2-0.5c0.4-0.3,0.6-0.8,0.6-1.5c0-0.6-0.2-1.1-0.6-1.4
						c-0.4-0.3-1-0.5-1.8-0.5h-1.2V61.5z"/>
					<path fill="#464646" d="M248.2,63c0,1.4-0.3,2.4-1,3.2c-0.7,0.8-1.7,1.1-2.9,1.1c-0.8,0-1.5-0.2-2.1-0.5
						c-0.6-0.3-1.1-0.9-1.4-1.5c-0.3-0.7-0.5-1.4-0.5-2.3c0-1.3,0.3-2.4,1-3.1c0.7-0.8,1.7-1.1,2.9-1.1c1.2,0,2.1,0.4,2.8,1.2
						C247.9,60.6,248.2,61.7,248.2,63z M242.2,63c0,1.9,0.7,2.9,2.1,2.9c1.4,0,2.1-1,2.1-2.9c0-1.9-0.7-2.8-2.1-2.8
						c-0.7,0-1.3,0.2-1.6,0.7C242.4,61.4,242.2,62.1,242.2,63z"/>
					<path fill="#464646" d="M253.1,67.3c-1,0-1.8-0.4-2.4-1.1c-0.6-0.8-0.9-1.8-0.9-3.2c0-1.4,0.3-2.4,0.9-3.2
						c0.6-0.8,1.4-1.1,2.4-1.1c1.1,0,1.9,0.4,2.5,1.2h0.1c-0.1-0.6-0.1-1.1-0.1-1.4v-3h1.8v11.7h-1.4l-0.3-1.1h-0.1
						C255,66.9,254.2,67.3,253.1,67.3z M253.5,65.9c0.7,0,1.3-0.2,1.6-0.6s0.5-1.1,0.5-2V63c0-1-0.2-1.8-0.5-2.2s-0.9-0.7-1.6-0.7
						c-0.6,0-1.1,0.3-1.4,0.8c-0.3,0.5-0.5,1.2-0.5,2.1c0,0.9,0.2,1.6,0.5,2.1C252.4,65.6,252.9,65.9,253.5,65.9z"/>
					<path fill="#464646" d="M265.4,64.8c0,0.8-0.3,1.4-0.9,1.9c-0.6,0.4-1.4,0.6-2.5,0.6c-1.1,0-2-0.2-2.7-0.5v-1.5
						c1,0.4,1.9,0.7,2.7,0.7c1.1,0,1.6-0.3,1.6-1c0-0.2-0.1-0.4-0.2-0.5c-0.1-0.1-0.3-0.3-0.6-0.4c-0.3-0.1-0.7-0.3-1.1-0.5
						c-1-0.4-1.6-0.7-1.9-1.1c-0.3-0.4-0.5-0.8-0.5-1.4c0-0.7,0.3-1.3,0.9-1.7c0.6-0.4,1.4-0.6,2.3-0.6c1,0,1.9,0.2,2.8,0.6
						l-0.6,1.3c-0.9-0.4-1.6-0.6-2.3-0.6c-0.9,0-1.4,0.3-1.4,0.8c0,0.3,0.1,0.5,0.4,0.7c0.2,0.2,0.8,0.4,1.6,0.7
						c0.7,0.3,1.2,0.5,1.5,0.7s0.5,0.5,0.7,0.8S265.4,64.4,265.4,64.8z"/>
				</g>
				<g clip-path="url(#SVGID_86_)">
					<path fill="#464646" d="M188.3,166.4l-2.8-4.1h2l1.9,2.9l1.9-2.9h2l-2.8,4.1l2.9,4.2h-2l-2-3.1l-2,3.1h-2L188.3,166.4z"/>
					<path fill="#464646" d="M198,170.8c-1.3,0-2.2-0.4-2.9-1.1c-0.7-0.7-1-1.8-1-3.2c0-1.4,0.3-2.5,1-3.2c0.7-0.7,1.7-1.1,3-1.1
						c0.9,0,1.7,0.2,2.4,0.5l-0.5,1.4c-0.7-0.3-1.4-0.4-1.8-0.4c-1.4,0-2.2,1-2.2,2.9c0,0.9,0.2,1.6,0.5,2.1
						c0.4,0.5,0.9,0.7,1.6,0.7c0.8,0,1.5-0.2,2.2-0.6v1.5c-0.3,0.2-0.7,0.3-1,0.4C198.9,170.8,198.5,170.8,198,170.8z"/>
					<path fill="#464646" d="M205.3,169.4c0.4,0,0.9-0.1,1.3-0.2v1.3c-0.2,0.1-0.4,0.2-0.8,0.2s-0.6,0.1-1,0.1
						c-1.7,0-2.5-0.9-2.5-2.6v-4.5h-1.1v-0.8l1.2-0.6l0.6-1.8h1.1v1.8h2.4v1.3h-2.4v4.4c0,0.4,0.1,0.7,0.3,0.9
						C204.7,169.3,205,169.4,205.3,169.4z"/>
					<path fill="#464646" d="M215.6,166.5c0,1.4-0.3,2.4-1,3.2c-0.7,0.8-1.7,1.1-2.9,1.1c-0.8,0-1.5-0.2-2.1-0.5
						c-0.6-0.3-1.1-0.9-1.4-1.5c-0.3-0.7-0.5-1.4-0.5-2.3c0-1.3,0.3-2.4,1-3.1c0.7-0.8,1.7-1.1,2.9-1.1c1.2,0,2.1,0.4,2.8,1.2
						C215.3,164.2,215.6,165.2,215.6,166.5z M209.6,166.5c0,1.9,0.7,2.9,2.1,2.9c1.4,0,2.1-1,2.1-2.9c0-1.9-0.7-2.8-2.1-2.8
						c-0.7,0-1.3,0.2-1.6,0.7C209.8,164.9,209.6,165.6,209.6,166.5z"/>
					<path fill="#464646" d="M225,166.5c0,1.4-0.3,2.4-1,3.2c-0.7,0.8-1.7,1.1-2.9,1.1c-0.8,0-1.5-0.2-2.1-0.5
						c-0.6-0.3-1.1-0.9-1.4-1.5c-0.3-0.7-0.5-1.4-0.5-2.3c0-1.3,0.3-2.4,1-3.1c0.7-0.8,1.7-1.1,2.9-1.1c1.2,0,2.1,0.4,2.8,1.2
						C224.6,164.2,225,165.2,225,166.5z M219,166.5c0,1.9,0.7,2.9,2.1,2.9c1.4,0,2.1-1,2.1-2.9c0-1.9-0.7-2.8-2.1-2.8
						c-0.7,0-1.3,0.2-1.6,0.7C219.1,164.9,219,165.6,219,166.5z"/>
					<path fill="#464646" d="M228.8,170.7H227V159h1.8V170.7z"/>
				</g>
				<g clip-path="url(#SVGID_86_)">
					<path fill="#464646" d="M28.8,166.4l-2.8-4.1h2l1.9,2.9l1.9-2.9h2l-2.8,4.1l2.9,4.2h-2l-2-3.1l-2,3.1h-2L28.8,166.4z"/>
					<path fill="#464646" d="M38.5,170.8c-1.3,0-2.2-0.4-2.9-1.1c-0.7-0.7-1-1.8-1-3.2c0-1.4,0.3-2.5,1-3.2c0.7-0.7,1.7-1.1,3-1.1
						c0.9,0,1.7,0.2,2.4,0.5l-0.5,1.4c-0.7-0.3-1.4-0.4-1.8-0.4c-1.4,0-2.2,1-2.2,2.9c0,0.9,0.2,1.6,0.5,2.1
						c0.4,0.5,0.9,0.7,1.6,0.7c0.8,0,1.5-0.2,2.2-0.6v1.5c-0.3,0.2-0.7,0.3-1,0.4C39.4,170.8,39,170.8,38.5,170.8z"/>
					<path fill="#464646" d="M45.8,169.4c0.4,0,0.9-0.1,1.3-0.2v1.3c-0.2,0.1-0.4,0.2-0.8,0.2s-0.6,0.1-1,0.1
						c-1.7,0-2.5-0.9-2.5-2.6v-4.5h-1.1v-0.8l1.2-0.6l0.6-1.8h1.1v1.8H47v1.3h-2.4v4.4c0,0.4,0.1,0.7,0.3,0.9
						C45.2,169.3,45.5,169.4,45.8,169.4z"/>
					<path fill="#464646" d="M56.1,166.5c0,1.4-0.3,2.4-1,3.2c-0.7,0.8-1.7,1.1-2.9,1.1c-0.8,0-1.5-0.2-2.1-0.5
						c-0.6-0.3-1.1-0.9-1.4-1.5c-0.3-0.7-0.5-1.4-0.5-2.3c0-1.3,0.3-2.4,1-3.1c0.7-0.8,1.7-1.1,2.9-1.1c1.2,0,2.1,0.4,2.8,1.2
						C55.8,164.2,56.1,165.2,56.1,166.5z M50.1,166.5c0,1.9,0.7,2.9,2.1,2.9c1.4,0,2.1-1,2.1-2.9c0-1.9-0.7-2.8-2.1-2.8
						c-0.7,0-1.3,0.2-1.6,0.7C50.2,164.9,50.1,165.6,50.1,166.5z"/>
					<path fill="#464646" d="M65.5,166.5c0,1.4-0.3,2.4-1,3.2c-0.7,0.8-1.7,1.1-2.9,1.1c-0.8,0-1.5-0.2-2.1-0.5
						c-0.6-0.3-1.1-0.9-1.4-1.5c-0.3-0.7-0.5-1.4-0.5-2.3c0-1.3,0.3-2.4,1-3.1c0.7-0.8,1.7-1.1,2.9-1.1c1.2,0,2.1,0.4,2.8,1.2
						C65.1,164.2,65.5,165.2,65.5,166.5z M59.5,166.5c0,1.9,0.7,2.9,2.1,2.9c1.4,0,2.1-1,2.1-2.9c0-1.9-0.7-2.8-2.1-2.8
						c-0.7,0-1.3,0.2-1.6,0.7C59.6,164.9,59.5,165.6,59.5,166.5z"/>
					<path fill="#464646" d="M69.3,170.7h-1.8V159h1.8V170.7z"/>
				</g>
				<g clip-path="url(#SVGID_86_)">
					<path fill="#464646" d="M345.3,166.4l-2.8-4.1h2l1.9,2.9l1.9-2.9h2l-2.8,4.1l2.9,4.2h-2l-2-3.1l-2,3.1h-2L345.3,166.4z"/>
					<path fill="#464646" d="M355,170.8c-1.3,0-2.2-0.4-2.9-1.1c-0.7-0.7-1-1.8-1-3.2c0-1.4,0.3-2.5,1-3.2c0.7-0.7,1.7-1.1,3-1.1
						c0.9,0,1.7,0.2,2.4,0.5l-0.5,1.4c-0.7-0.3-1.4-0.4-1.8-0.4c-1.4,0-2.2,1-2.2,2.9c0,0.9,0.2,1.6,0.5,2.1
						c0.4,0.5,0.9,0.7,1.6,0.7c0.8,0,1.5-0.2,2.2-0.6v1.5c-0.3,0.2-0.7,0.3-1,0.4C355.9,170.8,355.5,170.8,355,170.8z"/>
					<path fill="#464646" d="M362.3,169.4c0.4,0,0.9-0.1,1.3-0.2v1.3c-0.2,0.1-0.4,0.2-0.8,0.2s-0.6,0.1-1,0.1
						c-1.7,0-2.5-0.9-2.5-2.6v-4.5h-1.1v-0.8l1.2-0.6l0.6-1.8h1.1v1.8h2.4v1.3h-2.4v4.4c0,0.4,0.1,0.7,0.3,0.9
						C361.7,169.3,362,169.4,362.3,169.4z"/>
					<path fill="#464646" d="M372.6,166.5c0,1.4-0.3,2.4-1,3.2c-0.7,0.8-1.7,1.1-2.9,1.1c-0.8,0-1.5-0.2-2.1-0.5
						c-0.6-0.3-1.1-0.9-1.4-1.5c-0.3-0.7-0.5-1.4-0.5-2.3c0-1.3,0.3-2.4,1-3.1c0.7-0.8,1.7-1.1,2.9-1.1c1.2,0,2.1,0.4,2.8,1.2
						C372.3,164.2,372.6,165.2,372.6,166.5z M366.6,166.5c0,1.9,0.7,2.9,2.1,2.9c1.4,0,2.1-1,2.1-2.9c0-1.9-0.7-2.8-2.1-2.8
						c-0.7,0-1.3,0.2-1.6,0.7C366.8,164.9,366.6,165.6,366.6,166.5z"/>
					<path fill="#464646" d="M382,166.5c0,1.4-0.3,2.4-1,3.2c-0.7,0.8-1.7,1.1-2.9,1.1c-0.8,0-1.5-0.2-2.1-0.5
						c-0.6-0.3-1.1-0.9-1.4-1.5c-0.3-0.7-0.5-1.4-0.5-2.3c0-1.3,0.3-2.4,1-3.1c0.7-0.8,1.7-1.1,2.9-1.1c1.2,0,2.1,0.4,2.8,1.2
						C381.7,164.2,382,165.2,382,166.5z M376,166.5c0,1.9,0.7,2.9,2.1,2.9c1.4,0,2.1-1,2.1-2.9c0-1.9-0.7-2.8-2.1-2.8
						c-0.7,0-1.3,0.2-1.6,0.7C376.1,164.9,376,165.6,376,166.5z"/>
					<path fill="#464646" d="M385.8,170.7H384V159h1.8V170.7z"/>
				</g>
				<g clip-path="url(#SVGID_86_)">
					<path fill="#464646" d="M189.3,246.8c-1,0-1.8-0.4-2.4-1.1c-0.6-0.8-0.9-1.8-0.9-3.2c0-1.4,0.3-2.4,0.9-3.2
						c0.6-0.8,1.4-1.1,2.4-1.1c1.1,0,1.9,0.4,2.5,1.2h0.1c-0.1-0.6-0.1-1.1-0.1-1.4v-3h1.8v11.7h-1.4l-0.3-1.1h-0.1
						C191.2,246.4,190.4,246.8,189.3,246.8z M189.8,245.4c0.7,0,1.3-0.2,1.6-0.6s0.5-1.1,0.5-2v-0.2c0-1-0.2-1.8-0.5-2.2
						s-0.9-0.7-1.6-0.7c-0.6,0-1.1,0.3-1.4,0.8c-0.3,0.5-0.5,1.2-0.5,2.1c0,0.9,0.2,1.6,0.5,2.1
						C188.6,245.1,189.1,245.4,189.8,245.4z"/>
					<path fill="#464646" d="M199.7,246.8c-1.3,0-2.3-0.4-3-1.1c-0.7-0.8-1.1-1.8-1.1-3.1c0-1.4,0.3-2.4,1-3.2
						c0.7-0.8,1.6-1.2,2.8-1.2c1.1,0,2,0.3,2.6,1c0.6,0.7,1,1.6,1,2.7v1h-5.5c0,0.8,0.2,1.4,0.7,1.9c0.4,0.4,1,0.6,1.7,0.6
						c0.5,0,0.9,0,1.4-0.1c0.4-0.1,0.9-0.2,1.4-0.5v1.4c-0.4,0.2-0.9,0.3-1.3,0.4S200.2,246.8,199.7,246.8z M199.3,239.5
						c-0.6,0-1,0.2-1.3,0.5c-0.3,0.4-0.5,0.9-0.6,1.6h3.8c0-0.7-0.2-1.2-0.5-1.6C200.3,239.7,199.9,239.5,199.3,239.5z"/>
					<path fill="#464646" d="M206.6,246.6h-1.8V235h1.8V246.6z"/>
					<path fill="#464646" d="M209.1,236.2c0-0.3,0.1-0.6,0.3-0.7s0.4-0.3,0.7-0.3c0.3,0,0.6,0.1,0.7,0.3s0.3,0.4,0.3,0.7
						c0,0.3-0.1,0.5-0.3,0.7c-0.2,0.2-0.4,0.3-0.7,0.3c-0.3,0-0.6-0.1-0.7-0.3C209.1,236.7,209.1,236.5,209.1,236.2z M210.9,246.6
						h-1.8v-8.3h1.8V246.6z"/>
					<path fill="#464646" d="M215.3,246.6l-3.1-8.3h1.9l1.7,4.8c0.3,0.8,0.5,1.5,0.5,2h0.1c0-0.4,0.2-1,0.5-2l1.7-4.8h1.9l-3.2,8.3
						H215.3z"/>
					<path fill="#464646" d="M225.3,246.8c-1.3,0-2.3-0.4-3-1.1c-0.7-0.8-1.1-1.8-1.1-3.1c0-1.4,0.3-2.4,1-3.2
						c0.7-0.8,1.6-1.2,2.8-1.2c1.1,0,2,0.3,2.6,1c0.6,0.7,1,1.6,1,2.7v1H223c0,0.8,0.2,1.4,0.7,1.9c0.4,0.4,1,0.6,1.7,0.6
						c0.5,0,0.9,0,1.4-0.1c0.4-0.1,0.9-0.2,1.4-0.5v1.4c-0.4,0.2-0.9,0.3-1.3,0.4S225.8,246.8,225.3,246.8z M225,239.5
						c-0.6,0-1,0.2-1.3,0.5c-0.3,0.4-0.5,0.9-0.6,1.6h3.8c0-0.7-0.2-1.2-0.5-1.6C226,239.7,225.5,239.5,225,239.5z"/>
					<path fill="#464646" d="M234.7,238.2c0.4,0,0.6,0,0.9,0.1l-0.2,1.6c-0.2-0.1-0.5-0.1-0.8-0.1c-0.7,0-1.3,0.2-1.7,0.7
						c-0.4,0.5-0.7,1.1-0.7,1.8v4.3h-1.8v-8.3h1.4l0.2,1.5h0.1c0.3-0.5,0.6-0.9,1.1-1.2C233.7,238.3,234.2,238.2,234.7,238.2z"/>
					<path fill="#464646" d="M236.9,239.3c0-0.8,0.4-1.1,1.1-1.1c0.4,0,0.7,0.1,0.8,0.3c0.2,0.2,0.3,0.5,0.3,0.8s-0.1,0.6-0.3,0.8
						c-0.2,0.2-0.5,0.3-0.8,0.3c-0.4,0-0.6-0.1-0.8-0.3S236.9,239.7,236.9,239.3z M236.9,245.7c0-0.4,0.1-0.6,0.3-0.8
						c0.2-0.2,0.5-0.3,0.8-0.3c0.4,0,0.6,0.1,0.8,0.3c0.2,0.2,0.3,0.5,0.3,0.8c0,0.4-0.1,0.6-0.3,0.8s-0.5,0.3-0.8,0.3
						c-0.4,0-0.6-0.1-0.8-0.3S236.9,246.1,236.9,245.7z"/>
					<path fill="#464646" d="M249.6,238.2c1,0,1.8,0.4,2.4,1.1s0.9,1.8,0.9,3.2c0,1.4-0.3,2.4-0.9,3.2s-1.4,1.1-2.4,1.1
						c-1,0-1.9-0.4-2.4-1.1H247l-0.3,1h-1.3V235h1.8v2.8c0,0.2,0,0.5,0,0.9s0,0.7,0,0.8h0.1C247.6,238.6,248.5,238.2,249.6,238.2z
						 M249.1,239.6c-0.7,0-1.2,0.2-1.5,0.6c-0.3,0.4-0.5,1.1-0.5,2.1v0.1c0,1,0.2,1.7,0.5,2.2c0.3,0.5,0.8,0.7,1.6,0.7
						c0.6,0,1.1-0.2,1.4-0.7c0.3-0.5,0.5-1.2,0.5-2.1C251,240.6,250.4,239.6,249.1,239.6z"/>
					<path fill="#464646" d="M258.5,246.8c-1.3,0-2.3-0.4-3-1.1c-0.7-0.8-1.1-1.8-1.1-3.1c0-1.4,0.3-2.4,1-3.2
						c0.7-0.8,1.6-1.2,2.8-1.2c1.1,0,2,0.3,2.6,1c0.6,0.7,1,1.6,1,2.7v1h-5.5c0,0.8,0.2,1.4,0.7,1.9c0.4,0.4,1,0.6,1.7,0.6
						c0.5,0,0.9,0,1.4-0.1c0.4-0.1,0.9-0.2,1.4-0.5v1.4c-0.4,0.2-0.9,0.3-1.3,0.4S259.1,246.8,258.5,246.8z M258.2,239.5
						c-0.6,0-1,0.2-1.3,0.5c-0.3,0.4-0.5,0.9-0.6,1.6h3.8c0-0.7-0.2-1.2-0.5-1.6C259.2,239.7,258.7,239.5,258.2,239.5z"/>
					<path fill="#464646" d="M266.8,245.4c0.4,0,0.9-0.1,1.3-0.2v1.3c-0.2,0.1-0.4,0.2-0.8,0.2s-0.6,0.1-1,0.1
						c-1.7,0-2.5-0.9-2.5-2.6v-4.5h-1.1v-0.8l1.2-0.6l0.6-1.8h1.1v1.8h2.4v1.3h-2.4v4.4c0,0.4,0.1,0.7,0.3,0.9
						C266.2,245.3,266.5,245.4,266.8,245.4z"/>
					<path fill="#464646" d="M274.9,246.6l-0.4-1.2h-0.1c-0.4,0.5-0.8,0.8-1.2,1c-0.4,0.2-0.9,0.3-1.6,0.3c-0.8,0-1.5-0.2-1.9-0.7
						s-0.7-1.1-0.7-1.9c0-0.9,0.3-1.5,1-1.9s1.6-0.7,2.9-0.7l1.4,0v-0.4c0-0.5-0.1-0.9-0.4-1.2c-0.2-0.3-0.6-0.4-1.2-0.4
						c-0.4,0-0.8,0.1-1.2,0.2s-0.8,0.3-1.1,0.4l-0.6-1.3c0.4-0.2,0.9-0.4,1.5-0.5c0.5-0.1,1-0.2,1.5-0.2c1.1,0,1.8,0.2,2.4,0.7
						s0.8,1.2,0.8,2.2v5.6H274.9z M272.3,245.4c0.6,0,1.2-0.2,1.5-0.5c0.4-0.4,0.6-0.9,0.6-1.5v-0.7l-1.1,0c-0.8,0-1.4,0.2-1.8,0.4
						c-0.4,0.2-0.6,0.6-0.6,1.1c0,0.4,0.1,0.7,0.3,0.9C271.5,245.3,271.9,245.4,272.3,245.4z"/>
				</g>
				<g clip-path="url(#SVGID_86_)">
					<path fill="#464646" d="M32.5,244.3c0,0.8-0.3,1.4-0.9,1.9c-0.6,0.4-1.4,0.6-2.5,0.6c-1.1,0-2-0.2-2.7-0.5v-1.5
						c1,0.4,1.9,0.7,2.7,0.7c1.1,0,1.6-0.3,1.6-1c0-0.2-0.1-0.4-0.2-0.5c-0.1-0.1-0.3-0.3-0.6-0.4c-0.3-0.1-0.7-0.3-1.1-0.5
						c-1-0.4-1.6-0.7-1.9-1.1c-0.3-0.4-0.5-0.8-0.5-1.4c0-0.7,0.3-1.3,0.9-1.7c0.6-0.4,1.4-0.6,2.3-0.6c1,0,1.9,0.2,2.8,0.6
						l-0.6,1.3c-0.9-0.4-1.6-0.6-2.3-0.6c-0.9,0-1.4,0.3-1.4,0.8c0,0.3,0.1,0.5,0.4,0.7c0.2,0.2,0.8,0.4,1.6,0.7
						c0.7,0.3,1.2,0.5,1.5,0.7s0.5,0.5,0.7,0.8S32.5,243.9,32.5,244.3z"/>
					<path fill="#464646" d="M41.7,246.6H40v-5.1c0-0.6-0.1-1.1-0.4-1.4c-0.3-0.3-0.7-0.5-1.2-0.5c-0.7,0-1.3,0.2-1.6,0.7
						s-0.5,1.2-0.5,2.2v4.1h-1.8v-8.3h1.4l0.2,1.1h0.1c0.2-0.4,0.6-0.7,1.1-0.9c0.5-0.2,1-0.3,1.5-0.3c2,0,3,1,3,3V246.6z"/>
					<path fill="#464646" d="M49.4,246.6l-0.4-1.2H49c-0.4,0.5-0.8,0.8-1.2,1c-0.4,0.2-0.9,0.3-1.6,0.3c-0.8,0-1.5-0.2-1.9-0.7
						s-0.7-1.1-0.7-1.9c0-0.9,0.3-1.5,1-1.9s1.6-0.7,2.9-0.7l1.4,0v-0.4c0-0.5-0.1-0.9-0.4-1.2c-0.2-0.3-0.6-0.4-1.2-0.4
						c-0.4,0-0.8,0.1-1.2,0.2s-0.8,0.3-1.1,0.4l-0.6-1.3c0.4-0.2,0.9-0.4,1.5-0.5c0.5-0.1,1-0.2,1.5-0.2c1.1,0,1.8,0.2,2.4,0.7
						s0.8,1.2,0.8,2.2v5.6H49.4z M46.7,245.4c0.6,0,1.2-0.2,1.5-0.5c0.4-0.4,0.6-0.9,0.6-1.5v-0.7l-1.1,0c-0.8,0-1.4,0.2-1.8,0.4
						c-0.4,0.2-0.6,0.6-0.6,1.1c0,0.4,0.1,0.7,0.3,0.9C46,245.3,46.3,245.4,46.7,245.4z"/>
					<path fill="#464646" d="M57.3,246.8c-1,0-1.9-0.4-2.4-1.1h-0.1c0.1,0.7,0.1,1.1,0.1,1.3v3.4h-1.8v-12h1.4
						c0,0.2,0.1,0.5,0.2,1.1h0.1c0.5-0.8,1.4-1.3,2.5-1.3c1,0,1.8,0.4,2.4,1.1s0.9,1.8,0.9,3.2c0,1.4-0.3,2.4-0.9,3.2
						C59.1,246.4,58.3,246.8,57.3,246.8z M56.9,239.6c-0.7,0-1.2,0.2-1.5,0.6c-0.3,0.4-0.5,1.1-0.5,2v0.3c0,1,0.2,1.7,0.5,2.2
						c0.3,0.5,0.8,0.7,1.6,0.7c0.6,0,1.1-0.2,1.4-0.7s0.5-1.2,0.5-2.1c0-0.9-0.2-1.6-0.5-2.1C58,239.9,57.5,239.6,56.9,239.6z"/>
					<path fill="#464646" d="M68.2,244.3c0,0.8-0.3,1.4-0.9,1.9c-0.6,0.4-1.4,0.6-2.5,0.6c-1.1,0-2-0.2-2.7-0.5v-1.5
						c1,0.4,1.9,0.7,2.7,0.7c1.1,0,1.6-0.3,1.6-1c0-0.2-0.1-0.4-0.2-0.5c-0.1-0.1-0.3-0.3-0.6-0.4c-0.3-0.1-0.7-0.3-1.1-0.5
						c-1-0.4-1.6-0.7-1.9-1.1c-0.3-0.4-0.5-0.8-0.5-1.4c0-0.7,0.3-1.3,0.9-1.7c0.6-0.4,1.4-0.6,2.3-0.6c1,0,1.9,0.2,2.8,0.6
						l-0.6,1.3c-0.9-0.4-1.6-0.6-2.3-0.6c-0.9,0-1.4,0.3-1.4,0.8c0,0.3,0.1,0.5,0.4,0.7c0.2,0.2,0.8,0.4,1.6,0.7
						c0.7,0.3,1.2,0.5,1.5,0.7s0.5,0.5,0.7,0.8S68.2,243.9,68.2,244.3z"/>
					<path fill="#464646" d="M77.4,246.6h-1.8v-5.1c0-0.6-0.1-1.1-0.4-1.4c-0.3-0.3-0.7-0.5-1.2-0.5c-0.7,0-1.3,0.2-1.6,0.7
						c-0.3,0.4-0.5,1.2-0.5,2.2v4.1h-1.8V235h1.8v3c0,0.5,0,1-0.1,1.5h0.1c0.2-0.4,0.6-0.7,1-0.9c0.4-0.2,0.9-0.3,1.5-0.3
						c2,0,3,1,3,3V246.6z"/>
					<path fill="#464646" d="M87.2,242.5c0,1.4-0.3,2.4-1,3.2c-0.7,0.8-1.7,1.1-2.9,1.1c-0.8,0-1.5-0.2-2.1-0.5
						c-0.6-0.3-1.1-0.9-1.4-1.5c-0.3-0.7-0.5-1.4-0.5-2.3c0-1.3,0.3-2.4,1-3.1c0.7-0.8,1.7-1.1,2.9-1.1c1.2,0,2.1,0.4,2.8,1.2
						C86.9,240.1,87.2,241.2,87.2,242.5z M81.2,242.5c0,1.9,0.7,2.9,2.1,2.9c1.4,0,2.1-1,2.1-2.9c0-1.9-0.7-2.8-2.1-2.8
						c-0.7,0-1.3,0.2-1.6,0.7C81.3,240.9,81.2,241.6,81.2,242.5z"/>
					<path fill="#464646" d="M92.3,245.4c0.4,0,0.9-0.1,1.3-0.2v1.3c-0.2,0.1-0.4,0.2-0.8,0.2s-0.6,0.1-1,0.1
						c-1.7,0-2.5-0.9-2.5-2.6v-4.5h-1.1v-0.8l1.2-0.6l0.6-1.8h1.1v1.8h2.4v1.3h-2.4v4.4c0,0.4,0.1,0.7,0.3,0.9
						C91.7,245.3,92,245.4,92.3,245.4z"/>
				</g>
				<g clip-path="url(#SVGID_86_)">
					<path fill="#464646" d="M31.1,311.5h-2v7h-1.8v-7H26v-0.8l1.4-0.5v-0.5c0-1,0.2-1.7,0.7-2.2c0.5-0.5,1.2-0.7,2.1-0.7
						c0.6,0,1.2,0.1,1.8,0.3l-0.5,1.3c-0.4-0.1-0.8-0.2-1.2-0.2c-0.4,0-0.7,0.1-0.9,0.4c-0.2,0.2-0.3,0.6-0.3,1.1v0.5h2V311.5z"/>
					<path fill="#464646" d="M36.7,310c0.4,0,0.6,0,0.9,0.1l-0.2,1.6c-0.2-0.1-0.5-0.1-0.8-0.1c-0.7,0-1.3,0.2-1.7,0.7
						c-0.4,0.5-0.7,1.1-0.7,1.8v4.3h-1.8v-8.3h1.4l0.2,1.5h0.1c0.3-0.5,0.6-0.9,1.1-1.2C35.8,310.1,36.2,310,36.7,310z"/>
					<path fill="#464646" d="M44,318.4l-0.4-1.2h-0.1c-0.4,0.5-0.8,0.8-1.2,1c-0.4,0.2-0.9,0.3-1.6,0.3c-0.8,0-1.5-0.2-1.9-0.7
						s-0.7-1.1-0.7-1.9c0-0.9,0.3-1.5,1-1.9s1.6-0.7,2.9-0.7l1.4,0v-0.4c0-0.5-0.1-0.9-0.4-1.2c-0.2-0.3-0.6-0.4-1.2-0.4
						c-0.4,0-0.8,0.1-1.2,0.2s-0.8,0.3-1.1,0.4l-0.6-1.3c0.4-0.2,0.9-0.4,1.5-0.5c0.5-0.1,1-0.2,1.5-0.2c1.1,0,1.8,0.2,2.4,0.7
						s0.8,1.2,0.8,2.2v5.6H44z M41.4,317.2c0.6,0,1.2-0.2,1.5-0.5c0.4-0.4,0.6-0.9,0.6-1.5v-0.7l-1.1,0c-0.8,0-1.4,0.2-1.8,0.4
						c-0.4,0.2-0.6,0.6-0.6,1.1c0,0.4,0.1,0.7,0.3,0.9C40.6,317.1,41,317.2,41.4,317.2z"/>
					<path fill="#464646" d="M54.7,318.4H53v-5.1c0-0.6-0.1-1.1-0.4-1.4c-0.2-0.3-0.6-0.5-1.1-0.5c-0.7,0-1.2,0.2-1.5,0.7
						c-0.3,0.4-0.5,1.2-0.5,2.2v4.1h-1.8v-8.3h1.4l0.2,1.1h0.1c0.2-0.4,0.6-0.7,1-0.9s0.9-0.3,1.4-0.3c1.3,0,2.1,0.4,2.5,1.3h0.1
						c0.2-0.4,0.6-0.7,1-1c0.4-0.2,1-0.3,1.5-0.3c1,0,1.7,0.2,2.2,0.7c0.5,0.5,0.7,1.3,0.7,2.3v5.4h-1.8v-5.1c0-0.6-0.1-1.1-0.4-1.4
						c-0.2-0.3-0.6-0.5-1.1-0.5c-0.7,0-1.2,0.2-1.5,0.6c-0.3,0.4-0.5,1.1-0.5,2V318.4z"/>
					<path fill="#464646" d="M66,318.6c-1.3,0-2.3-0.4-3-1.1c-0.7-0.8-1.1-1.8-1.1-3.1c0-1.4,0.3-2.4,1-3.2c0.7-0.8,1.6-1.2,2.8-1.2
						c1.1,0,2,0.3,2.6,1c0.6,0.7,1,1.6,1,2.7v1h-5.5c0,0.8,0.2,1.4,0.7,1.9c0.4,0.4,1,0.6,1.7,0.6c0.5,0,0.9,0,1.4-0.1
						c0.4-0.1,0.9-0.2,1.4-0.5v1.4c-0.4,0.2-0.9,0.3-1.3,0.4S66.6,318.6,66,318.6z M65.7,311.3c-0.6,0-1,0.2-1.3,0.5
						c-0.3,0.4-0.5,0.9-0.6,1.6h3.8c0-0.7-0.2-1.2-0.5-1.6C66.7,311.5,66.3,311.3,65.7,311.3z"/>
					<path fill="#464646" d="M71.2,308c0-0.3,0.1-0.6,0.3-0.7s0.4-0.3,0.7-0.3c0.3,0,0.6,0.1,0.7,0.3s0.3,0.4,0.3,0.7
						c0,0.3-0.1,0.5-0.3,0.7c-0.2,0.2-0.4,0.3-0.7,0.3c-0.3,0-0.6-0.1-0.7-0.3C71.2,308.5,71.2,308.3,71.2,308z M73,318.4h-1.8v-8.3
						H73V318.4z"/>
					<path fill="#464646" d="M78.6,317.2c0.4,0,0.9-0.1,1.3-0.2v1.3c-0.2,0.1-0.4,0.2-0.8,0.2s-0.6,0.1-1,0.1
						c-1.7,0-2.5-0.9-2.5-2.6v-4.5h-1.1v-0.8l1.2-0.6l0.6-1.8h1.1v1.8h2.4v1.3h-2.4v4.4c0,0.4,0.1,0.7,0.3,0.9
						C78,317.1,78.3,317.2,78.6,317.2z"/>
				</g>
				<g clip-path="url(#SVGID_86_)">
					<path fill="#464646" d="M349.1,244.3c0,0.8-0.3,1.4-0.9,1.9c-0.6,0.4-1.4,0.6-2.5,0.6c-1.1,0-2-0.2-2.7-0.5v-1.5
						c1,0.4,1.9,0.7,2.7,0.7c1.1,0,1.6-0.3,1.6-1c0-0.2-0.1-0.4-0.2-0.5c-0.1-0.1-0.3-0.3-0.6-0.4c-0.3-0.1-0.7-0.3-1.1-0.5
						c-1-0.4-1.6-0.7-1.9-1.1c-0.3-0.4-0.5-0.8-0.5-1.4c0-0.7,0.3-1.3,0.9-1.7c0.6-0.4,1.4-0.6,2.3-0.6c1,0,1.9,0.2,2.8,0.6
						l-0.6,1.3c-0.9-0.4-1.6-0.6-2.3-0.6c-0.9,0-1.4,0.3-1.4,0.8c0,0.3,0.1,0.5,0.4,0.7c0.2,0.2,0.8,0.4,1.6,0.7
						c0.7,0.3,1.2,0.5,1.5,0.7s0.5,0.5,0.7,0.8S349.1,243.9,349.1,244.3z"/>
					<path fill="#464646" d="M358.2,246.6h-1.8v-5.1c0-0.6-0.1-1.1-0.4-1.4c-0.3-0.3-0.7-0.5-1.2-0.5c-0.7,0-1.3,0.2-1.6,0.7
						s-0.5,1.2-0.5,2.2v4.1H351v-8.3h1.4l0.2,1.1h0.1c0.2-0.4,0.6-0.7,1.1-0.9c0.5-0.2,1-0.3,1.5-0.3c2,0,3,1,3,3V246.6z"/>
					<path fill="#464646" d="M365.9,246.6l-0.4-1.2h-0.1c-0.4,0.5-0.8,0.8-1.2,1c-0.4,0.2-0.9,0.3-1.6,0.3c-0.8,0-1.5-0.2-1.9-0.7
						s-0.7-1.1-0.7-1.9c0-0.9,0.3-1.5,1-1.9s1.6-0.7,2.9-0.7l1.4,0v-0.4c0-0.5-0.1-0.9-0.4-1.2c-0.2-0.3-0.6-0.4-1.2-0.4
						c-0.4,0-0.8,0.1-1.2,0.2s-0.8,0.3-1.1,0.4l-0.6-1.3c0.4-0.2,0.9-0.4,1.5-0.5c0.5-0.1,1-0.2,1.5-0.2c1.1,0,1.8,0.2,2.4,0.7
						s0.8,1.2,0.8,2.2v5.6H365.9z M363.3,245.4c0.6,0,1.2-0.2,1.5-0.5c0.4-0.4,0.6-0.9,0.6-1.5v-0.7l-1.1,0c-0.8,0-1.4,0.2-1.8,0.4
						c-0.4,0.2-0.6,0.6-0.6,1.1c0,0.4,0.1,0.7,0.3,0.9C362.5,245.3,362.8,245.4,363.3,245.4z"/>
					<path fill="#464646" d="M373.8,246.8c-1,0-1.9-0.4-2.4-1.1h-0.1c0.1,0.7,0.1,1.1,0.1,1.3v3.4h-1.8v-12h1.4
						c0,0.2,0.1,0.5,0.2,1.1h0.1c0.5-0.8,1.4-1.3,2.5-1.3c1,0,1.8,0.4,2.4,1.1s0.9,1.8,0.9,3.2c0,1.4-0.3,2.4-0.9,3.2
						C375.7,246.4,374.8,246.8,373.8,246.8z M373.4,239.6c-0.7,0-1.2,0.2-1.5,0.6c-0.3,0.4-0.5,1.1-0.5,2v0.3c0,1,0.2,1.7,0.5,2.2
						c0.3,0.5,0.8,0.7,1.6,0.7c0.6,0,1.1-0.2,1.4-0.7s0.5-1.2,0.5-2.1c0-0.9-0.2-1.6-0.5-2.1C374.5,239.9,374,239.6,373.4,239.6z"/>
					<path fill="#464646" d="M384.7,244.3c0,0.8-0.3,1.4-0.9,1.9c-0.6,0.4-1.4,0.6-2.5,0.6c-1.1,0-2-0.2-2.7-0.5v-1.5
						c1,0.4,1.9,0.7,2.7,0.7c1.1,0,1.6-0.3,1.6-1c0-0.2-0.1-0.4-0.2-0.5c-0.1-0.1-0.3-0.3-0.6-0.4c-0.3-0.1-0.7-0.3-1.1-0.5
						c-1-0.4-1.6-0.7-1.9-1.1c-0.3-0.4-0.5-0.8-0.5-1.4c0-0.7,0.3-1.3,0.9-1.7c0.6-0.4,1.4-0.6,2.3-0.6c1,0,1.9,0.2,2.8,0.6
						l-0.6,1.3c-0.9-0.4-1.6-0.6-2.3-0.6c-0.9,0-1.4,0.3-1.4,0.8c0,0.3,0.1,0.5,0.4,0.7c0.2,0.2,0.8,0.4,1.6,0.7
						c0.7,0.3,1.2,0.5,1.5,0.7s0.5,0.5,0.7,0.8S384.7,243.9,384.7,244.3z"/>
					<path fill="#464646" d="M393.9,246.6h-1.8v-5.1c0-0.6-0.1-1.1-0.4-1.4c-0.3-0.3-0.7-0.5-1.2-0.5c-0.7,0-1.3,0.2-1.6,0.7
						c-0.3,0.4-0.5,1.2-0.5,2.2v4.1h-1.8V235h1.8v3c0,0.5,0,1-0.1,1.5h0.1c0.2-0.4,0.6-0.7,1-0.9c0.4-0.2,0.9-0.3,1.5-0.3
						c2,0,3,1,3,3V246.6z"/>
					<path fill="#464646" d="M403.7,242.5c0,1.4-0.3,2.4-1,3.2c-0.7,0.8-1.7,1.1-2.9,1.1c-0.8,0-1.5-0.2-2.1-0.5
						c-0.6-0.3-1.1-0.9-1.4-1.5c-0.3-0.7-0.5-1.4-0.5-2.3c0-1.3,0.3-2.4,1-3.1c0.7-0.8,1.7-1.1,2.9-1.1c1.2,0,2.1,0.4,2.8,1.2
						C403.4,240.1,403.7,241.2,403.7,242.5z M397.7,242.5c0,1.9,0.7,2.9,2.1,2.9c1.4,0,2.1-1,2.1-2.9c0-1.9-0.7-2.8-2.1-2.8
						c-0.7,0-1.3,0.2-1.6,0.7C397.9,240.9,397.7,241.6,397.7,242.5z"/>
					<path fill="#464646" d="M408.8,245.4c0.4,0,0.9-0.1,1.3-0.2v1.3c-0.2,0.1-0.4,0.2-0.8,0.2s-0.6,0.1-1,0.1
						c-1.7,0-2.5-0.9-2.5-2.6v-4.5h-1.1v-0.8l1.2-0.6l0.6-1.8h1.1v1.8h2.4v1.3h-2.4v4.4c0,0.4,0.1,0.7,0.3,0.9
						C408.2,245.3,408.5,245.4,408.8,245.4z"/>
				</g>
				<g clip-path="url(#SVGID_86_)">
					<path fill="#464646" d="M349.1,316.1c0,0.8-0.3,1.4-0.9,1.9c-0.6,0.4-1.4,0.6-2.5,0.6c-1.1,0-2-0.2-2.7-0.5v-1.5
						c1,0.4,1.9,0.7,2.7,0.7c1.1,0,1.6-0.3,1.6-1c0-0.2-0.1-0.4-0.2-0.5c-0.1-0.1-0.3-0.3-0.6-0.4c-0.3-0.1-0.7-0.3-1.1-0.5
						c-1-0.4-1.6-0.7-1.9-1.1c-0.3-0.4-0.5-0.8-0.5-1.4c0-0.7,0.3-1.3,0.9-1.7c0.6-0.4,1.4-0.6,2.3-0.6c1,0,1.9,0.2,2.8,0.6
						l-0.6,1.3c-0.9-0.4-1.6-0.6-2.3-0.6c-0.9,0-1.4,0.3-1.4,0.8c0,0.3,0.1,0.5,0.4,0.7c0.2,0.2,0.8,0.4,1.6,0.7
						c0.7,0.3,1.2,0.5,1.5,0.7s0.5,0.5,0.7,0.8S349.1,315.7,349.1,316.1z"/>
					<path fill="#464646" d="M350.9,308c0-0.3,0.1-0.6,0.3-0.7s0.4-0.3,0.7-0.3c0.3,0,0.6,0.1,0.7,0.3s0.3,0.4,0.3,0.7
						c0,0.3-0.1,0.5-0.3,0.7c-0.2,0.2-0.4,0.3-0.7,0.3c-0.3,0-0.6-0.1-0.7-0.3C350.9,308.5,350.9,308.3,350.9,308z M352.7,318.4H351
						v-8.3h1.8V318.4z"/>
					<path fill="#464646" d="M362.2,310.2v1l-1.4,0.3c0.1,0.2,0.2,0.4,0.3,0.6s0.1,0.5,0.1,0.8c0,0.9-0.3,1.5-0.9,2
						c-0.6,0.5-1.4,0.7-2.4,0.7c-0.3,0-0.5,0-0.7-0.1c-0.4,0.2-0.6,0.5-0.6,0.8c0,0.2,0.1,0.3,0.3,0.4c0.2,0.1,0.5,0.1,1,0.1h1.4
						c0.9,0,1.6,0.2,2.1,0.6s0.7,1,0.7,1.7c0,0.9-0.4,1.7-1.2,2.2c-0.8,0.5-1.9,0.8-3.4,0.8c-1.1,0-2-0.2-2.6-0.6
						c-0.6-0.4-0.9-1-0.9-1.7c0-0.5,0.2-0.9,0.5-1.3c0.3-0.3,0.8-0.6,1.4-0.7c-0.2-0.1-0.4-0.3-0.6-0.5c-0.2-0.2-0.2-0.5-0.2-0.7
						c0-0.3,0.1-0.6,0.3-0.8c0.2-0.2,0.4-0.4,0.8-0.6c-0.4-0.2-0.8-0.5-1-0.9c-0.3-0.4-0.4-0.9-0.4-1.5c0-0.9,0.3-1.6,0.9-2.1
						c0.6-0.5,1.4-0.7,2.4-0.7c0.2,0,0.5,0,0.7,0c0.3,0,0.5,0.1,0.6,0.1H362.2z M355.7,319.7c0,0.4,0.2,0.7,0.5,0.9
						c0.3,0.2,0.8,0.3,1.4,0.3c1,0,1.7-0.1,2.1-0.4s0.7-0.6,0.7-1.1c0-0.4-0.1-0.6-0.4-0.8s-0.7-0.2-1.4-0.2h-1.3
						c-0.5,0-0.9,0.1-1.2,0.4C355.9,319,355.7,319.3,355.7,319.7z M356.5,312.8c0,0.5,0.1,0.9,0.4,1.2c0.3,0.3,0.7,0.4,1.1,0.4
						c1,0,1.5-0.5,1.5-1.6c0-0.5-0.1-1-0.4-1.2c-0.3-0.3-0.6-0.4-1.2-0.4c-0.5,0-0.9,0.1-1.2,0.4S356.5,312.3,356.5,312.8z"/>
					<path fill="#464646" d="M371.1,318.4h-1.8v-5.1c0-0.6-0.1-1.1-0.4-1.4c-0.3-0.3-0.7-0.5-1.2-0.5c-0.7,0-1.3,0.2-1.6,0.7
						c-0.3,0.4-0.5,1.2-0.5,2.2v4.1h-1.8v-11.7h1.8v3c0,0.5,0,1-0.1,1.5h0.1c0.2-0.4,0.6-0.7,1-0.9c0.4-0.2,0.9-0.3,1.5-0.3
						c2,0,3,1,3,3V318.4z"/>
				</g>
				<g clip-path="url(#SVGID_86_)">
					<path fill="#464646" d="M346.3,392.1c-1,0-1.8-0.4-2.4-1.1c-0.6-0.8-0.9-1.8-0.9-3.2c0-1.4,0.3-2.4,0.9-3.2
						c0.6-0.8,1.4-1.1,2.4-1.1c1.1,0,1.9,0.4,2.5,1.2h0.1c-0.1-0.6-0.1-1.1-0.1-1.4v-3h1.8v11.7h-1.4l-0.3-1.1h-0.1
						C348.2,391.6,347.4,392.1,346.3,392.1z M346.8,390.6c0.7,0,1.3-0.2,1.6-0.6s0.5-1.1,0.5-2v-0.2c0-1-0.2-1.8-0.5-2.2
						s-0.9-0.7-1.6-0.7c-0.6,0-1.1,0.3-1.4,0.8c-0.3,0.5-0.5,1.2-0.5,2.1c0,0.9,0.2,1.6,0.5,2.1
						C345.6,390.4,346.1,390.6,346.8,390.6z"/>
					<path fill="#464646" d="M356.7,392.1c-1.3,0-2.3-0.4-3-1.1c-0.7-0.8-1.1-1.8-1.1-3.1c0-1.4,0.3-2.4,1-3.2
						c0.7-0.8,1.6-1.2,2.8-1.2c1.1,0,2,0.3,2.6,1c0.6,0.7,1,1.6,1,2.7v1h-5.5c0,0.8,0.2,1.4,0.7,1.9c0.4,0.4,1,0.6,1.7,0.6
						c0.5,0,0.9,0,1.4-0.1c0.4-0.1,0.9-0.2,1.4-0.5v1.4c-0.4,0.2-0.9,0.3-1.3,0.4S357.2,392.1,356.7,392.1z M356.3,384.8
						c-0.6,0-1,0.2-1.3,0.5c-0.3,0.4-0.5,0.9-0.6,1.6h3.8c0-0.7-0.2-1.2-0.5-1.6C357.3,385,356.9,384.8,356.3,384.8z"/>
					<path fill="#464646" d="M363.7,391.9h-1.8v-11.7h1.8V391.9z"/>
					<path fill="#464646" d="M366.1,381.4c0-0.3,0.1-0.6,0.3-0.7s0.4-0.3,0.7-0.3c0.3,0,0.6,0.1,0.7,0.3s0.3,0.4,0.3,0.7
						c0,0.3-0.1,0.5-0.3,0.7c-0.2,0.2-0.4,0.3-0.7,0.3c-0.3,0-0.6-0.1-0.7-0.3C366.2,382,366.1,381.7,366.1,381.4z M367.9,391.9
						h-1.8v-8.3h1.8V391.9z"/>
					<path fill="#464646" d="M372.3,391.9l-3.1-8.3h1.9l1.7,4.8c0.3,0.8,0.5,1.5,0.5,2h0.1c0-0.4,0.2-1,0.5-2l1.7-4.8h1.9l-3.2,8.3
						H372.3z"/>
					<path fill="#464646" d="M382.3,392.1c-1.3,0-2.3-0.4-3-1.1c-0.7-0.8-1.1-1.8-1.1-3.1c0-1.4,0.3-2.4,1-3.2
						c0.7-0.8,1.6-1.2,2.8-1.2c1.1,0,2,0.3,2.6,1c0.6,0.7,1,1.6,1,2.7v1H380c0,0.8,0.2,1.4,0.7,1.9c0.4,0.4,1,0.6,1.7,0.6
						c0.5,0,0.9,0,1.4-0.1c0.4-0.1,0.9-0.2,1.4-0.5v1.4c-0.4,0.2-0.9,0.3-1.3,0.4S382.8,392.1,382.3,392.1z M382,384.8
						c-0.6,0-1,0.2-1.3,0.5c-0.3,0.4-0.5,0.9-0.6,1.6h3.8c0-0.7-0.2-1.2-0.5-1.6C383,385,382.5,384.8,382,384.8z"/>
					<path fill="#464646" d="M391.7,383.5c0.4,0,0.6,0,0.9,0.1l-0.2,1.6c-0.2-0.1-0.5-0.1-0.8-0.1c-0.7,0-1.3,0.2-1.7,0.7
						c-0.4,0.5-0.7,1.1-0.7,1.8v4.3h-1.8v-8.3h1.4l0.2,1.5h0.1c0.3-0.5,0.6-0.9,1.1-1.2C390.7,383.6,391.2,383.5,391.7,383.5z"/>
					<path fill="#464646" d="M392.9,383.6h1.9l1.7,4.7c0.3,0.7,0.4,1.3,0.5,1.9h0.1c0-0.3,0.1-0.6,0.2-1c0.1-0.4,0.8-2.3,1.9-5.6
						h1.9l-3.5,9.4c-0.6,1.7-1.7,2.6-3.2,2.6c-0.4,0-0.8,0-1.1-0.1v-1.4c0.3,0.1,0.6,0.1,0.9,0.1c0.8,0,1.4-0.5,1.8-1.5l0.3-0.8
						L392.9,383.6z"/>
				</g>
				<g clip-path="url(#SVGID_86_)">
					<path fill="#464646" d="M347.6,458.4h-2v7h-1.8v-7h-1.4v-0.8l1.4-0.5v-0.5c0-1,0.2-1.7,0.7-2.2c0.5-0.5,1.2-0.7,2.1-0.7
						c0.6,0,1.2,0.1,1.8,0.3l-0.5,1.3c-0.4-0.1-0.8-0.2-1.2-0.2c-0.4,0-0.7,0.1-0.9,0.4c-0.2,0.2-0.3,0.6-0.3,1.1v0.5h2V458.4z"/>
					<path fill="#464646" d="M353.3,456.9c0.4,0,0.6,0,0.9,0.1l-0.2,1.6c-0.2-0.1-0.5-0.1-0.8-0.1c-0.7,0-1.3,0.2-1.7,0.7
						c-0.4,0.5-0.7,1.1-0.7,1.8v4.3h-1.8v-8.3h1.4l0.2,1.5h0.1c0.3-0.5,0.6-0.9,1.1-1.2C352.3,457.1,352.8,456.9,353.3,456.9z"/>
					<path fill="#464646" d="M360.6,465.4l-0.4-1.2h-0.1c-0.4,0.5-0.8,0.8-1.2,1c-0.4,0.2-0.9,0.3-1.6,0.3c-0.8,0-1.5-0.2-1.9-0.7
						s-0.7-1.1-0.7-1.9c0-0.9,0.3-1.5,1-1.9s1.6-0.7,2.9-0.7l1.4,0v-0.4c0-0.5-0.1-0.9-0.4-1.2c-0.2-0.3-0.6-0.4-1.2-0.4
						c-0.4,0-0.8,0.1-1.2,0.2s-0.8,0.3-1.1,0.4l-0.6-1.3c0.4-0.2,0.9-0.4,1.5-0.5c0.5-0.1,1-0.2,1.5-0.2c1.1,0,1.8,0.2,2.4,0.7
						s0.8,1.2,0.8,2.2v5.6H360.6z M357.9,464.2c0.6,0,1.2-0.2,1.5-0.5c0.4-0.4,0.6-0.9,0.6-1.5v-0.7l-1.1,0c-0.8,0-1.4,0.2-1.8,0.4
						c-0.4,0.2-0.6,0.6-0.6,1.1c0,0.4,0.1,0.7,0.3,0.9C357.2,464.1,357.5,464.2,357.9,464.2z"/>
					<path fill="#464646" d="M371.3,465.4h-1.8v-5.1c0-0.6-0.1-1.1-0.4-1.4c-0.2-0.3-0.6-0.5-1.1-0.5c-0.7,0-1.2,0.2-1.5,0.7
						c-0.3,0.4-0.5,1.2-0.5,2.2v4.1h-1.8v-8.3h1.4l0.2,1.1h0.1c0.2-0.4,0.6-0.7,1-0.9s0.9-0.3,1.4-0.3c1.3,0,2.1,0.4,2.5,1.3h0.1
						c0.2-0.4,0.6-0.7,1-1c0.4-0.2,1-0.3,1.5-0.3c1,0,1.7,0.2,2.2,0.7c0.5,0.5,0.7,1.3,0.7,2.3v5.4h-1.8v-5.1c0-0.6-0.1-1.1-0.4-1.4
						c-0.2-0.3-0.6-0.5-1.1-0.5c-0.7,0-1.2,0.2-1.5,0.6c-0.3,0.4-0.5,1.1-0.5,2V465.4z"/>
					<path fill="#464646" d="M382.6,465.5c-1.3,0-2.3-0.4-3-1.1c-0.7-0.8-1.1-1.8-1.1-3.1c0-1.4,0.3-2.4,1-3.2
						c0.7-0.8,1.6-1.2,2.8-1.2c1.1,0,2,0.3,2.6,1c0.6,0.7,1,1.6,1,2.7v1h-5.5c0,0.8,0.2,1.4,0.7,1.9c0.4,0.4,1,0.6,1.7,0.6
						c0.5,0,0.9,0,1.4-0.1c0.4-0.1,0.9-0.2,1.4-0.5v1.4c-0.4,0.2-0.9,0.3-1.3,0.4S383.1,465.5,382.6,465.5z M382.2,458.3
						c-0.6,0-1,0.2-1.3,0.5c-0.3,0.4-0.5,0.9-0.6,1.6h3.8c0-0.7-0.2-1.2-0.5-1.6C383.2,458.5,382.8,458.3,382.2,458.3z"/>
					<path fill="#464646" d="M387.7,454.9c0-0.3,0.1-0.6,0.3-0.7s0.4-0.3,0.7-0.3c0.3,0,0.6,0.1,0.7,0.3s0.3,0.4,0.3,0.7
						c0,0.3-0.1,0.5-0.3,0.7c-0.2,0.2-0.4,0.3-0.7,0.3c-0.3,0-0.6-0.1-0.7-0.3C387.8,455.4,387.7,455.2,387.7,454.9z M389.5,465.4
						h-1.8v-8.3h1.8V465.4z"/>
					<path fill="#464646" d="M395.1,464.1c0.4,0,0.9-0.1,1.3-0.2v1.3c-0.2,0.1-0.4,0.2-0.8,0.2s-0.6,0.1-1,0.1
						c-1.7,0-2.5-0.9-2.5-2.6v-4.5h-1.1v-0.8l1.2-0.6l0.6-1.8h1.1v1.8h2.4v1.3H394v4.4c0,0.4,0.1,0.7,0.3,0.9
						C394.5,464,394.8,464.1,395.1,464.1z"/>
				</g>
				<g clip-path="url(#SVGID_86_)">
					<path fill="#464646" d="M189.8,589.9c-1.3,0-2.2-0.4-2.9-1.1c-0.7-0.7-1-1.8-1-3.2c0-1.4,0.3-2.5,1-3.2c0.7-0.7,1.7-1.1,3-1.1
						c0.9,0,1.7,0.2,2.4,0.5l-0.5,1.4c-0.7-0.3-1.4-0.4-1.8-0.4c-1.4,0-2.2,1-2.2,2.9c0,0.9,0.2,1.6,0.5,2.1
						c0.4,0.5,0.9,0.7,1.6,0.7c0.8,0,1.5-0.2,2.2-0.6v1.5c-0.3,0.2-0.7,0.3-1,0.4C190.8,589.9,190.3,589.9,189.8,589.9z"/>
					<path fill="#464646" d="M201.4,585.6c0,1.4-0.3,2.4-1,3.2c-0.7,0.8-1.7,1.1-2.9,1.1c-0.8,0-1.5-0.2-2.1-0.5
						c-0.6-0.3-1.1-0.9-1.4-1.5c-0.3-0.7-0.5-1.4-0.5-2.3c0-1.3,0.3-2.4,1-3.1c0.7-0.8,1.7-1.1,2.9-1.1c1.2,0,2.1,0.4,2.8,1.2
						C201.1,583.3,201.4,584.3,201.4,585.6z M195.4,585.6c0,1.9,0.7,2.9,2.1,2.9c1.4,0,2.1-1,2.1-2.9c0-1.9-0.7-2.8-2.1-2.8
						c-0.7,0-1.3,0.2-1.6,0.7C195.6,584,195.4,584.7,195.4,585.6z"/>
					<path fill="#464646" d="M210.4,589.8h-1.8v-5.1c0-0.6-0.1-1.1-0.4-1.4c-0.2-0.3-0.6-0.5-1.1-0.5c-0.7,0-1.2,0.2-1.5,0.7
						c-0.3,0.4-0.5,1.2-0.5,2.2v4.1h-1.8v-8.3h1.4l0.2,1.1h0.1c0.2-0.4,0.6-0.7,1-0.9s0.9-0.3,1.4-0.3c1.3,0,2.1,0.4,2.5,1.3h0.1
						c0.2-0.4,0.6-0.7,1-1c0.4-0.2,1-0.3,1.5-0.3c1,0,1.7,0.2,2.2,0.7c0.5,0.5,0.7,1.3,0.7,2.3v5.4h-1.8v-5.1c0-0.6-0.1-1.1-0.4-1.4
						c-0.2-0.3-0.6-0.5-1.1-0.5c-0.7,0-1.2,0.2-1.5,0.6c-0.3,0.4-0.5,1.1-0.5,2V589.8z"/>
					<path fill="#464646" d="M222.3,589.9c-1,0-1.9-0.4-2.4-1.1h-0.1c0.1,0.7,0.1,1.1,0.1,1.3v3.4h-1.8v-12h1.4
						c0,0.2,0.1,0.5,0.2,1.1h0.1c0.5-0.8,1.4-1.3,2.5-1.3c1,0,1.8,0.4,2.4,1.1s0.9,1.8,0.9,3.2c0,1.4-0.3,2.4-0.9,3.2
						C224.2,589.5,223.4,589.9,222.3,589.9z M221.9,582.8c-0.7,0-1.2,0.2-1.5,0.6c-0.3,0.4-0.5,1.1-0.5,2v0.3c0,1,0.2,1.7,0.5,2.2
						c0.3,0.5,0.8,0.7,1.6,0.7c0.6,0,1.1-0.2,1.4-0.7s0.5-1.2,0.5-2.1c0-0.9-0.2-1.6-0.5-2.1C223,583,222.5,582.8,221.9,582.8z"/>
					<path fill="#464646" d="M229.4,589.8h-1.8v-11.7h1.8V589.8z"/>
					<path fill="#464646" d="M235.6,589.9c-1.3,0-2.3-0.4-3-1.1c-0.7-0.8-1.1-1.8-1.1-3.1c0-1.4,0.3-2.4,1-3.2
						c0.7-0.8,1.6-1.2,2.8-1.2c1.1,0,2,0.3,2.6,1c0.6,0.7,1,1.6,1,2.7v1h-5.5c0,0.8,0.2,1.4,0.7,1.9c0.4,0.4,1,0.6,1.7,0.6
						c0.5,0,0.9,0,1.4-0.1c0.4-0.1,0.9-0.2,1.4-0.5v1.4c-0.4,0.2-0.9,0.3-1.3,0.4S236.2,589.9,235.6,589.9z M235.3,582.7
						c-0.6,0-1,0.2-1.3,0.5c-0.3,0.4-0.5,0.9-0.6,1.6h3.8c0-0.7-0.2-1.2-0.5-1.6C236.3,582.9,235.8,582.7,235.3,582.7z"/>
					<path fill="#464646" d="M243.9,588.5c0.4,0,0.9-0.1,1.3-0.2v1.3c-0.2,0.1-0.4,0.2-0.8,0.2s-0.6,0.1-1,0.1
						c-1.7,0-2.5-0.9-2.5-2.6v-4.5h-1.1V582l1.2-0.6l0.6-1.8h1.1v1.8h2.4v1.3h-2.4v4.4c0,0.4,0.1,0.7,0.3,0.9
						C243.3,588.4,243.6,588.5,243.9,588.5z"/>
					<path fill="#464646" d="M246.7,579.3c0-0.3,0.1-0.6,0.3-0.7s0.4-0.3,0.7-0.3c0.3,0,0.6,0.1,0.7,0.3s0.3,0.4,0.3,0.7
						c0,0.3-0.1,0.5-0.3,0.7c-0.2,0.2-0.4,0.3-0.7,0.3c-0.3,0-0.6-0.1-0.7-0.3C246.8,579.8,246.7,579.6,246.7,579.3z M248.6,589.8
						h-1.8v-8.3h1.8V589.8z"/>
					<path fill="#464646" d="M258.5,585.6c0,1.4-0.3,2.4-1,3.2c-0.7,0.8-1.7,1.1-2.9,1.1c-0.8,0-1.5-0.2-2.1-0.5
						c-0.6-0.3-1.1-0.9-1.4-1.5c-0.3-0.7-0.5-1.4-0.5-2.3c0-1.3,0.3-2.4,1-3.1c0.7-0.8,1.7-1.1,2.9-1.1c1.2,0,2.1,0.4,2.8,1.2
						C258.1,583.3,258.5,584.3,258.5,585.6z M252.4,585.6c0,1.9,0.7,2.9,2.1,2.9c1.4,0,2.1-1,2.1-2.9c0-1.9-0.7-2.8-2.1-2.8
						c-0.7,0-1.3,0.2-1.6,0.7C252.6,584,252.4,584.7,252.4,585.6z"/>
					<path fill="#464646" d="M267.8,589.8H266v-5.1c0-0.6-0.1-1.1-0.4-1.4c-0.3-0.3-0.7-0.5-1.2-0.5c-0.7,0-1.3,0.2-1.6,0.7
						s-0.5,1.2-0.5,2.2v4.1h-1.8v-8.3h1.4l0.2,1.1h0.1c0.2-0.4,0.6-0.7,1.1-0.9c0.5-0.2,1-0.3,1.5-0.3c2,0,3,1,3,3V589.8z"/>
				</g>
			</g>
		</g>
	</g>
</g>
<g>
</g>
<g>
</g>
<g>
</g>
<g>
</g>
<g>
</g>
<g>
</g>
<g>
</g>
<g>
</g>
<g>
</g>
<g>
</g>
<g>
</g>
</svg>
