<?xml version="1.0" encoding="utf-8"?>
<!-- Generator: Adobe Illustrator 15.1.0, SVG Export Plug-In . SVG Version: 6.00 Build 0)  -->
<!DOCTYPE svg PUBLIC "-//W3C//DTD SVG 1.1//EN" "http://www.w3.org/Graphics/SVG/1.1/DTD/svg11.dtd">
<svg version="1.1" id="Layer_1" xmlns="http://www.w3.org/2000/svg" xmlns:xlink="http://www.w3.org/1999/xlink" x="0px" y="0px"
	 width="80px" height="30px" viewBox="0 0 80 30" enable-background="new 0 0 80 30" xml:space="preserve">
<g>
	<rect x="2.877" y="4.841" fill="#FFFFFF" stroke="#000000" stroke-miterlimit="10" width="21.045" height="21.046"/>
	<g>
		<path d="M9.606,7.707h8.469V9.41h-6.416v5.226h5.926v1.681h-5.926v7.115H9.606V7.707z"/>
	</g>
</g>
<g>
	<path d="M27.343,7.917H32.4v1.017h-3.831v3.121h3.539v1.003h-3.539v4.249h-1.226V7.917z"/>
	<path d="M38.21,15.69c0,0.585,0.028,1.156,0.098,1.616h-1.101l-0.098-0.85h-0.042c-0.376,0.529-1.101,1.003-2.062,1.003
		c-1.365,0-2.062-0.962-2.062-1.937c0-1.63,1.449-2.521,4.054-2.508v-0.139c0-0.543-0.153-1.56-1.532-1.546
		c-0.641,0-1.296,0.181-1.77,0.501l-0.278-0.822c0.557-0.348,1.379-0.585,2.229-0.585c2.062,0,2.563,1.407,2.563,2.744V15.69z
		 M37.026,13.866c-1.337-0.028-2.856,0.209-2.856,1.519c0,0.807,0.53,1.17,1.143,1.17c0.892,0,1.463-0.558,1.658-1.129
		c0.042-0.139,0.056-0.278,0.056-0.39V13.866z"/>
	<path d="M40.023,16.066c0.376,0.223,1.018,0.475,1.631,0.475c0.877,0,1.295-0.433,1.295-1.003c0-0.585-0.348-0.892-1.24-1.226
		c-1.226-0.446-1.797-1.101-1.797-1.909c0-1.086,0.892-1.978,2.326-1.978c0.683,0,1.282,0.181,1.645,0.417l-0.293,0.892
		c-0.265-0.167-0.752-0.404-1.379-0.404c-0.725,0-1.115,0.418-1.115,0.919c0,0.557,0.391,0.808,1.269,1.156
		c1.156,0.432,1.77,1.017,1.77,2.02c0,1.198-0.934,2.034-2.508,2.034c-0.739,0-1.421-0.195-1.895-0.474L40.023,16.066z"/>
	<path d="M47.187,8.948v1.616h1.755v0.933h-1.755v3.636c0,0.836,0.236,1.31,0.919,1.31c0.334,0,0.529-0.028,0.711-0.084l0.056,0.934
		c-0.237,0.084-0.613,0.167-1.087,0.167c-0.571,0-1.031-0.195-1.323-0.516c-0.335-0.376-0.474-0.975-0.474-1.769v-3.678h-1.045
		v-0.933h1.045V9.31L47.187,8.948z"/>
	<path d="M50.35,7.917h1.226v8.372h4.013v1.018H50.35V7.917z"/>
	<path d="M61.636,15.69c0,0.585,0.027,1.156,0.098,1.616h-1.101l-0.098-0.85h-0.042c-0.376,0.529-1.101,1.003-2.062,1.003
		c-1.365,0-2.062-0.962-2.062-1.937c0-1.63,1.449-2.521,4.055-2.508v-0.139c0-0.543-0.153-1.56-1.533-1.546
		c-0.641,0-1.295,0.181-1.769,0.501l-0.279-0.822c0.558-0.348,1.38-0.585,2.229-0.585c2.062,0,2.563,1.407,2.563,2.744V15.69z
		 M60.451,13.866c-1.337-0.028-2.855,0.209-2.855,1.519c0,0.807,0.529,1.17,1.142,1.17c0.892,0,1.463-0.558,1.658-1.129
		c0.042-0.139,0.056-0.278,0.056-0.39V13.866z"/>
	<path d="M63.614,12.389c0-0.71-0.014-1.268-0.056-1.825h1.087l0.069,1.114h0.028c0.334-0.627,1.114-1.253,2.229-1.253
		c0.934,0,2.383,0.557,2.383,2.87v4.012h-1.227V13.42c0-1.087-0.403-1.992-1.56-1.992c-0.794,0-1.421,0.571-1.645,1.254
		c-0.056,0.153-0.083,0.362-0.083,0.571v4.054h-1.227V12.389z"/>
	<path d="M72.031,14.158c0.028,1.658,1.073,2.34,2.312,2.34c0.878,0,1.422-0.152,1.867-0.348l0.223,0.877
		c-0.432,0.195-1.184,0.433-2.257,0.433c-2.075,0-3.315-1.38-3.315-3.413c0-2.034,1.198-3.622,3.162-3.622
		c2.216,0,2.787,1.922,2.787,3.162c0,0.251-0.015,0.432-0.042,0.571H72.031z M75.626,13.28c0.014-0.766-0.32-1.978-1.699-1.978
		c-1.254,0-1.783,1.128-1.881,1.978H75.626z"/>
</g>
<g>
	<path d="M27.558,23.291v-4.166h0.593l1.329,2.107c0.303,0.488,0.55,0.928,0.742,1.354l0.019-0.006
		c-0.05-0.557-0.062-1.062-0.062-1.713v-1.742h0.507v4.166h-0.544l-1.322-2.113c-0.291-0.465-0.569-0.939-0.772-1.391l-0.019,0.006
		c0.031,0.525,0.037,1.025,0.037,1.719v1.779H27.558z"/>
	<path d="M34.316,21.77c0,1.107-0.772,1.59-1.489,1.59c-0.803,0-1.434-0.594-1.434-1.539c0-0.996,0.661-1.582,1.483-1.582
		C33.736,20.238,34.316,20.861,34.316,21.77z M31.95,21.801c0,0.656,0.371,1.15,0.902,1.15c0.519,0,0.908-0.488,0.908-1.162
		c0-0.508-0.253-1.143-0.896-1.143C32.228,20.646,31.95,21.238,31.95,21.801z"/>
	<path d="M35.661,19.582v0.717h0.779v0.414h-0.779v1.613c0,0.371,0.105,0.582,0.408,0.582c0.148,0,0.235-0.014,0.315-0.037
		l0.025,0.414c-0.105,0.037-0.272,0.074-0.482,0.074c-0.253,0-0.458-0.088-0.587-0.23c-0.148-0.166-0.21-0.432-0.21-0.783v-1.633
		h-0.463v-0.414h0.463v-0.555L35.661,19.582z"/>
	<path d="M39.02,19.582v0.717h0.779v0.414H39.02v1.613c0,0.371,0.105,0.582,0.408,0.582c0.148,0,0.235-0.014,0.315-0.037
		l0.025,0.414c-0.105,0.037-0.272,0.074-0.482,0.074c-0.253,0-0.458-0.088-0.587-0.23c-0.148-0.166-0.21-0.432-0.21-0.783v-1.633
		h-0.463v-0.414h0.463v-0.555L39.02,19.582z"/>
	<path d="M40.413,18.902h0.544v1.873h0.012c0.086-0.154,0.222-0.297,0.389-0.389c0.161-0.094,0.353-0.148,0.557-0.148
		c0.401,0,1.044,0.246,1.044,1.273v1.779h-0.544v-1.719c0-0.482-0.179-0.883-0.691-0.883c-0.353,0-0.625,0.246-0.729,0.537
		c-0.031,0.08-0.037,0.16-0.037,0.26v1.805h-0.544V18.902z"/>
	<path d="M44.149,21.895c0.013,0.734,0.476,1.037,1.026,1.037c0.389,0,0.63-0.068,0.827-0.154l0.1,0.389
		c-0.191,0.088-0.525,0.193-1.001,0.193c-0.921,0-1.472-0.613-1.472-1.516s0.532-1.605,1.403-1.605c0.982,0,1.236,0.852,1.236,1.402
		c0,0.111-0.007,0.191-0.019,0.254H44.149z M45.744,21.504c0.006-0.34-0.143-0.877-0.754-0.877c-0.557,0-0.791,0.5-0.835,0.877
		H45.744z"/>
	<path d="M50.358,22.574c0,0.26,0.012,0.512,0.043,0.717h-0.488l-0.043-0.377h-0.019c-0.167,0.234-0.488,0.445-0.915,0.445
		c-0.605,0-0.915-0.428-0.915-0.859c0-0.723,0.644-1.119,1.799-1.113v-0.061c0-0.242-0.068-0.693-0.68-0.688
		c-0.284,0-0.575,0.082-0.785,0.223l-0.123-0.363c0.247-0.156,0.611-0.26,0.988-0.26c0.915,0,1.138,0.623,1.138,1.217V22.574z
		 M49.833,21.764c-0.594-0.012-1.268,0.094-1.268,0.674c0,0.359,0.235,0.52,0.507,0.52c0.396,0,0.649-0.248,0.735-0.5
		c0.019-0.062,0.025-0.125,0.025-0.174V21.764z"/>
	<path d="M53.371,23.186c-0.142,0.068-0.457,0.174-0.858,0.174c-0.902,0-1.49-0.613-1.49-1.527c0-0.92,0.631-1.594,1.607-1.594
		c0.321,0,0.605,0.08,0.754,0.16l-0.124,0.414c-0.13-0.068-0.333-0.143-0.63-0.143c-0.687,0-1.057,0.514-1.057,1.131
		c0,0.693,0.444,1.119,1.038,1.119c0.309,0,0.513-0.074,0.667-0.143L53.371,23.186z"/>
	<path d="M54.746,19.582v0.717h0.778v0.414h-0.778v1.613c0,0.371,0.104,0.582,0.407,0.582c0.148,0,0.235-0.014,0.315-0.037
		l0.024,0.414c-0.104,0.037-0.271,0.074-0.481,0.074c-0.254,0-0.457-0.088-0.587-0.23c-0.148-0.166-0.21-0.432-0.21-0.783v-1.633
		h-0.464v-0.414h0.464v-0.555L54.746,19.582z"/>
	<path d="M58.642,22.469c0,0.314,0.006,0.588,0.024,0.822h-0.481l-0.031-0.488h-0.013c-0.136,0.24-0.457,0.557-0.988,0.557
		c-0.47,0-1.032-0.266-1.032-1.311v-1.75h0.544v1.65c0,0.568,0.179,0.959,0.667,0.959c0.365,0,0.618-0.254,0.717-0.502
		c0.031-0.074,0.05-0.172,0.05-0.277v-1.83h0.544V22.469z"/>
	<path d="M61.648,22.574c0,0.26,0.012,0.512,0.043,0.717h-0.488l-0.043-0.377h-0.019c-0.167,0.234-0.488,0.445-0.915,0.445
		c-0.605,0-0.915-0.428-0.915-0.859c0-0.723,0.644-1.119,1.799-1.113v-0.061c0-0.242-0.068-0.693-0.68-0.688
		c-0.284,0-0.575,0.082-0.785,0.223l-0.123-0.363c0.247-0.156,0.611-0.26,0.988-0.26c0.915,0,1.138,0.623,1.138,1.217V22.574z
		 M61.123,21.764c-0.594-0.012-1.268,0.094-1.268,0.674c0,0.359,0.235,0.52,0.507,0.52c0.396,0,0.649-0.248,0.735-0.5
		c0.019-0.062,0.025-0.125,0.025-0.174V21.764z"/>
	<path d="M62.528,18.902h0.544v4.389h-0.544V18.902z"/>
	<path d="M65.3,18.902h0.544v4.389H65.3V18.902z"/>
	<path d="M69.467,21.77c0,1.107-0.772,1.59-1.489,1.59c-0.804,0-1.435-0.594-1.435-1.539c0-0.996,0.662-1.582,1.483-1.582
		C68.886,20.238,69.467,20.861,69.467,21.77z M67.1,21.801c0,0.656,0.371,1.15,0.902,1.15c0.519,0,0.908-0.488,0.908-1.162
		c0-0.508-0.253-1.143-0.896-1.143C67.378,20.646,67.1,21.238,67.1,21.801z"/>
	<path d="M72.715,22.852c0,0.691-0.143,1.105-0.427,1.373c-0.297,0.266-0.717,0.357-1.094,0.357c-0.358,0-0.754-0.086-0.995-0.248
		l0.136-0.42c0.198,0.131,0.507,0.242,0.878,0.242c0.557,0,0.964-0.291,0.964-1.051v-0.328h-0.012c-0.161,0.279-0.488,0.5-0.952,0.5
		c-0.741,0-1.273-0.629-1.273-1.457c0-1.014,0.662-1.582,1.354-1.582c0.52,0,0.798,0.266,0.934,0.512h0.013l0.019-0.451h0.481
		c-0.019,0.211-0.024,0.457-0.024,0.816V22.852z M72.171,21.48c0-0.094-0.006-0.174-0.031-0.242c-0.099-0.32-0.358-0.58-0.76-0.58
		c-0.52,0-0.89,0.439-0.89,1.131c0,0.586,0.303,1.074,0.884,1.074c0.34,0,0.643-0.209,0.754-0.555
		c0.03-0.094,0.043-0.199,0.043-0.291V21.48z"/>
	<path d="M76.321,21.77c0,1.107-0.772,1.59-1.489,1.59c-0.804,0-1.435-0.594-1.435-1.539c0-0.996,0.662-1.582,1.483-1.582
		C75.74,20.238,76.321,20.861,76.321,21.77z M73.954,21.801c0,0.656,0.371,1.15,0.902,1.15c0.519,0,0.908-0.488,0.908-1.162
		c0-0.508-0.253-1.143-0.896-1.143C74.232,20.646,73.954,21.238,73.954,21.801z"/>
</g>
</svg>
