<?xml version="1.0" encoding="utf-8"?>
<!-- Generator: Adobe Illustrator 18.0.0, SVG Export Plug-In . SVG Version: 6.00 Build 0)  -->
<!DOCTYPE svg PUBLIC "-//W3C//DTD SVG 1.1//EN" "http://www.w3.org/Graphics/SVG/1.1/DTD/svg11.dtd">
<svg version="1.1" id="Layer_3" xmlns="http://www.w3.org/2000/svg" xmlns:xlink="http://www.w3.org/1999/xlink" x="0px" y="0px"
	 viewBox="0 0 871.5 304.5" enable-background="new 0 0 871.5 304.5" xml:space="preserve">
<g>
	<g>
		<path fill="#9032E9" d="M144.9,228.2c-0.4,0.6-0.8,1.3-1.2,1.9C144.1,229.5,144.5,228.8,144.9,228.2z"/>
		<path fill="#9032E9" d="M146.9,223.4c0.1-0.2,0.1-0.4,0.2-0.5h0C147,223,146.9,223.2,146.9,223.4z"/>
		<path fill="#9032E9" d="M145.9,226.3c-0.2,0.4-0.4,0.9-0.6,1.3C145.4,227.1,145.7,226.7,145.9,226.3z"/>
		<path fill="#9032E9" d="M146.6,224.2c-0.1,0.4-0.3,0.8-0.5,1.2C146.3,225,146.5,224.6,146.6,224.2z"/>
		<path fill="#9032E9" d="M147.3,212.8C147.3,212.8,147.3,212.8,147.3,212.8l10.4,0c0,0,0,0,0,0L147.3,212.8z"/>
		<path fill="#9032E9" d="M146.9,223.4c-0.1,0.3-0.2,0.6-0.2,0.9C146.7,224,146.8,223.7,146.9,223.4z"/>
		<path fill="#9032E9" d="M145.2,227.6c-0.1,0.2-0.2,0.4-0.3,0.6C145,228,145.1,227.8,145.2,227.6z"/>
		<path fill="#9032E9" d="M146.2,225.4c-0.1,0.3-0.2,0.5-0.3,0.8C146,226,146.1,225.7,146.2,225.4z"/>
		<path fill="#9032E9" d="M147,222.8c0.1-0.2,0.1-0.4,0.2-0.6C147.1,222.4,147.1,222.6,147,222.8L147,222.8z"/>
		<path fill="#9032E9" d="M147.6,215.9c0,0.4,0,0.8,0,1.1C147.7,216.7,147.7,216.3,147.6,215.9z"/>
		<path fill="#9032E9" d="M147.3,213.3c0,0.1,0,0.1,0,0.2c0.1,0.5,0.2,1,0.2,1.5c0-0.2,0-0.4-0.1-0.7c0-0.1,0-0.2-0.1-0.3
			c0-0.2-0.1-1-0.1-1.2h-0.1C147.2,212.9,147.3,213.1,147.3,213.3z"/>
		<path fill="#9032E9" d="M147.7,218c0,0.4,0,0.8-0.1,1.2C147.7,218.8,147.7,218.4,147.7,218z"/>
		<path fill="#9032E9" d="M147.5,220.1c0,0.4-0.1,0.8-0.2,1.2C147.4,220.9,147.5,220.5,147.5,220.1z"/>
		<path fill="#9032E9" d="M225.4,209.8c-0.6-0.7-1.2-1.4-1.9-2c-2.7-2.3-6.2-3.3-9.6-3c-2.3,0.2-4.6,1.1-6.5,2.6
			c-1.9,1.4-3.2,3.3-4,5.3h-45.7h-10.4c0,0.2,0.1,1,0.1,1.2c0,0.1,0,0.2,0.1,0.3c0,0.2,0,0.4,0.1,0.7c0,0.3,0.1,0.6,0.1,1
			c0,0.4,0,0.8,0,1.1c0,0.3,0,0.6,0,1c0,0.4,0,0.8-0.1,1.2c0,0.3,0,0.6-0.1,0.9c0,0.4-0.1,0.8-0.2,1.2c-0.1,0.3-0.1,0.6-0.2,0.9
			c0,0.2-0.1,0.4-0.2,0.6c0,0.2-0.1,0.4-0.2,0.5c-0.1,0.3-0.2,0.6-0.2,0.9c-0.1,0.4-0.3,0.8-0.5,1.2c-0.1,0.3-0.2,0.5-0.3,0.8
			c-0.2,0.4-0.4,0.9-0.6,1.3c-0.1,0.2-0.2,0.4-0.3,0.6c-0.4,0.6-0.8,1.3-1.2,1.9c-7,9.8-20.6,12.1-30.4,5.1
			c-9.8-7-12.1-20.6-5.1-30.4l-8.2-5.8c-10.2,14.3-6.8,34.3,7.5,44.5c14.3,10.2,34.3,6.8,44.5-7.5c2.8-3.9,4.6-8.5,5.4-13.1h46.2
			c0.4,0.9,0.9,1.8,1.6,2.7c4.3,5.6,12.4,6.7,18,2.3C228.7,223.5,229.8,215.4,225.4,209.8z"/>
		<path fill="#9032E9" d="M147.5,215c0,0.3,0.1,0.6,0.1,1C147.6,215.6,147.6,215.3,147.5,215z"/>
		<path fill="#9032E9" d="M147.4,221.3c-0.1,0.3-0.1,0.6-0.2,0.9C147.3,221.9,147.3,221.6,147.4,221.3z"/>
		<path fill="#9032E9" d="M147.6,219.2c0,0.3,0,0.6-0.1,0.9C147.6,219.8,147.6,219.5,147.6,219.2z"/>
		<path fill="#9032E9" d="M147.7,217.1c0,0.3,0,0.6,0,1C147.7,217.7,147.7,217.4,147.7,217.1z"/>
	</g>
	<g>
		<path fill="#86C351" d="M231.6,203.9c0.5,0.5,1,1.1,1.4,1.7C232.6,205.1,232.1,204.5,231.6,203.9z"/>
		<path fill="#86C351" d="M227.7,200.6c-0.2-0.1-0.3-0.2-0.5-0.3l0,0C227.4,200.3,227.5,200.4,227.7,200.6z"/>
		<path fill="#86C351" d="M230.1,202.4c0.4,0.3,0.7,0.7,1,1C230.8,203.1,230.5,202.7,230.1,202.4z"/>
		<path fill="#86C351" d="M228.4,201.1c0.3,0.3,0.7,0.5,1,0.8C229.1,201.6,228.8,201.3,228.4,201.1z"/>
		<path fill="#86C351" d="M217.7,196.9L217.7,196.9l3.2-9.9c0,0,0,0,0,0L217.7,196.9z"/>
		<path fill="#86C351" d="M227.7,200.6c0.3,0.2,0.5,0.3,0.8,0.5C228.2,200.9,227.9,200.7,227.7,200.6z"/>
		<path fill="#86C351" d="M231.1,203.4c0.2,0.2,0.4,0.3,0.5,0.5C231.5,203.8,231.3,203.6,231.1,203.4z"/>
		<path fill="#86C351" d="M229.4,201.9c0.2,0.2,0.5,0.4,0.7,0.5C229.9,202.2,229.6,202,229.4,201.9z"/>
		<path fill="#86C351" d="M227.2,200.2c-0.2-0.1-0.4-0.2-0.6-0.3C226.8,200,227,200.1,227.2,200.2L227.2,200.2z"/>
		<path fill="#86C351" d="M220.8,197.5c0.4,0.1,0.7,0.2,1.1,0.3C221.6,197.7,221.2,197.6,220.8,197.5z"/>
		<path fill="#86C351" d="M218.2,197c0.1,0,0.1,0,0.2,0c0.5,0.1,1,0.2,1.5,0.3c-0.2,0-0.4-0.1-0.7-0.1c-0.1,0-0.2,0-0.3-0.1
			c-0.2,0-1-0.2-1.2-0.2l0,0.1C217.8,197,218,197,218.2,197z"/>
		<path fill="#86C351" d="M222.8,198.1c0.4,0.1,0.7,0.3,1.1,0.4C223.5,198.4,223.2,198.2,222.8,198.1z"/>
		<path fill="#86C351" d="M224.8,198.9c0.4,0.2,0.7,0.4,1,0.5C225.5,199.3,225.1,199.1,224.8,198.9z"/>
		<path fill="#86C351" d="M255.5,129.4c-2.4-6.7-9.7-10.2-16.4-7.8c-0.9,0.3-1.7,0.7-2.5,1.2c-3,1.9-5.1,4.9-5.8,8.2
			c-0.5,2.3-0.4,4.7,0.4,7c0.8,2.2,2.1,4.1,3.8,5.5L220.9,187l-3.2,9.9c0.2,0,1,0.2,1.2,0.2c0.1,0,0.2,0,0.3,0.1
			c0.2,0,0.4,0.1,0.7,0.1c0.3,0.1,0.6,0.1,0.9,0.2c0.4,0.1,0.7,0.2,1.1,0.3c0.3,0.1,0.6,0.2,0.9,0.3c0.4,0.1,0.7,0.3,1.1,0.4
			c0.3,0.1,0.6,0.2,0.9,0.4c0.4,0.2,0.7,0.4,1,0.5c0.3,0.1,0.6,0.3,0.8,0.4c0.2,0.1,0.4,0.2,0.6,0.3c0.2,0.1,0.3,0.2,0.5,0.3
			c0.3,0.2,0.5,0.3,0.8,0.5c0.3,0.3,0.7,0.5,1,0.8c0.2,0.2,0.5,0.4,0.7,0.5c0.4,0.3,0.7,0.7,1,1c0.2,0.2,0.4,0.3,0.5,0.5
			c0.5,0.5,1,1.1,1.4,1.7c7.2,9.7,5.1,23.4-4.5,30.5s-23.4,5.1-30.5-4.5l-8.1,6c10.5,14.1,30.5,17.1,44.6,6.6s17.1-30.5,6.6-44.6
			c-2.8-3.8-6.6-7-10.8-9.2l14.3-43.9c1-0.1,2-0.3,3-0.7C254.3,143.5,257.8,136.1,255.5,129.4z"/>
		<path fill="#86C351" d="M219.9,197.3c0.3,0.1,0.6,0.1,0.9,0.2C220.5,197.4,220.2,197.4,219.9,197.3z"/>
		<path fill="#86C351" d="M225.8,199.4c0.3,0.1,0.6,0.3,0.8,0.4C226.4,199.7,226.1,199.6,225.8,199.4z"/>
		<path fill="#86C351" d="M223.9,198.5c0.3,0.1,0.6,0.2,0.9,0.4C224.5,198.8,224.2,198.7,223.9,198.5z"/>
		<path fill="#86C351" d="M221.9,197.8c0.3,0.1,0.6,0.2,0.9,0.3C222.5,198,222.2,197.9,221.9,197.8z"/>
	</g>
	<g>
		<path fill="#0A7BFF" d="M235.1,114.3c0.7-0.3,1.4-0.6,2.1-0.8C236.4,113.7,235.8,114,235.1,114.3z"/>
		<path fill="#0A7BFF" d="M230.6,117.1c-0.1,0.1-0.3,0.2-0.4,0.3l0,0C230.3,117.3,230.5,117.2,230.6,117.1z"/>
		<path fill="#0A7BFF" d="M233.1,115.3c0.4-0.2,0.9-0.5,1.3-0.7C234,114.9,233.6,115.1,233.1,115.3z"/>
		<path fill="#0A7BFF" d="M231.3,116.5c0.3-0.3,0.7-0.5,1.1-0.7C232.1,116,231.7,116.2,231.3,116.5z"/>
		<path fill="#0A7BFF" d="M224.1,125.4C224.1,125.4,224.1,125.4,224.1,125.4l-8.4-6.1c0,0,0,0,0,0L224.1,125.4z"/>
		<path fill="#0A7BFF" d="M230.6,117.1c0.2-0.2,0.5-0.4,0.7-0.6C231.1,116.7,230.9,116.9,230.6,117.1z"/>
		<path fill="#0A7BFF" d="M234.4,114.6c0.2-0.1,0.4-0.2,0.6-0.3C234.9,114.4,234.7,114.5,234.4,114.6z"/>
		<path fill="#0A7BFF" d="M232.4,115.8c0.2-0.2,0.5-0.3,0.7-0.5C232.9,115.5,232.7,115.6,232.4,115.8z"/>
		<path fill="#0A7BFF" d="M230.2,117.4c-0.2,0.1-0.3,0.3-0.5,0.4C229.8,117.7,230,117.5,230.2,117.4L230.2,117.4z"/>
		<path fill="#0A7BFF" d="M225.6,122.6c0.2-0.3,0.4-0.6,0.6-0.9C226,122,225.8,122.3,225.6,122.6z"/>
		<path fill="#0A7BFF" d="M224.3,125c0-0.1,0.1-0.1,0.1-0.1c0.2-0.5,0.5-0.9,0.7-1.4c-0.1,0.2-0.2,0.4-0.3,0.6
			c-0.1,0.1-0.1,0.2-0.2,0.3c-0.1,0.2-0.5,0.9-0.6,1.1l0.1,0.1C224.2,125.3,224.3,125.1,224.3,125z"/>
		<path fill="#0A7BFF" d="M226.8,120.9c0.2-0.3,0.5-0.6,0.7-0.9C227.3,120.3,227.1,120.6,226.8,120.9z"/>
		<path fill="#0A7BFF" d="M228.2,119.3c0.3-0.3,0.6-0.6,0.8-0.8C228.7,118.7,228.4,119,228.2,119.3z"/>
		<path fill="#0A7BFF" d="M274.3,124c-5.6-16.7-23.7-25.7-40.4-20.1c-4.5,1.5-8.7,4.2-12.1,7.4l-37.3-27.1c0.2-1,0.3-2,0.3-3.1
			c-0.2-7.1-6.1-12.7-13.2-12.5c-7.1,0.2-12.7,6.1-12.5,13.2c0,0.9,0.2,1.8,0.4,2.7c0.8,3.4,3.1,6.3,6.1,8.1c2,1.2,4.3,1.8,6.8,1.7
			c2.4-0.1,4.5-0.8,6.4-1.9l36.9,26.8l8.4,6.1c0.1-0.2,0.5-0.9,0.6-1.1c0.1-0.1,0.1-0.2,0.2-0.3c0.1-0.2,0.2-0.4,0.3-0.6
			c0.2-0.3,0.3-0.6,0.5-0.8c0.2-0.3,0.4-0.6,0.6-0.9c0.2-0.3,0.4-0.5,0.6-0.8c0.2-0.3,0.5-0.6,0.7-0.9c0.2-0.2,0.4-0.5,0.6-0.7
			c0.3-0.3,0.6-0.6,0.8-0.8c0.2-0.2,0.4-0.4,0.7-0.6c0.2-0.1,0.3-0.3,0.5-0.4c0.1-0.1,0.3-0.2,0.4-0.3c0.2-0.2,0.5-0.4,0.7-0.6
			c0.3-0.3,0.7-0.5,1.1-0.7c0.2-0.2,0.5-0.3,0.7-0.5c0.4-0.2,0.9-0.5,1.3-0.7c0.2-0.1,0.4-0.2,0.6-0.3c0.7-0.3,1.4-0.6,2.1-0.8
			c11.4-3.8,23.8,2.3,27.6,13.7c3.8,11.4-2.3,23.8-13.7,27.6l3.2,9.5C270.9,158.8,279.9,140.7,274.3,124z"/>
		<path fill="#0A7BFF" d="M225.1,123.5c0.2-0.3,0.3-0.6,0.5-0.8C225.5,122.9,225.3,123.2,225.1,123.5z"/>
		<path fill="#0A7BFF" d="M229,118.5c0.2-0.2,0.4-0.4,0.7-0.6C229.4,118,229.2,118.3,229,118.5z"/>
		<path fill="#0A7BFF" d="M227.6,120c0.2-0.2,0.4-0.5,0.6-0.7C228,119.5,227.8,119.8,227.6,120z"/>
		<path fill="#0A7BFF" d="M226.3,121.7c0.2-0.3,0.4-0.5,0.6-0.8C226.6,121.2,226.4,121.4,226.3,121.7z"/>
	</g>
	<g>
		<path fill="#EB3D00" d="M149.1,82.8c-0.1-0.7-0.1-1.5-0.1-2.2C149,81.3,149.1,82,149.1,82.8z"/>
		<path fill="#EB3D00" d="M150.4,87.9c0.1,0.2,0.1,0.4,0.2,0.5l0,0C150.5,88.2,150.4,88,150.4,87.9z"/>
		<path fill="#EB3D00" d="M149.5,84.9c-0.1-0.5-0.2-1-0.2-1.4C149.3,84,149.4,84.5,149.5,84.9z"/>
		<path fill="#EB3D00" d="M150.1,87c-0.1-0.4-0.2-0.8-0.3-1.2C149.8,86.2,149.9,86.6,150.1,87z"/>
		<path fill="#EB3D00" d="M156.3,96.7C156.3,96.7,156.3,96.7,156.3,96.7l-8.4,6.1c0,0,0,0,0,0L156.3,96.7z"/>
		<path fill="#EB3D00" d="M150.4,87.9c-0.1-0.3-0.2-0.6-0.3-0.9C150.1,87.3,150.3,87.6,150.4,87.9z"/>
		<path fill="#EB3D00" d="M149.3,83.5c0-0.2-0.1-0.5-0.1-0.7C149.2,83,149.2,83.2,149.3,83.5z"/>
		<path fill="#EB3D00" d="M149.7,85.8c-0.1-0.3-0.2-0.6-0.2-0.8C149.6,85.2,149.6,85.5,149.7,85.8z"/>
		<path fill="#EB3D00" d="M150.6,88.4c0.1,0.2,0.2,0.4,0.2,0.6C150.7,88.8,150.6,88.6,150.6,88.4L150.6,88.4z"/>
		<path fill="#EB3D00" d="M154.1,94.3c-0.2-0.3-0.5-0.6-0.7-0.9C153.6,93.7,153.9,94,154.1,94.3z"/>
		<path fill="#EB3D00" d="M156,96.3c0,0-0.1-0.1-0.1-0.1c-0.4-0.4-0.7-0.7-1.1-1.1c0.2,0.2,0.3,0.3,0.4,0.5c0.1,0.1,0.2,0.2,0.2,0.2
			c0.1,0.1,0.7,0.8,0.8,0.9l0.1-0.1C156.2,96.5,156.1,96.4,156,96.3z"/>
		<path fill="#EB3D00" d="M152.9,92.7c-0.2-0.3-0.4-0.6-0.6-1C152.4,92,152.6,92.4,152.9,92.7z"/>
		<path fill="#EB3D00" d="M151.7,90.9c-0.2-0.3-0.4-0.7-0.5-1.1C151.4,90.2,151.6,90.5,151.7,90.9z"/>
		<path fill="#EB3D00" d="M170.5,48.4c-17.6,0.2-31.8,14.6-31.6,32.2c0,4.8,1.3,9.5,3.3,13.8l-37.3,27.1c-0.9-0.5-1.8-0.9-2.8-1.2
			c-6.8-2-14,1.9-16,8.7c-2,6.8,1.9,14,8.7,16c0.9,0.3,1.8,0.4,2.7,0.5c3.5,0.3,7-1,9.5-3.3c1.7-1.5,3.1-3.6,3.8-5.9
			c0.7-2.3,0.7-4.6,0.1-6.7l36.9-26.8l8.4-6.1c-0.1-0.1-0.7-0.8-0.8-0.9c-0.1-0.1-0.2-0.2-0.2-0.2c-0.2-0.2-0.3-0.3-0.4-0.5
			c-0.2-0.2-0.4-0.5-0.6-0.7c-0.2-0.3-0.5-0.6-0.7-0.9c-0.2-0.3-0.4-0.5-0.6-0.8c-0.2-0.3-0.4-0.6-0.6-1c-0.2-0.3-0.3-0.5-0.5-0.8
			c-0.2-0.3-0.4-0.7-0.5-1.1c-0.1-0.3-0.3-0.6-0.4-0.8c-0.1-0.2-0.2-0.4-0.2-0.6c-0.1-0.2-0.1-0.4-0.2-0.5c-0.1-0.3-0.2-0.6-0.3-0.9
			c-0.1-0.4-0.2-0.8-0.3-1.2c-0.1-0.3-0.2-0.6-0.2-0.8c-0.1-0.5-0.2-1-0.2-1.4c0-0.2-0.1-0.5-0.1-0.7c-0.1-0.7-0.1-1.5-0.1-2.2
			c-0.1-12,9.6-21.9,21.6-22s21.9,9.6,22,21.6l10.1-0.1C202.5,62.4,188.1,48.3,170.5,48.4z"/>
		<path fill="#EB3D00" d="M154.8,95c-0.2-0.2-0.4-0.5-0.6-0.7C154.3,94.6,154.5,94.8,154.8,95z"/>
		<path fill="#EB3D00" d="M151.2,89.8c-0.1-0.3-0.3-0.6-0.4-0.8C150.9,89.3,151.1,89.6,151.2,89.8z"/>
		<path fill="#EB3D00" d="M152.2,91.7c-0.2-0.3-0.3-0.5-0.5-0.8C151.9,91.2,152.1,91.4,152.2,91.7z"/>
		<path fill="#EB3D00" d="M153.4,93.4c-0.2-0.3-0.4-0.5-0.6-0.8C153,92.9,153.2,93.2,153.4,93.4z"/>
	</g>
	<g>
		<path fill="#00BCD4" d="M94.1,153.7c-0.7-0.1-1.4-0.3-2.2-0.6C92.7,153.4,93.4,153.6,94.1,153.7z"/>
		<path fill="#00BCD4" d="M99.4,154.2c0.2,0,0.4,0,0.6,0l0,0C99.7,154.1,99.5,154.1,99.4,154.2z"/>
		<path fill="#00BCD4" d="M96.3,154.1c-0.5,0-1-0.1-1.4-0.2C95.3,153.9,95.8,154,96.3,154.1z"/>
		<path fill="#00BCD4" d="M98.5,154.2c-0.4,0-0.9,0-1.3-0.1C97.6,154.2,98,154.2,98.5,154.2z"/>
		<path fill="#00BCD4" d="M109.6,151.3C109.6,151.3,109.6,151.3,109.6,151.3l3.2,9.9c0,0,0,0,0,0L109.6,151.3z"/>
		<path fill="#00BCD4" d="M99.4,154.2c-0.3,0-0.6,0-0.9,0C98.8,154.2,99.1,154.2,99.4,154.2z"/>
		<path fill="#00BCD4" d="M94.9,153.9c-0.2,0-0.5-0.1-0.7-0.1C94.4,153.8,94.6,153.8,94.9,153.9z"/>
		<path fill="#00BCD4" d="M97.2,154.1c-0.3,0-0.6,0-0.9-0.1C96.6,154.1,96.9,154.1,97.2,154.1z"/>
		<path fill="#00BCD4" d="M99.9,154.1c0.2,0,0.4,0,0.7,0C100.4,154.1,100.1,154.1,99.9,154.1L99.9,154.1z"/>
		<path fill="#00BCD4" d="M106.7,152.6c-0.4,0.1-0.7,0.3-1.1,0.4C106,152.9,106.3,152.7,106.7,152.6z"/>
		<path fill="#00BCD4" d="M109.1,151.4c0,0-0.1,0-0.1,0.1c-0.5,0.2-0.9,0.5-1.4,0.7c0.2-0.1,0.4-0.2,0.6-0.3
			c0.1-0.1,0.2-0.1,0.3-0.2c0.2-0.1,0.9-0.4,1.1-0.5l0-0.1C109.4,151.3,109.3,151.4,109.1,151.4z"/>
		<path fill="#00BCD4" d="M104.7,153.3c-0.4,0.1-0.7,0.2-1.1,0.3C104,153.5,104.3,153.4,104.7,153.3z"/>
		<path fill="#00BCD4" d="M102.7,153.8c-0.4,0.1-0.8,0.1-1.2,0.2C101.9,153.9,102.3,153.9,102.7,153.8z"/>
		<path fill="#00BCD4" d="M137.7,212.2c-0.9-2.1-2.4-4-4.5-5.4c-1.9-1.3-4.1-2-6.3-2.2l-14.1-43.4l-3.2-9.9
			c-0.2,0.1-0.9,0.4-1.1,0.5c-0.1,0.1-0.2,0.1-0.3,0.2c-0.2,0.1-0.4,0.2-0.6,0.3c-0.3,0.1-0.6,0.3-0.9,0.4c-0.4,0.1-0.7,0.3-1.1,0.4
			c-0.3,0.1-0.6,0.2-0.9,0.3c-0.4,0.1-0.7,0.2-1.1,0.3c-0.3,0.1-0.6,0.2-0.9,0.2c-0.4,0.1-0.8,0.1-1.2,0.2c-0.3,0-0.6,0.1-0.9,0.1
			c-0.2,0-0.4,0-0.7,0c-0.2,0-0.4,0-0.6,0c-0.3,0-0.6,0-0.9,0c-0.4,0-0.9,0-1.3-0.1c-0.3,0-0.6,0-0.9-0.1c-0.5,0-1-0.1-1.4-0.2
			c-0.2,0-0.5-0.1-0.7-0.1c-0.7-0.1-1.4-0.3-2.2-0.6c-11.5-3.6-17.9-15.9-14.3-27.4s15.9-17.9,27.4-14.3l3-9.6
			c-16.8-5.3-34.7,4.1-40,20.9c-5.3,16.8,4.1,34.7,20.9,40c4.5,1.4,9.5,1.7,14.1,1.1l14.3,43.9c-0.8,0.7-1.4,1.4-2,2.3
			c-4,5.9-2.5,13.9,3.4,17.9c5.9,4,13.9,2.5,17.9-3.4c0.5-0.8,1-1.6,1.3-2.4C139.2,219,139.1,215.3,137.7,212.2z"/>
		<path fill="#00BCD4" d="M107.6,152.2c-0.3,0.1-0.6,0.3-0.9,0.4C107,152.5,107.3,152.3,107.6,152.2z"/>
		<path fill="#00BCD4" d="M101.5,154c-0.3,0-0.6,0.1-0.9,0.1C100.9,154.1,101.2,154,101.5,154z"/>
		<path fill="#00BCD4" d="M103.6,153.6c-0.3,0.1-0.6,0.2-0.9,0.2C103,153.7,103.3,153.6,103.6,153.6z"/>
		<path fill="#00BCD4" d="M105.6,153c-0.3,0.1-0.6,0.2-0.9,0.3C105,153.2,105.3,153.1,105.6,153z"/>
	</g>
</g>
<rect x="312" y="90.2" fill="none" width="493.5" height="126.5"/>
<text transform="matrix(1 0 0 1 311.986 207.3396)" fill="#3C3C3B" font-family="'HelveticaNeue-UltraLight'" font-size="164">fastlane</text>
</svg>
