<?xml version="1.0" encoding="utf-8"?>
<!-- Generator: Adobe Illustrator 18.0.0, SVG Export Plug-In . SVG Version: 6.00 Build 0)  -->
<!DOCTYPE svg PUBLIC "-//W3C//DTD SVG 1.1//EN" "http://www.w3.org/Graphics/SVG/1.1/DTD/svg11.dtd">
<svg version="1.1" id="Layer_1" xmlns="http://www.w3.org/2000/svg" xmlns:xlink="http://www.w3.org/1999/xlink" x="0px" y="0px"
	 viewBox="0 0 300 300" enable-background="new 0 0 300 300" xml:space="preserve">
<g>
	<g>
		<path fill="#9032E9" d="M114,252.5c-0.5,0.9-1,1.7-1.6,2.5C113,254.2,113.5,253.4,114,252.5z"/>
		<path fill="#9032E9" d="M116.7,246.1c0.1-0.2,0.1-0.5,0.2-0.7h0C116.8,245.6,116.8,245.8,116.7,246.1z"/>
		<path fill="#9032E9" d="M115.3,249.9c-0.3,0.6-0.6,1.2-0.9,1.7C114.8,251.1,115.1,250.5,115.3,249.9z"/>
		<path fill="#9032E9" d="M116.4,247.2c-0.2,0.5-0.4,1.1-0.6,1.6C116,248.3,116.2,247.8,116.4,247.2z"/>
		<path fill="#9032E9" d="M117.3,231.9C117.3,231.9,117.3,231.9,117.3,231.9l13.9,0c0,0,0,0,0,0L117.3,231.9z"/>
		<path fill="#9032E9" d="M116.7,246.1c-0.1,0.4-0.2,0.8-0.3,1.2C116.5,246.8,116.6,246.5,116.7,246.1z"/>
		<path fill="#9032E9" d="M114.5,251.7c-0.2,0.3-0.3,0.6-0.4,0.9C114.2,252.2,114.3,251.9,114.5,251.7z"/>
		<path fill="#9032E9" d="M115.8,248.8c-0.1,0.4-0.3,0.7-0.4,1.1C115.5,249.6,115.6,249.2,115.8,248.8z"/>
		<path fill="#9032E9" d="M116.9,245.3c0.1-0.3,0.1-0.6,0.2-0.9C117.1,244.8,117,245.1,116.9,245.3L116.9,245.3z"/>
		<path fill="#9032E9" d="M117.7,236.1c0,0.5,0,1,0.1,1.5C117.8,237.1,117.8,236.6,117.7,236.1z"/>
		<path fill="#9032E9" d="M117.3,232.6c0,0.1,0,0.1,0,0.2c0.1,0.7,0.2,1.4,0.3,2.1c0-0.3,0-0.6-0.1-0.9c0-0.2,0-0.3-0.1-0.5
			c0-0.2-0.1-1.4-0.2-1.6h-0.1C117.2,232.1,117.2,232.4,117.3,232.6z"/>
		<path fill="#9032E9" d="M117.8,238.9c0,0.5-0.1,1-0.1,1.5C117.7,239.9,117.8,239.4,117.8,238.9z"/>
		<path fill="#9032E9" d="M117.6,241.7c-0.1,0.5-0.2,1-0.2,1.6C117.4,242.8,117.5,242.2,117.6,241.7z"/>
		<path fill="#9032E9" d="M221.5,227.9c-0.8-1-1.6-1.9-2.5-2.6c-3.6-3.1-8.3-4.4-12.8-3.9c-3.1,0.3-6.1,1.4-8.7,3.5
			c-2.5,1.9-4.3,4.4-5.4,7.1h-60.9h-13.9c0,0.2,0.1,1.4,0.2,1.6c0,0.2,0,0.3,0.1,0.5c0,0.3,0.1,0.6,0.1,0.9c0,0.4,0.1,0.8,0.1,1.3
			c0,0.5,0,1,0.1,1.5c0,0.4,0,0.8,0,1.3c0,0.5-0.1,1-0.1,1.5c0,0.4-0.1,0.8-0.1,1.3c-0.1,0.5-0.2,1-0.2,1.6
			c-0.1,0.4-0.1,0.8-0.2,1.2c-0.1,0.3-0.1,0.6-0.2,0.9c-0.1,0.2-0.1,0.5-0.2,0.7c-0.1,0.4-0.2,0.8-0.3,1.2c-0.2,0.5-0.4,1.1-0.6,1.6
			c-0.1,0.4-0.3,0.7-0.4,1.1c-0.3,0.6-0.6,1.2-0.9,1.7c-0.2,0.3-0.3,0.6-0.4,0.9c-0.5,0.9-1,1.7-1.6,2.5
			c-9.3,13.1-27.5,16.1-40.6,6.8c-13.1-9.3-16.1-27.5-6.8-40.6l-10.9-7.8c-13.6,19.1-9.1,45.7,10,59.3c19.1,13.6,45.7,9.1,59.3-10
			c3.7-5.2,6.1-11.3,7.3-17.5h61.6c0.5,1.2,1.2,2.4,2.1,3.5c5.8,7.5,16.6,8.9,24.1,3.1C225.9,246.2,227.3,235.4,221.5,227.9z"/>
		<path fill="#9032E9" d="M117.6,234.9c0,0.4,0.1,0.8,0.1,1.3C117.7,235.7,117.6,235.3,117.6,234.9z"/>
		<path fill="#9032E9" d="M117.3,243.3c-0.1,0.4-0.1,0.8-0.2,1.2C117.2,244.1,117.3,243.7,117.3,243.3z"/>
		<path fill="#9032E9" d="M117.7,240.5c0,0.4-0.1,0.8-0.1,1.3C117.6,241.3,117.7,240.9,117.7,240.5z"/>
		<path fill="#9032E9" d="M117.8,237.7c0,0.4,0,0.8,0,1.3C117.8,238.5,117.8,238.1,117.8,237.7z"/>
	</g>
	<g>
		<path fill="#86C351" d="M229.8,220.2c0.7,0.7,1.3,1.5,1.9,2.3C231.1,221.6,230.5,220.9,229.8,220.2z"/>
		<path fill="#86C351" d="M224.5,215.6c-0.2-0.1-0.4-0.3-0.6-0.4l0,0C224.1,215.4,224.3,215.5,224.5,215.6z"/>
		<path fill="#86C351" d="M227.7,218.1c0.5,0.4,0.9,0.9,1.4,1.4C228.7,219,228.2,218.5,227.7,218.1z"/>
		<path fill="#86C351" d="M225.5,216.3c0.5,0.3,0.9,0.7,1.3,1.1C226.4,217,226,216.6,225.5,216.3z"/>
		<path fill="#86C351" d="M211.2,210.7C211.2,210.7,211.2,210.7,211.2,210.7l4.3-13.2c0,0,0,0,0,0L211.2,210.7z"/>
		<path fill="#86C351" d="M224.5,215.6c0.3,0.2,0.7,0.4,1,0.7C225.2,216.1,224.8,215.9,224.5,215.6z"/>
		<path fill="#86C351" d="M229.1,219.5c0.2,0.2,0.5,0.4,0.7,0.7C229.6,219.9,229.4,219.7,229.1,219.5z"/>
		<path fill="#86C351" d="M226.9,217.4c0.3,0.2,0.6,0.5,0.9,0.7C227.5,217.8,227.2,217.6,226.9,217.4z"/>
		<path fill="#86C351" d="M223.9,215.2c-0.2-0.2-0.5-0.3-0.7-0.5C223.4,214.9,223.6,215.1,223.9,215.2L223.9,215.2z"/>
		<path fill="#86C351" d="M215.4,211.6c0.5,0.1,1,0.3,1.5,0.4C216.3,211.8,215.9,211.7,215.4,211.6z"/>
		<path fill="#86C351" d="M211.9,210.9c0.1,0,0.1,0,0.2,0c0.7,0.1,1.4,0.2,2,0.4c-0.3-0.1-0.6-0.1-0.9-0.2c-0.2,0-0.3-0.1-0.5-0.1
			c-0.2,0-1.3-0.3-1.6-0.3l0,0.1C211.4,210.9,211.6,210.9,211.9,210.9z"/>
		<path fill="#86C351" d="M218,212.4c0.5,0.2,1,0.4,1.4,0.6C219,212.7,218.5,212.6,218,212.4z"/>
		<path fill="#86C351" d="M220.6,213.4c0.5,0.2,0.9,0.5,1.4,0.7C221.6,213.9,221.1,213.7,220.6,213.4z"/>
		<path fill="#86C351" d="M261.6,120.7c-3.2-8.9-13-13.6-21.9-10.4c-1.2,0.4-2.3,1-3.3,1.6c-4,2.5-6.8,6.5-7.7,11
			c-0.6,3-0.5,6.2,0.6,9.3c1.1,3,2.8,5.4,5.1,7.3l-18.8,57.9l-4.3,13.2c0.2,0,1.3,0.3,1.6,0.3c0.2,0,0.3,0,0.5,0.1
			c0.3,0.1,0.6,0.1,0.9,0.2c0.4,0.1,0.8,0.2,1.2,0.3c0.5,0.1,1,0.3,1.5,0.4c0.4,0.1,0.8,0.2,1.2,0.4c0.5,0.2,1,0.4,1.4,0.6
			c0.4,0.2,0.8,0.3,1.2,0.5c0.5,0.2,0.9,0.5,1.4,0.7c0.4,0.2,0.7,0.4,1.1,0.6c0.3,0.1,0.5,0.3,0.7,0.5c0.2,0.1,0.4,0.3,0.6,0.4
			c0.3,0.2,0.7,0.4,1,0.7c0.5,0.3,0.9,0.7,1.3,1.1c0.3,0.2,0.6,0.5,0.9,0.7c0.5,0.4,0.9,0.9,1.4,1.4c0.2,0.2,0.5,0.4,0.7,0.7
			c0.7,0.7,1.3,1.5,1.9,2.3c9.6,12.9,6.8,31.2-6,40.7c-12.9,9.6-31.2,6.8-40.7-6l-10.8,8c14,18.8,40.7,22.8,59.5,8.8
			s22.8-40.7,8.8-59.5c-3.8-5.1-8.9-9.3-14.4-12.3l19-58.6c1.3-0.1,2.7-0.4,4-0.9C260.1,139.5,264.8,129.7,261.6,120.7z"/>
		<path fill="#86C351" d="M214.1,211.3c0.4,0.1,0.8,0.2,1.2,0.3C215,211.5,214.5,211.4,214.1,211.3z"/>
		<path fill="#86C351" d="M222,214.2c0.4,0.2,0.7,0.4,1.1,0.6C222.8,214.5,222.4,214.3,222,214.2z"/>
		<path fill="#86C351" d="M219.5,212.9c0.4,0.2,0.8,0.3,1.2,0.5C220.3,213.3,219.9,213.1,219.5,212.9z"/>
		<path fill="#86C351" d="M216.8,212c0.4,0.1,0.8,0.2,1.2,0.4C217.6,212.2,217.2,212.1,216.8,212z"/>
	</g>
	<g>
		<path fill="#0A7BFF" d="M234.4,100.6c0.9-0.4,1.8-0.8,2.8-1.1C236.2,99.8,235.3,100.2,234.4,100.6z"/>
		<path fill="#0A7BFF" d="M228.5,104.2c-0.2,0.2-0.4,0.3-0.6,0.5l0,0C228.1,104.5,228.3,104.4,228.5,104.2z"/>
		<path fill="#0A7BFF" d="M231.8,101.9c0.6-0.3,1.1-0.6,1.7-0.9C233,101.3,232.4,101.6,231.8,101.9z"/>
		<path fill="#0A7BFF" d="M229.4,103.5c0.5-0.3,1-0.6,1.4-0.9C230.4,102.8,229.9,103.1,229.4,103.5z"/>
		<path fill="#0A7BFF" d="M219.7,115.3C219.7,115.3,219.7,115.3,219.7,115.3l-11.2-8.2c0,0,0,0,0,0L219.7,115.3z"/>
		<path fill="#0A7BFF" d="M228.5,104.2c0.3-0.3,0.6-0.5,1-0.7C229.1,103.7,228.8,104,228.5,104.2z"/>
		<path fill="#0A7BFF" d="M233.5,101c0.3-0.1,0.6-0.3,0.9-0.4C234.1,100.7,233.8,100.9,233.5,101z"/>
		<path fill="#0A7BFF" d="M230.8,102.5c0.3-0.2,0.6-0.4,1-0.6C231.5,102.1,231.2,102.3,230.8,102.5z"/>
		<path fill="#0A7BFF" d="M227.9,104.7c-0.2,0.2-0.5,0.4-0.7,0.6C227.4,105,227.7,104.9,227.9,104.7L227.9,104.7z"/>
		<path fill="#0A7BFF" d="M221.8,111.6c0.3-0.4,0.6-0.8,0.8-1.3C222.3,110.8,222.1,111.2,221.8,111.6z"/>
		<path fill="#0A7BFF" d="M220.1,114.8c0-0.1,0.1-0.1,0.1-0.2c0.3-0.6,0.6-1.2,1-1.8c-0.1,0.3-0.3,0.5-0.4,0.8
			c-0.1,0.1-0.1,0.3-0.2,0.4c-0.1,0.2-0.7,1.2-0.8,1.4l0.1,0.1C219.9,115.2,220,115,220.1,114.8z"/>
		<path fill="#0A7BFF" d="M223.4,109.3c0.3-0.4,0.6-0.8,1-1.2C224,108.6,223.7,108.9,223.4,109.3z"/>
		<path fill="#0A7BFF" d="M225.2,107.2c0.4-0.4,0.7-0.7,1.1-1.1C225.9,106.5,225.5,106.8,225.2,107.2z"/>
		<path fill="#0A7BFF" d="M286.8,113.5c-7.5-22.2-31.6-34.3-53.9-26.8c-6,2-11.6,5.6-16.1,9.9l-49.8-36.2c0.3-1.3,0.4-2.7,0.4-4.1
			c-0.3-9.5-8.2-16.9-17.6-16.7c-9.5,0.3-16.9,8.2-16.7,17.6c0,1.2,0.2,2.5,0.5,3.6c1.1,4.6,4.1,8.4,8.1,10.7
			c2.7,1.5,5.8,2.4,9.1,2.3c3.1-0.1,6.1-1,8.5-2.6l49.3,35.8l11.2,8.2c0.1-0.2,0.7-1.2,0.8-1.4c0.1-0.1,0.1-0.3,0.2-0.4
			c0.1-0.3,0.3-0.5,0.4-0.8c0.2-0.4,0.4-0.7,0.6-1.1c0.3-0.4,0.6-0.8,0.8-1.3c0.2-0.3,0.5-0.7,0.7-1c0.3-0.4,0.6-0.8,1-1.2
			c0.3-0.3,0.5-0.6,0.8-1c0.4-0.4,0.7-0.7,1.1-1.1c0.3-0.3,0.6-0.6,0.9-0.9c0.2-0.2,0.4-0.4,0.7-0.6c0.2-0.2,0.4-0.3,0.6-0.5
			c0.3-0.3,0.6-0.5,1-0.7c0.5-0.3,1-0.6,1.4-0.9c0.3-0.2,0.6-0.4,1-0.6c0.6-0.3,1.1-0.6,1.7-0.9c0.3-0.1,0.6-0.3,0.9-0.4
			c0.9-0.4,1.8-0.8,2.8-1.1c15.2-5.1,31.8,3.1,36.9,18.3c5.1,15.2-3.1,31.8-18.3,36.9l4.3,12.7C282.2,159.9,294.2,135.8,286.8,113.5
			z"/>
		<path fill="#0A7BFF" d="M221.1,112.7c0.2-0.4,0.4-0.7,0.6-1.1C221.6,112,221.4,112.4,221.1,112.7z"/>
		<path fill="#0A7BFF" d="M226.3,106.1c0.3-0.3,0.6-0.6,0.9-0.9C226.9,105.5,226.6,105.8,226.3,106.1z"/>
		<path fill="#0A7BFF" d="M224.4,108.2c0.3-0.3,0.5-0.6,0.8-1C224.9,107.5,224.6,107.8,224.4,108.2z"/>
		<path fill="#0A7BFF" d="M222.6,110.4c0.2-0.3,0.5-0.7,0.7-1C223.1,109.7,222.9,110,222.6,110.4z"/>
	</g>
	<g>
		<path fill="#EB3D00" d="M119.7,58.5c-0.1-1-0.2-2-0.2-3C119.5,56.5,119.6,57.5,119.7,58.5z"/>
		<path fill="#EB3D00" d="M121.4,65.2c0.1,0.2,0.2,0.5,0.3,0.7l0,0C121.5,65.7,121.4,65.5,121.4,65.2z"/>
		<path fill="#EB3D00" d="M120.2,61.3c-0.1-0.6-0.2-1.3-0.3-1.9C120,60.1,120.1,60.7,120.2,61.3z"/>
		<path fill="#EB3D00" d="M120.9,64.1c-0.2-0.5-0.3-1.1-0.5-1.7C120.6,63,120.8,63.6,120.9,64.1z"/>
		<path fill="#EB3D00" d="M129.2,77C129.2,77,129.2,77,129.2,77L118,85.2c0,0,0,0,0,0L129.2,77z"/>
		<path fill="#EB3D00" d="M121.4,65.2c-0.1-0.4-0.3-0.8-0.4-1.1C121.1,64.5,121.2,64.9,121.4,65.2z"/>
		<path fill="#EB3D00" d="M119.9,59.4c0-0.3-0.1-0.6-0.2-1C119.8,58.8,119.8,59.1,119.9,59.4z"/>
		<path fill="#EB3D00" d="M120.5,62.4c-0.1-0.4-0.2-0.7-0.3-1.1C120.3,61.7,120.4,62.1,120.5,62.4z"/>
		<path fill="#EB3D00" d="M121.6,66c0.1,0.3,0.2,0.5,0.3,0.8C121.8,66.5,121.7,66.2,121.6,66L121.6,66z"/>
		<path fill="#EB3D00" d="M126.4,73.9c-0.3-0.4-0.6-0.8-0.9-1.2C125.7,73.1,126,73.5,126.4,73.9z"/>
		<path fill="#EB3D00" d="M128.8,76.5c-0.1-0.1-0.1-0.1-0.2-0.2c-0.5-0.5-1-1-1.4-1.5c0.2,0.2,0.4,0.5,0.6,0.7
			c0.1,0.1,0.2,0.2,0.3,0.3c0.2,0.2,0.9,1,1.1,1.2l0.1-0.1C129.2,76.8,129,76.7,128.8,76.5z"/>
		<path fill="#EB3D00" d="M124.7,71.7c-0.3-0.4-0.6-0.9-0.8-1.3C124.1,70.8,124.4,71.2,124.7,71.7z"/>
		<path fill="#EB3D00" d="M123.2,69.3c-0.3-0.5-0.5-0.9-0.7-1.4C122.7,68.4,122.9,68.8,123.2,69.3z"/>
		<path fill="#EB3D00" d="M148.2,12.7c-23.5,0.2-42.4,19.5-42.1,43c0.1,6.3,1.7,12.7,4.4,18.4l-49.8,36.2c-1.2-0.7-2.4-1.2-3.8-1.6
			c-9.1-2.7-18.6,2.5-21.3,11.6c-2.7,9.1,2.5,18.6,11.6,21.3c1.2,0.4,2.4,0.6,3.6,0.6c4.7,0.3,9.3-1.3,12.7-4.4
			c2.3-2.1,4.1-4.7,5-7.9c0.9-3,0.9-6.1,0.2-8.9L118,85.2l11.2-8.2c-0.2-0.2-0.9-1-1.1-1.2c-0.1-0.1-0.2-0.2-0.3-0.3
			c-0.2-0.2-0.4-0.4-0.6-0.7c-0.3-0.3-0.6-0.6-0.8-1c-0.3-0.4-0.6-0.8-0.9-1.2c-0.3-0.3-0.5-0.7-0.8-1c-0.3-0.4-0.6-0.9-0.8-1.3
			c-0.2-0.4-0.4-0.7-0.7-1.1c-0.3-0.5-0.5-0.9-0.7-1.4c-0.2-0.4-0.4-0.7-0.5-1.1c-0.1-0.3-0.2-0.5-0.3-0.8c-0.1-0.2-0.2-0.5-0.3-0.7
			c-0.1-0.4-0.3-0.8-0.4-1.1c-0.2-0.5-0.3-1.1-0.5-1.7c-0.1-0.4-0.2-0.7-0.3-1.1c-0.1-0.6-0.2-1.3-0.3-1.9c0-0.3-0.1-0.6-0.2-1
			c-0.1-1-0.2-2-0.2-3c-0.2-16.1,12.8-29.2,28.8-29.4c16.1-0.2,29.2,12.8,29.4,28.8l13.4-0.1C191,31.3,171.7,12.4,148.2,12.7z"/>
		<path fill="#EB3D00" d="M127.2,74.8c-0.3-0.3-0.6-0.6-0.8-1C126.6,74.2,126.9,74.5,127.2,74.8z"/>
		<path fill="#EB3D00" d="M122.5,67.9c-0.2-0.4-0.4-0.7-0.5-1.1C122.1,67.1,122.3,67.5,122.5,67.9z"/>
		<path fill="#EB3D00" d="M123.8,70.4c-0.2-0.4-0.4-0.7-0.7-1.1C123.4,69.7,123.6,70,123.8,70.4z"/>
		<path fill="#EB3D00" d="M125.4,72.7c-0.3-0.3-0.5-0.7-0.8-1C124.9,72,125.2,72.4,125.4,72.7z"/>
	</g>
	<g>
		<path fill="#00BCD4" d="M46.3,153.2c-1-0.2-1.9-0.4-2.9-0.7C44.4,152.7,45.4,153,46.3,153.2z"/>
		<path fill="#00BCD4" d="M53.3,153.7c0.2,0,0.5,0,0.7,0l0,0C53.8,153.7,53.6,153.7,53.3,153.7z"/>
		<path fill="#00BCD4" d="M49.2,153.6c-0.6-0.1-1.3-0.2-1.9-0.3C47.9,153.4,48.6,153.5,49.2,153.6z"/>
		<path fill="#00BCD4" d="M52.1,153.8c-0.6,0-1.1,0-1.7-0.1C50.9,153.7,51.5,153.8,52.1,153.8z"/>
		<path fill="#00BCD4" d="M66.9,149.9C66.9,149.9,66.9,149.9,66.9,149.9l4.3,13.2c0,0,0,0,0,0L66.9,149.9z"/>
		<path fill="#00BCD4" d="M53.3,153.7c-0.4,0-0.8,0-1.2,0C52.5,153.8,52.9,153.7,53.3,153.7z"/>
		<path fill="#00BCD4" d="M47.3,153.3c-0.3-0.1-0.6-0.1-1-0.2C46.7,153.2,47,153.3,47.3,153.3z"/>
		<path fill="#00BCD4" d="M50.4,153.7c-0.4,0-0.8,0-1.1-0.1C49.6,153.7,50,153.7,50.4,153.7z"/>
		<path fill="#00BCD4" d="M54.1,153.7c0.3,0,0.6,0,0.9-0.1C54.6,153.7,54.3,153.7,54.1,153.7L54.1,153.7z"/>
		<path fill="#00BCD4" d="M63.1,151.6c-0.5,0.2-0.9,0.4-1.4,0.5C62.1,152,62.6,151.8,63.1,151.6z"/>
		<path fill="#00BCD4" d="M66.3,150.1c-0.1,0-0.1,0.1-0.2,0.1c-0.6,0.3-1.2,0.6-1.9,0.9c0.3-0.1,0.5-0.2,0.8-0.4
			c0.1-0.1,0.3-0.1,0.4-0.2c0.2-0.1,1.2-0.6,1.5-0.7l0-0.1C66.7,149.9,66.5,150,66.3,150.1z"/>
		<path fill="#00BCD4" d="M60.4,152.5c-0.5,0.1-1,0.3-1.5,0.4C59.4,152.8,59.9,152.7,60.4,152.5z"/>
		<path fill="#00BCD4" d="M57.7,153.2c-0.5,0.1-1,0.2-1.6,0.2C56.7,153.4,57.2,153.3,57.7,153.2z"/>
		<path fill="#00BCD4" d="M104.5,231.1c-1.2-2.8-3.3-5.3-6-7.2c-2.6-1.8-5.5-2.7-8.4-2.9l-18.8-57.9l-4.3-13.2
			c-0.2,0.1-1.3,0.6-1.5,0.7c-0.1,0.1-0.3,0.1-0.4,0.2c-0.3,0.1-0.5,0.2-0.8,0.4c-0.4,0.2-0.8,0.4-1.2,0.5c-0.5,0.2-0.9,0.4-1.4,0.5
			c-0.4,0.1-0.8,0.3-1.2,0.4c-0.5,0.1-1,0.3-1.5,0.4c-0.4,0.1-0.8,0.2-1.2,0.3c-0.5,0.1-1,0.2-1.6,0.2c-0.4,0.1-0.8,0.1-1.2,0.2
			c-0.3,0-0.6,0-0.9,0.1c-0.2,0-0.5,0-0.7,0c-0.4,0-0.8,0-1.2,0c-0.6,0-1.1,0-1.7-0.1c-0.4,0-0.8,0-1.1-0.1
			c-0.6-0.1-1.3-0.2-1.9-0.3c-0.3-0.1-0.6-0.1-1-0.2c-1-0.2-1.9-0.4-2.9-0.7c-15.3-4.8-23.9-21.2-19-36.5s21.2-23.9,36.5-19l4-12.8
			c-22.4-7-46.3,5.5-53.4,27.8c-7,22.4,5.5,46.3,27.8,53.4c6.1,1.9,12.6,2.3,18.9,1.5l19,58.6c-1,0.9-1.9,1.9-2.7,3.1
			c-5.4,7.8-3.4,18.5,4.5,23.9c7.8,5.4,18.5,3.4,23.9-4.5c0.7-1,1.3-2.1,1.7-3.2C106.5,240.2,106.3,235.3,104.5,231.1z"/>
		<path fill="#00BCD4" d="M64.2,151.1c-0.4,0.2-0.8,0.4-1.2,0.5C63.5,151.5,63.9,151.3,64.2,151.1z"/>
		<path fill="#00BCD4" d="M56.2,153.5c-0.4,0.1-0.8,0.1-1.2,0.2C55.3,153.6,55.7,153.5,56.2,153.5z"/>
		<path fill="#00BCD4" d="M58.9,152.9c-0.4,0.1-0.8,0.2-1.2,0.3C58.1,153.1,58.5,153,58.9,152.9z"/>
		<path fill="#00BCD4" d="M61.6,152.1c-0.4,0.1-0.8,0.3-1.2,0.4C60.8,152.4,61.2,152.3,61.6,152.1z"/>
	</g>
</g>
</svg>
