<?xml version="1.0" encoding="UTF-8" standalone="no"?>
<svg width="57px" height="57px" viewBox="0 0 57 57" version="1.1" xmlns="http://www.w3.org/2000/svg" xmlns:xlink="http://www.w3.org/1999/xlink" xmlns:sketch="http://www.bohemiancoding.com/sketch/ns">
    <!-- Generator: Sketch 3.2.2 (9983) - http://www.bohemiancoding.com/sketch -->
    <title>Oval 3 + Connect Icon</title>
    <desc>Created with Sketch.</desc>
    <defs></defs>
    <g id="Page-1" stroke="none" stroke-width="1" fill="none" fill-rule="evenodd" sketch:type="MSPage">
        <g id="Flat-1" sketch:type="MSArtboardGroup" transform="translate(-112.000000, -896.000000)">
            <g id="Oval-3-+-Connect-Icon" sketch:type="MSLayerGroup" transform="translate(113.980469, 897.500010)">
                <circle id="Oval-3" stroke="#979797" stroke-width="2" sketch:type="MSShapeGroup" cx="27" cy="27" r="27"></circle>
                <path d="M39.085,14.1197727 L38.9704545,14.0052273 C36.2959091,11.3315909 31.9195455,11.3315909 29.245,14.0052273 L23.0486364,20.2015909 C20.3740909,22.8761364 20.3740909,27.2506818 23.0486364,29.9261364 L23.1631818,30.0406818 C23.3859091,30.2634091 23.6222727,30.4643182 23.8659091,30.6506818 L26.1340909,28.3815909 C25.8695455,28.2261364 25.6195455,28.0397727 25.3922727,27.8115909 L25.2777273,27.6979545 C23.8259091,26.2461364 23.8259091,23.8825 25.2777273,22.4315909 L31.4740909,16.2343182 C32.925,14.7825 35.2886364,14.7825 36.7404545,16.2343182 L36.855,16.3488636 C38.3059091,17.8006818 38.3059091,20.1643182 36.855,21.6152273 L34.0513636,24.4188636 C34.5377273,25.6206818 34.7686364,26.9015909 34.7486364,28.1797727 L39.0840909,23.8434091 C41.7586364,21.1697727 41.7586364,16.7925 39.085,14.1197727 L39.085,14.1197727 Z M29.9268182,23.0479545 C29.7040909,22.8252273 29.4677273,22.6234091 29.2240909,22.4388636 L26.9559091,24.7079545 C27.2204545,24.8634091 27.4704545,25.0497727 27.6977273,25.2770455 L27.8113636,25.3915909 C29.2640909,26.8434091 29.2640909,29.2061364 27.8113636,30.6579545 L21.6159091,36.8552273 C20.1640909,38.3070455 17.8013636,38.3070455 16.3495455,36.8552273 L16.235,36.7406818 C14.7831818,35.2888636 14.7831818,32.9252273 16.235,31.4743182 L19.0386364,28.6706818 C18.5522727,27.4697727 18.3213636,26.1879545 18.3413636,24.9097727 L14.0059091,29.2452273 C11.3313636,31.9197727 11.3313636,36.2970455 14.0059091,38.9706818 L14.1204545,39.0852273 C16.795,41.7597727 21.1713636,41.7597727 23.8459091,39.0852273 L30.0422727,32.8897727 C32.7168182,30.2143182 32.7168182,25.8379545 30.0422727,23.1634091 L29.9268182,23.0479545 L29.9268182,23.0479545 Z" id="Connect-Icon" fill="#7E7E7E" sketch:type="MSShapeGroup"></path>
            </g>
        </g>
    </g>
</svg>