<?xml version="1.0" encoding="UTF-8"?>
<svg width="643px" height="550px" viewBox="0 0 643 550" version="1.1" xmlns="http://www.w3.org/2000/svg" xmlns:xlink="http://www.w3.org/1999/xlink">
    <!-- Generator: Sketch 47.1 (45422) - http://www.bohemiancoding.com/sketch -->
    <title>Group 40</title>
    <desc>Created with Sketch.</desc>
    <defs>
        <polygon id="path-1" points="3.66603721e-15 59.590629 3.66603721e-15 0.494337048 82.2518928 0.494337048 82.2518928 59.590629"></polygon>
        <polygon id="path-3" points="3.66603721e-15 59.4097477 3.66603721e-15 0.313455718 82.2518928 0.313455718 82.2518928 59.4097477"></polygon>
    </defs>
    <g id="Fastlane-HP-Build" stroke="none" stroke-width="1" fill="none" fill-rule="evenodd">
        <g id="Fastlane-Build" transform="translate(-763.000000, -2464.000000)">
            <g id="Distribute" transform="translate(-50.000000, 2246.000000)">
                <g id="Group-40" transform="translate(815.000000, 219.000000)">
                    <g id="Page-1" transform="translate(153.000000, 0.000000)">
                        <polygon id="Fill-1" fill="#5407CD" points="129.023438 410.332031 137.710938 548.066406 341.40625 548.066406 299.1221 343.9395 251.382813 160.330078"></polygon>
                        <g id="Group-22" transform="translate(0.000000, 0.801000)">
                            <path d="M230.1201,420.0773 L113.8901,420.0773 C94.6401,420.0773 78.8901,404.3273 78.8901,385.0773 L78.8901,60.1583 C78.8901,40.9083 94.6401,25.1583 113.8901,25.1583 L230.1201,25.1583 C249.3701,25.1583 265.1201,40.9083 265.1201,60.1583 L265.1201,385.0773 C265.1201,404.3273 249.3701,420.0773 230.1201,420.0773" id="Fill-2" fill="#FFFFFF" opacity="0.311594203"></path>
                            <path d="M218.3807,401.4519 L102.1507,401.4519 C82.9007,401.4519 67.1507,385.7019 67.1507,366.4519 L67.1507,41.5329 C67.1507,22.2829 82.9007,6.5329 102.1507,6.5329 L218.3807,6.5329 C237.6307,6.5329 253.3807,22.2829 253.3807,41.5329 L253.3807,366.4519 C253.3807,385.7019 237.6307,401.4519 218.3807,401.4519" id="Fill-4" fill="#0082FF"></path>
                            <path d="M229.8387,370.5324 L65.1717,370.5324 C62.4217,370.5324 60.1717,368.2824 60.1717,365.5324 L60.1717,52.1994 C60.1717,49.4494 62.4217,47.1994 65.1717,47.1994 L229.8387,47.1994 C232.5887,47.1994 234.8387,49.4494 234.8387,52.1994 L234.8387,365.5324 C234.8387,368.2824 232.5887,370.5324 229.8387,370.5324 Z" id="Stroke-6" stroke="#FEFEFE" stroke-width="4"></path>
                            <path d="M214.911,312 L195,312 L192.791,312 C174.56,313.228 160,328.493 160,347 C160,365.51 174.56,380.774 192.791,381.925 L195,382.003 L214.911,382.003 L278.792,382.003 L278.792,312 L214.911,312 Z" id="Fill-8" fill="#5407CD"></path>
                            <path d="M209.6922,412.744 L85.1512,412.744 C65.9012,412.744 50.1512,396.994 50.1512,377.744 L50.1512,35.199 C50.1512,15.949 65.9012,0.199 85.1512,0.199 L209.6922,0.199 C228.9422,0.199 244.6922,15.949 244.6922,35.199 L244.6922,377.744 C244.6922,396.994 228.9422,412.744 209.6922,412.744 Z" id="Stroke-10" stroke="#FEFEFE" stroke-width="4"></path>
                            <path d="M32.765822,179.7374 C20.7333338,179.7374 10.8893775,167.177811 10.8893775,151.825946 C10.8893775,136.472948 20.7333338,123.91336 32.765822,123.91336 L60.2094444,123.91336 C72.2419326,123.91336 82.0858889,136.472948 82.0858889,151.824813 C82.0858889,167.177811 72.2419326,179.7374 60.2094444,179.7374 L32.765822,179.7374 Z" id="Fill-12" fill="#5407CD" transform="translate(46.487633, 151.825380) rotate(14.000000) translate(-46.487633, -151.825380) "></path>
                            <g id="Group-16" transform="translate(48.494678, 208.322585) rotate(14.000000) translate(-48.494678, -208.322585) translate(6.994678, 178.322585)">
                                <mask id="mask-2" fill="white">
                                    <use xlink:href="#path-1"></use>
                                </mask>
                                <g id="Clip-15"></g>
                                <path d="M60.128575,59.590629 L22.1231383,59.590629 C9.95576225,59.590629 -0.000179499536,46.2948324 -0.000179499536,30.0430824 L-0.000179499536,30.0418837 C-0.000179499536,13.7901337 9.95576225,0.494337048 22.1231383,0.494337048 L60.128575,0.494337048 C72.2968485,0.494337048 82.2518928,13.7901337 82.2518928,30.0418837 L82.2518928,30.0430824 C82.2518928,46.2948324 72.2968485,59.590629 60.128575,59.590629" id="Fill-14" fill="#5407CD" mask="url(#mask-2)"></path>
                            </g>
                            <g id="Group-19" transform="translate(48.494678, 265.859390) rotate(14.000000) translate(-48.494678, -265.859390) translate(6.994678, 235.859390)">
                                <mask id="mask-4" fill="white">
                                    <use xlink:href="#path-3"></use>
                                </mask>
                                <g id="Clip-18"></g>
                                <path d="M60.128575,59.4097477 L22.1231383,59.4097477 C9.95576225,59.4097477 -0.000179499536,46.1139511 -0.000179499536,29.8622011 L-0.000179499536,29.8610024 C-0.000179499536,13.6092524 9.95576225,0.313455718 22.1231383,0.313455718 L60.128575,0.313455718 C72.2968485,0.313455718 82.2518928,13.6092524 82.2518928,29.8610024 L82.2518928,29.8622011 C82.2518928,46.1139511 72.2968485,59.4097477 60.128575,59.4097477" id="Fill-17" fill="#5407CD" mask="url(#mask-4)"></path>
                            </g>
                            <path d="M26.0897765,338.712521 C18.242432,338.712521 11.8224036,328.042584 11.8224036,315.000481 C11.8224036,301.957416 18.242432,291.287479 26.0897765,291.287479 L59.1067348,291.287479 C66.9535005,291.287479 73.3741078,301.957416 73.3741078,314.999519 C73.3741078,328.042584 66.9535005,338.712521 59.1067348,338.712521 L26.0897765,338.712521 Z" id="Fill-20" fill="#5407CD" transform="translate(42.598256, 315.000000) rotate(14.000000) translate(-42.598256, -315.000000) "></path>
                        </g>
                    </g>
                    <path d="M31.4846496,361 C34.704735,361 37.3393504,358.3 37.3393504,355 C37.3393504,351.7 34.704735,349 31.4846496,349 L29.8547009,349 C26.6346154,349 24,351.7 24,355 C24,358.3 26.6346154,361 29.8547009,361 L31.4846496,361 Z" id="Fill-5" fill="#C400FF"></path>
                    <path d="M607.854701,125 L609.48465,125 C612.704735,125 615.33935,122.3 615.33935,119 L615.33935,119 C615.33935,115.7 612.704735,113 609.48465,113 L607.854701,113 C604.634615,113 602,115.7 602,119 L602,119 C602,122.3 604.634615,125 607.854701,125" id="Fill-5" fill="#00FF00"></path>
                    <polygon id="Page-1" stroke="#C400FF" stroke-width="3" points="464 154 464 235.687374 511.289466 235.687374 526.749438 251.592696 542.185847 235.687374 589.498876 235.687374 589.498876 154"></polygon>
                    <polygon id="Page-1" fill="#C400FF" opacity="0.511831975" points="539 213 539 279.275035 577.367141 279.275035 589.910208 292.179425 602.434158 279.275035 640.820417 279.275035 640.820417 213"></polygon>
                    <polygon id="Page-1" stroke="#00FF00" stroke-width="3" points="0 125 0 206.687374 47.2894658 206.687374 62.7494382 222.592696 78.1858471 206.687374 125.498876 206.687374 125.498876 125"></polygon>
                    <polygon id="Page-1" fill="#0082FF" opacity="0.511831975" points="66 51 66 89.9371833 88.5410428 89.9371833 95.9102083 97.5186293 103.268142 89.9371833 125.820417 89.9371833 125.820417 51"></polygon>
                    <polygon id="Page-1" fill="#0082FF" opacity="0.511831975" points="75 245 75 283.937183 97.5410428 283.937183 104.910208 291.518629 112.268142 283.937183 134.820417 283.937183 134.820417 245"></polygon>
                </g>
            </g>
        </g>
    </g>
</svg>