<?xml version="1.0" encoding="UTF-8"?>
<svg width="40px" height="25px" viewBox="0 0 40 25" version="1.1" xmlns="http://www.w3.org/2000/svg" xmlns:xlink="http://www.w3.org/1999/xlink">
    <!-- Generator: Sketch 47.1 (45422) - http://www.bohemiancoding.com/sketch -->
    <title>people</title>
    <desc>Created with Sketch.</desc>
    <defs></defs>
    <g id="Fastlane-HP-Build" stroke="none" stroke-width="1" fill="none" fill-rule="evenodd" stroke-linejoin="round">
        <g id="icons" transform="translate(-120.000000, -334.000000)" stroke="#FFFFFF">
            <g id="people" transform="translate(121.000000, 334.000000)">
                <path d="M28.3093,15.9176 C28.1433,14.0586 24.1063,12.5696 19.1373,12.5696 C14.1683,12.5696 10.1313,14.0586 9.9653,15.9176 L9.9503,15.9176 L9.9503,24.2306 L28.3253,24.2306 L28.3253,15.9176 L28.3093,15.9176 Z" id="Stroke-1"></path>
                <path d="M15.8917,13.1205 C15.7397,11.7385 12.3607,10.6325 8.2037,10.6325 C4.0377,10.6325 0.6517,11.7435 0.5137,13.1295 L0.4997,13.1295 L0.4997,19.3275 L9.7817,19.3275" id="Stroke-3"></path>
                <path d="M22.6003,13.1205 C22.7523,11.7385 26.1313,10.6325 30.2883,10.6325 C34.4543,10.6325 37.8403,11.7435 37.9783,13.1295 L37.9923,13.1295 L37.9923,19.3275 L28.7103,19.3275" id="Stroke-5"></path>
                <path d="M23.6588,5.0213 C23.6588,7.5183 21.6348,9.5423 19.1378,9.5423 C16.6408,9.5423 14.6158,7.5183 14.6158,5.0213 C14.6158,2.5243 16.6408,0.5003 19.1378,0.5003 C21.6348,0.5003 23.6588,2.5243 23.6588,5.0213 Z" id="Stroke-7"></path>
                <path d="M33.9189,4.1698 C33.9189,6.1708 32.2969,7.7928 30.2959,7.7928 C28.2949,7.7928 26.6729,6.1708 26.6729,4.1698 C26.6729,2.1688 28.2949,0.5468 30.2959,0.5468 C32.2969,0.5468 33.9189,2.1688 33.9189,4.1698 Z" id="Stroke-9"></path>
                <path d="M11.8186,4.1698 C11.8186,6.1708 10.1966,7.7928 8.1956,7.7928 C6.1946,7.7928 4.5726,6.1708 4.5726,4.1698 C4.5726,2.1688 6.1946,0.5468 8.1956,0.5468 C10.1966,0.5468 11.8186,2.1688 11.8186,4.1698 Z" id="Stroke-11"></path>
            </g>
        </g>
    </g>
</svg>