<svg id="Layer_1" data-name="Layer 1" xmlns="http://www.w3.org/2000/svg" width="30.2" height="23.75" viewBox="0 0 30.2 23.75"><defs><style>.cls-1{isolation:isolate;}.cls-2{fill:#00e5ed;}</style></defs><title>quotation-mark</title><g id="Fastlane-HP-Build"><g id="Fastlane-Build"><g id="Animate-_how-it-works_" data-name="Animate-&quot;how-it-works&quot;"><g id="Tweets"><g id="Group-49"><g id="_" data-name="“" class="cls-1"><g class="cls-1"><path class="cls-2" d="M11,23.75H0V15.9A26.74,26.74,0,0,1,.84,8.38,11.47,11.47,0,0,1,3.95,3.44,15.82,15.82,0,0,1,9.73,0l2.15,4.53a9.23,9.23,0,0,0-4.71,3,9,9,0,0,0-1.5,5.2H11Zm18.32,0h-11V15.9a26.71,26.71,0,0,1,.84-7.54,11.42,11.42,0,0,1,3.13-4.92A16.06,16.06,0,0,1,28,0L30.2,4.53a9.23,9.23,0,0,0-4.71,3,9,9,0,0,0-1.5,5.2H29.3Z"/></g></g></g></g></g></g></g></svg>
