<?xml version="1.0" encoding="UTF-8"?>
<svg width="629px" height="583px" viewBox="0 0 629 583" version="1.1" xmlns="http://www.w3.org/2000/svg" xmlns:xlink="http://www.w3.org/1999/xlink">
    <!-- Generator: Sketch 47.1 (45422) - http://www.bohemiancoding.com/sketch -->
    <title>Group 43</title>
    <desc>Created with Sketch.</desc>
    <defs></defs>
    <g id="Fastlane-HP-Build" stroke="none" stroke-width="1" fill="none" fill-rule="evenodd">
        <g id="Fastlane-Build" transform="translate(-765.000000, -1556.000000)">
            <g id="Screenshots" transform="translate(-57.000000, 1359.000000)">
                <g id="Group-74" transform="translate(170.000000, 137.000000)">
                    <g id="Group-43" transform="translate(652.000000, 56.000000)">
                        <path d="M246.763539,228.026115 C246.763539,228.026115 372.273897,153.121682 623.294612,3.31281651 L624.933303,106.505144 L630.196649,437.950713 C374.574576,298.000981 246.763539,228.026115 246.763539,228.026115 Z" id="Path-3" stroke="#5660FE" stroke-width="3" transform="translate(438.480094, 220.631765) rotate(1.000000) translate(-438.480094, -220.631765) "></path>
                        <g id="Group-28" transform="translate(0.000000, 32.000000)">
                            <path d="M465.166862,472.941983 L329.771277,472.941983 C307.347074,472.941983 289,454.598763 289,432.179271 L289,53.7627119 C289,31.3432203 307.347074,13 329.771277,13 L465.166862,13 C487.591064,13 505.938138,31.3432203 505.938138,53.7627119 L505.938138,432.179271 C505.938138,454.598763 487.591064,472.941983 465.166862,472.941983" id="Fill-1" fill="#00F200"></path>
                            <polygon id="Fill-7" fill="#0081FF" transform="translate(242.500000, 456.083442) scale(-1, 1) rotate(-180.000000) translate(-242.500000, -456.083442) " points="0 554.166884 485 358 485 554.166884"></polygon>
                            <path d="M452.166862,459.941983 L316.771277,459.941983 C294.347074,459.941983 276,441.598763 276,419.179271 L276,40.7627119 C276,18.3432203 294.347074,0 316.771277,0 L452.166862,0 C474.591064,0 492.938138,18.3432203 492.938138,40.7627119 L492.938138,419.179271 C492.938138,441.598763 474.591064,459.941983 452.166862,459.941983" id="Fill-3" fill="#090A49"></path>
                            <path d="M438.74937,462.206034 L299.870199,462.206034 C278.403983,462.206034 260.840715,444.646528 260.840715,423.18491 L260.840715,41.2851744 C260.840715,19.8235564 278.403983,2.26405085 299.870199,2.26405085 L438.74937,2.26405085 C460.215586,2.26405085 477.778854,19.8235564 477.778854,41.2851744 L477.778854,423.18491 C477.778854,444.646528 460.215586,462.206034 438.74937,462.206034 Z" id="Stroke-5" stroke="#FFFFFF" stroke-width="4"></path>
                            <g id="Group-20" transform="translate(271.370784, 53.956899)">
                                <path d="M189.538645,361.187876 L5.91384365,361.187876 C2.84724134,361.187876 0.338203081,358.679375 0.338203081,355.61343 L0.338203081,6.28183858 C0.338203081,3.21589316 2.84724134,0.707392358 5.91384365,0.707392358 L189.538645,0.707392358 C192.605247,0.707392358 195.114285,3.21589316 195.114285,6.28183858 L195.114285,355.61343 C195.114285,358.679375 192.605247,361.187876 189.538645,361.187876 Z" id="Stroke-9" stroke="#FEFEFE" stroke-width="4"></path>
                                <g id="Group-14" transform="translate(28.718368, 244.105116)" fill="#2C30BF" opacity="0.5">
                                    <rect id="Rectangle-12" x="0" y="0" width="144.449796" height="10.1797111" rx="5.08985553"></rect>
                                    <rect id="Rectangle-12" x="0" y="21.8136666" width="76.5583917" height="10.1797111" rx="5.08985553"></rect>
                                    <rect id="Rectangle-12" transform="translate(114.115339, 26.903522) scale(-1, 1) translate(-114.115339, -26.903522) " x="83.7808815" y="21.8136666" width="60.6689142" height="10.1797111" rx="5.08985553"></rect>
                                    <rect id="Rectangle-12" x="0" y="43.6273331" width="31.7789551" height="10.1797111" rx="5.08985553"></rect>
                                    <rect id="Rectangle-12" transform="translate(83.058633, 48.717189) scale(-1, 1) translate(-83.058633, -48.717189) " x="39.0014448" y="43.6273331" width="88.1143754" height="10.1797111" rx="5.08985553"></rect>
                                    <rect id="Rectangle-12" x="134.33831" y="43.6273331" width="10.1114857" height="10.1797111" rx="5.05574285"></rect>
                                </g>
                                <g id="Group-15" transform="translate(34.462041, 45.949198)">
                                    <g id="Group" transform="translate(69.203311, 63.817288) rotate(-165.000000) translate(-69.203311, -63.817288) translate(11.203311, 13.317288)" stroke="#1054EB" fill="#3E3EF8">
                                        <path d="M0.00340192325,0.770703165 L0.00340192325,67.2992054 L58.4947474,34.0349543 L0.00340192325,0.770703165 Z M1.23914328,2.89222318 L56.0010213,34.0349543 L1.23914328,65.1776854 L1.23914328,2.89222318 Z" id="Fill-1" fill-opacity="0.9"></path>
                                        <path d="M57.0116645,33.9334268 L115.504246,67.1976779 L115.504246,0.669175673 L57.0116645,33.9334268 Z M59.5066263,33.9334268 L114.268504,2.79069569 L114.268504,65.0761579 L59.5066263,33.9334268 Z" id="Fill-8"></path>
                                        <path d="M57.2592532,100.152458 L115.751834,66.8882071 L57.2592532,33.623956 L57.2592532,100.152458 Z M58.4949945,35.745476 L113.256873,66.8882071 L58.4949945,98.0309382 L58.4949945,35.745476 Z" id="Fill-9" opacity="0.5"></path>
                                    </g>
                                    <ellipse id="Oval-2" fill="#00FE00" opacity="0.987149004" cx="46.5755698" cy="126.947694" rx="6.05560244" ry="6.0451283"></ellipse>
                                </g>
                            </g>
                            <path d="M438.74937,462.206034 L299.870199,462.206034 C278.403983,462.206034 260.840715,444.646528 260.840715,423.18491 L260.840715,41.2851744 C260.840715,19.8235564 278.403983,2.26405085 299.870199,2.26405085 L438.74937,2.26405085 C460.215586,2.26405085 477.778854,19.8235564 477.778854,41.2851744 L477.778854,423.18491 C477.778854,444.646528 460.215586,462.206034 438.74937,462.206034 Z" id="Stroke-5" stroke="#FFFFFF" stroke-width="4"></path>
                        </g>
                    </g>
                </g>
            </g>
        </g>
    </g>
</svg>