<?xml version="1.0" encoding="UTF-8" standalone="no"?>
<svg width="57px" height="57px" viewBox="0 0 57 57" version="1.1" xmlns="http://www.w3.org/2000/svg" xmlns:xlink="http://www.w3.org/1999/xlink" xmlns:sketch="http://www.bohemiancoding.com/sketch/ns">
    <!-- Generator: Sketch 3.2.2 (9983) - http://www.bohemiancoding.com/sketch -->
    <title>Oval 3 + Extend Icon</title>
    <desc>Created with Sketch.</desc>
    <defs></defs>
    <g id="Page-1" stroke="none" stroke-width="1" fill="none" fill-rule="evenodd" sketch:type="MSPage">
        <g id="Flat-1" sketch:type="MSArtboardGroup" transform="translate(-112.000000, -1146.000000)">
            <g id="Oval-3-+-Extend-Icon" sketch:type="MSLayerGroup" transform="translate(113.980469, 1147.500010)">
                <circle id="Oval-3" stroke="#979797" stroke-width="2" sketch:type="MSShapeGroup" cx="27" cy="27" r="27"></circle>
                <path d="M40.1515152,13 L40.1515152,23.5 L36.4852121,19.719125 L30.864,25.516 L28.0147879,22.57775 L33.636,16.780875 L29.969697,13 L40.1515152,13 L40.1515152,13 Z M19.5155152,16.780875 L25.1367273,22.57775 L22.2875152,25.516 L16.666303,19.719125 L13,23.5 L13,13 L23.1818182,13 L19.5155152,16.780875 L19.5155152,16.780875 Z M36.4852121,34.280875 L40.1515152,30.5 L40.1515152,41 L29.969697,41 L33.636,37.219125 L28.0147879,31.42225 L30.864,28.484 L36.4852121,34.280875 L36.4852121,34.280875 Z M25.1367273,31.42225 L19.5155152,37.219125 L23.1818182,41 L13,41 L13,30.5 L16.666303,34.280875 L22.2875152,28.484 L25.1367273,31.42225 L25.1367273,31.42225 Z" id="Extend-Icon" fill="#7E7E7E" sketch:type="MSShapeGroup"></path>
            </g>
        </g>
    </g>
</svg>