<?xml version="1.0" encoding="UTF-8" standalone="no"?>
<svg width="57px" height="57px" viewBox="0 0 57 57" version="1.1" xmlns="http://www.w3.org/2000/svg" xmlns:xlink="http://www.w3.org/1999/xlink" xmlns:sketch="http://www.bohemiancoding.com/sketch/ns">
    <!-- Generator: Sketch 3.2.2 (9983) - http://www.bohemiancoding.com/sketch -->
    <title>Oval 3 + Extend Icon + Imported Layers</title>
    <desc>Created with Sketch.</desc>
    <defs></defs>
    <g id="Page-1" stroke="none" stroke-width="1" fill="none" fill-rule="evenodd" sketch:type="MSPage">
        <g id="Flat-1" sketch:type="MSArtboardGroup" transform="translate(-112.000000, -1233.000000)">
            <g id="Oval-3-+-Extend-Icon-+-Imported-Layers" sketch:type="MSLayerGroup" transform="translate(113.000000, 1234.000000)">
                <g id="Oval-3-+-Extend-Icon" transform="translate(0.980469, 0.500010)" stroke="#979797" stroke-width="2" sketch:type="MSShapeGroup">
                    <circle id="Oval-3" cx="27" cy="27" r="27"></circle>
                </g>
                <path d="M14.4067879,35.364125 L26.6181818,24.570125 C26.049697,23.467625 25.7272727,22.21025 25.7272727,20.875 C25.7272727,16.525375 29.1458182,13 33.3636364,13 C34.1349091,13 34.8798788,13.118125 35.5815758,13.33775 L31.1694545,17.88775 C30.5093333,18.5685 30.5093333,19.682375 31.1694545,20.36225 L33.8608485,23.13775 C34.5209697,23.8185 35.6010909,23.8185 36.2603636,23.13775 L40.6724848,18.58775 C40.8854545,19.311375 41,20.079625 41,20.875 C41,25.224625 37.5814545,28.75 33.3636364,28.75 C32.0688485,28.75 30.8495758,28.4175 29.7813333,27.830375 L19.3144242,40.423375 C18.7069091,41.154 17.6700606,41.195125 17.0099394,40.514375 L14.3185455,37.738875 C13.6584242,37.059875 13.698303,35.98975 14.4067879,35.364125" id="Imported-Layers" fill="#7E7E7E" sketch:type="MSShapeGroup"></path>
            </g>
        </g>
    </g>
</svg>