<?xml version="1.0" encoding="UTF-8" standalone="no"?>
<svg width="57px" height="57px" viewBox="0 0 57 57" version="1.1" xmlns="http://www.w3.org/2000/svg" xmlns:xlink="http://www.w3.org/1999/xlink" xmlns:sketch="http://www.bohemiancoding.com/sketch/ns">
    <!-- Generator: Sketch 3.2.2 (9983) - http://www.bohemiancoding.com/sketch -->
    <title>Oval 9 + Fill 15</title>
    <desc>Created with Sketch.</desc>
    <defs></defs>
    <g id="Page-1" stroke="none" stroke-width="1" fill="none" fill-rule="evenodd" sketch:type="MSPage">
        <g id="Flat-1" sketch:type="MSArtboardGroup" transform="translate(-111.000000, -1481.000000)">
            <g id="Oval-9-+-Fill-15" sketch:type="MSLayerGroup" transform="translate(112.000000, 1482.000000)">
                <circle id="Oval-9" stroke="#979797" stroke-width="2" sketch:type="MSShapeGroup" cx="27.9804688" cy="27.5019636" r="27"></circle>
                <path d="M27.9806028,11.7140359 C19.0415912,11.7140359 11.7929688,18.9613181 11.7929688,27.90167 C11.7929688,35.0537906 16.4312186,41.1216068 22.8630609,43.2620695 C23.6720673,43.4119153 23.9690783,42.9109103 23.9690783,42.4833539 C23.9690783,42.0973468 23.9540669,40.8221833 23.9470973,39.4695503 C19.4436819,40.4487751 18.4934076,37.5596197 18.4934076,37.5596197 C17.7570455,35.6885578 16.6960623,35.1910376 16.6960623,35.1910376 C15.2273591,34.1863471 16.8067713,34.2069877 16.8067713,34.2069877 C18.4322898,34.3211815 19.2882068,35.8751278 19.2882068,35.8751278 C20.7319803,38.3498619 23.0750967,37.6344085 23.998833,37.2207913 C24.1441217,36.1745514 24.5636363,35.4604383 25.0265767,35.0562032 C21.431082,34.6468749 17.6514297,33.2588579 17.6514297,27.0562073 C17.6514297,25.2888848 18.2837843,23.8448432 19.3193018,22.7112156 C19.1512279,22.3034957 18.597147,20.6570684 19.4761172,18.4273417 C19.4761172,18.4273417 20.8354517,17.9922796 23.9288692,20.0866358 C25.2201163,19.7279709 26.6049166,19.5481024 27.9806028,19.541937 C29.356289,19.5481024 30.7421615,19.7279709 32.0358212,20.0866358 C35.1254858,17.9922796 36.4829439,18.4273417 36.4829439,18.4273417 C37.3640586,20.6570684 36.8097096,22.3034957 36.6416357,22.7112156 C37.6795657,23.8448432 38.3076313,25.2888848 38.3076313,27.0562073 C38.3076313,33.2736012 34.5207415,34.6425859 30.9161327,35.0433363 C31.4967516,35.5456816 32.0141083,36.5308037 32.0141083,38.0410562 C32.0141083,40.2069846 31.995344,41.9501817 31.995344,42.4833539 C31.995344,42.914127 32.2867257,43.4188848 33.1072588,43.259925 C39.5356162,41.1170498 44.1679688,35.0513781 44.1679688,27.90167 C44.1679688,18.9613181 36.9204186,11.7140359 27.9806028,11.7140359" id="Fill-15" fill="#7E7E7E" sketch:type="MSShapeGroup"></path>
            </g>
        </g>
    </g>
</svg>