<?xml version="1.0" encoding="utf-8"?>
<!-- Generator: Adobe Illustrator 15.1.0, SVG Export Plug-In . SVG Version: 6.00 Build 0)  -->
<!DOCTYPE svg PUBLIC "-//W3C//DTD SVG 1.1//EN" "http://www.w3.org/Graphics/SVG/1.1/DTD/svg11.dtd">
<svg version="1.1" id="Layer_1" xmlns:sketch="http://www.bohemiancoding.com/sketch/ns"
	 xmlns="http://www.w3.org/2000/svg" xmlns:xlink="http://www.w3.org/1999/xlink" x="0px" y="0px" width="57px" height="57px"
	 viewBox="0 0 57 57" enable-background="new 0 0 57 57" xml:space="preserve">
<title>Oval 3 + Connect Icon</title>
<desc>Created with Sketch.</desc>
<g id="Page-1" sketch:type="MSPage">
	<g id="Flat-1" transform="translate(-112.000000, -896.000000)" sketch:type="MSArtboardGroup">
		<g id="Oval-3-_x2B_-Connect-Icon" transform="translate(113.980469, 897.500010)" sketch:type="MSLayerGroup">
			<circle id="Oval-3" sketch:type="MSShapeGroup" fill="none" stroke="#979797" stroke-width="2" cx="27" cy="27" r="27">
			</circle>
		</g>
	</g>
</g>
<g>
	<defs>
		<circle id="SVGID_1_" cx="28.981" cy="28.498" r="18.153"/>
	</defs>
	<clipPath id="SVGID_2_">
		<use xlink:href="#SVGID_1_"  overflow="visible"/>
	</clipPath>
	<g clip-path="url(#SVGID_2_)">
		<path fill="#7E7E7E" stroke="#7E7E7E" stroke-width="0.75" d="M40.047,22.508c-0.52-0.754-0.875-1.659-1.286-2.513
			c-0.028,0-0.058-0.001-0.087-0.002c-0.058,0.982,0.308,1.573,0.561,2.269c-0.437,0.276-1.29,0.103-1.783,0.32
			C37.415,24.034,39.699,23.317,40.047,22.508z"/>
		<path fill="#7E7E7E" stroke="#7E7E7E" stroke-width="0.75" d="M29.399,22.796c-0.685,1.08,1.335,1.284,2.203,1.027
			c0.237-0.07,0.648-0.426,0.704-0.585c0.241-0.677-0.245-0.973-0.495-1.216c-0.554-0.541-0.682-1.292-1.07-2.007
			c-0.271,0.768,0.463,2.068,0.874,2.727C31.079,23.261,30.116,22.83,29.399,22.796z"/>
		<path fill="#7E7E7E" stroke="#7E7E7E" stroke-width="0.75" d="M38.35,27.283c-0.053-0.328,0.395-0.92,0.271-1.414
			c-0.044-0.171-0.432-0.418-0.666-0.675c-0.958-1.045-2.271-2.605-2.791-3.825c-0.059-0.134-0.093-0.874-0.496-0.582
			c-0.049,1.802,1.29,3.294,2.288,4.497c0.488,0.588,1.076,0.923,0.534,1.836c-0.872,0.332-2.285,1.281-3.498,1.075
			c-0.645-0.11-0.499-0.841-0.729-1.239c-0.444,0.584-0.271,1.468,0.186,1.866C35.588,29.033,37.044,28.122,38.35,27.283z"/>
		<path fill="#7E7E7E" stroke="#7E7E7E" stroke-width="0.75" d="M18.593,25.178c0.22-0.144,0.396-0.552,0.792-0.358
			c-0.347,0.678-0.264,2,0.209,2.428c-0.003-0.805-0.129-2.181,0.559-2.139c0.48,0.029,0.578,1.059,0.987,1.292
			C21.59,24.228,18.876,23.129,18.593,25.178z"/>
		<path fill="#7E7E7E" d="M35.93,30.604c1.783-0.036,2.642-1.312,3.25-2.467c-1.043,0.476-1.885,1.169-3.247,1.3
			C35.865,29.662,35.894,30.229,35.93,30.604z"/>
		<path fill="#7E7E7E" d="M35.494,30.673c-0.002-0.412-0.001-0.831-0.084-1.171c-1.545,0.047-3.635-0.017-4.772-0.616
			C31.158,30.281,33.509,30.771,35.494,30.673z"/>
		<path fill="#7E7E7E" d="M30.422,30.002c-1.006,0-0.158,0.56,0.013,0.777c0.352,0.453,0.766,1.228,1.408,1.566
			c1.015,0.54,3.028,0.314,3.76,0.018c0.271-0.11,0.487-0.413,0.589-0.669C33.912,31.748,31.208,31.976,30.422,30.002z"/>
		<g>
			<path fill="#7E7E7E" stroke="#7E7E7E" stroke-width="0.75" d="M26.534,19.911c0.551-1.229,1.455-2.415,3.276-1.991
				c0.348-0.574-0.276-0.996-0.737-1.065c-1.073-0.162-2.385,1.031-2.711,1.925C26.237,19.122,26.041,19.792,26.534,19.911z"/>
			<path fill="#7E7E7E" stroke="#7E7E7E" stroke-width="0.75" d="M46.303,48.423c-0.193-0.826-0.632-2.179-1.008-2.979
				c-1.016-2.168-4.041-0.808-5.662-0.002c0.786-2.067,1.462-4.211,2.156-6.53c0.207-0.692,0.616-1.679,0.524-2.4
				c-0.086-0.675-1.141-1.387-1.697-1.923c-0.309-0.297-1.748-1.392-1.832-1.8c-0.081-0.396,0.586-1.293,0.802-1.74
				c0.308-0.641,0.529-1.428,0.682-1.962c1.133-3.98,1.246-9.448-0.371-12.72c-0.614-1.24-2.327-2.951-3.398-3.762
				c-2.528-1.911-7.201-2.123-10.248-1.002c-0.849,0.313-1.671,0.592-2.417,1.03c-1.995,1.171-4.112,1.956-4.704,4.312
				c-1.457,0.653-1.897,2.518-1.824,4.683c0.014,0.421,0.243,0.949,0.163,1.347c-0.04,0.201-0.312,0.459-0.368,0.59
				c-0.699,1.666-0.139,3.855,0.668,5.04c0.488,0.715,1.296,1.35,2.362,1.517c0.042,0.639,0.196,1.188,0.491,1.835
				c0.186,0.409,0.883,1.145,0.626,1.665c-0.129,0.265-1.264,0.836-1.64,1.062c-1.27,0.762-2.191,1.229-3.364,2.073
				c-0.759,0.546-1.946,0.616-1.759,1.878c0.126,0.849,0.61,1.903,0.887,2.757c0.3,0.92,0.729,1.763,0.976,2.716
				c0.548,2.13,0.663,4.133,0.796,6.213c0.053,0.812-0.034,1.674,0.177,2.124c0.218,0.465,1.024,0.611,1.608,0.883
				c1.684,0.78,3.471,1.97,5.681,1.732c0.526,1.771,1.025,3.656,1.657,5.208c2.265,0.813,5.84,0.687,8.197,0.404
				c0.714-0.087,1.471-0.439,1.639-1.061c-0.05-0.382-0.106-0.763-0.083-1.214c0.737-0.152,1.739-0.277,1.902-1.094
				c0.228-1.142-0.723-2.78-0.406-4.036c0.426-0.137,0.882-0.245,0.813-0.918c0.718-0.374,1.571-0.457,2.48-0.423
				c0.116,0.228,0.283,0.444,0.434,0.569c1.273,0.255,2.508,0.277,3.565-0.067C46.006,52.036,46.577,49.588,46.303,48.423z
				 M25.377,12.951c0.11-0.03,0.206,0.044,0.297,0.142c-0.013,0.316-0.324,0.31-0.535,0.411c-0.328,0.403-0.807,0.592-1.207,1.034
				c-0.409,0.452-0.867,1.669-1.409,1.803c-0.272,0.068-0.583-0.047-0.82-0.031c-0.627,0.04-1.068,0.36-1.703,0.452
				C20.821,14.968,23.38,13.518,25.377,12.951z M19.066,18.584c0.814-0.896,1.935-1.454,3.301-1.557
				c0.704,1.79-0.505,3.917-0.054,5.875c0.137,0.6,0.614,1.53-0.146,1.55c0.019-1.706-2.097-2.789-3.691-1.786
				C18.368,21.374,18.184,19.555,19.066,18.584z M21.277,30.641c-0.059-0.247-0.162-0.775-0.136-0.913
				c0.096-0.523,1.03-0.754,0.662-1.486c-0.678-0.007-0.83,0.616-1.452,0.678c-1.61,0.159-2.746-2.135-2.673-3.518
				c0.062-1.176,1.057-2.302,2.417-2.153c0.962,0.105,1.289,1.154,1.475,2.088c0.555,0.03,1.355-0.023,1.618-0.456
				c-0.038-1.056-0.528-1.902-0.495-2.872c0.063-1.822,1.057-3.467,0.29-5.261c0.82-1.861,3.225-3.328,5.004-4.215
				c2.206-1.099,5.713-0.22,7.785,0.95c1.19,0.672,2.07,1.97,2.907,3.051c-1.174-0.348-2.174,0.251-1.992,1.219
				c0.983-0.901,2.664-0.009,3.16,0.987c0.476,0.953,0.472,2.365,0.545,3.781c0.177,3.434-0.629,6.979-2.354,9.46
				c-0.46,0.663-0.849,1.389-1.497,1.845c-1.563,1.098-3.941,2.093-5.977,1.41c-2.689-0.903-3.911-2.695-5.39-4.746
				c0.04,1.127,0.833,2.053,1.615,2.915c0.682,0.75,1.505,1.6,2.389,1.95c-0.739-0.174-1.871-0.228-2.179,0.435
				c-1.722-0.114-3.321-0.29-4.136-1.457C22.221,33.413,21.57,31.851,21.277,30.641z M33.61,36.91
				c-1.012,0.051-1.563-0.069-2.308-0.651c0.013-0.047,0.087-0.025,0.09-0.083c1.084,0.482,2.461-0.197,3.555-0.294
				C34.471,36.191,34.068,36.579,33.61,36.91z M32.886,38.913c-0.099-0.563-0.214-0.724-0.169-1.218
				C34.22,36.694,34.501,39.419,32.886,38.913z M32.332,38.72c-0.01,0.215-0.018,0.431-0.026,0.646
				c-0.648,0.444-1.24,1.105-2.004,1.521c-0.36,0.197-1.627,0.704-2.012,0.615c-0.216-0.05-0.236-0.32-0.323-0.574
				c-0.186-0.545-0.611-1.411-0.649-2.23c-0.047-1.034-0.152-2.769,0.964-2.555c0.898,0.172,1.945,0.587,2.642,0.967
				c0.426,0.231,0.672,0.519,1.318,0.569c-0.004,0.087-0.007,0.172-0.01,0.258c-0.354,0.233-0.926,0.23-1.313,0.425
				C31.49,38.389,31.94,38.525,32.332,38.72z M24.418,46.624c-0.318-0.493-0.19-1.254-0.224-2.039
				c-0.037-0.854,0.318-2.778-0.017-2.897c-0.379-0.135-0.451,0.635-0.463,0.803c-0.072,0.9,0.428,2.811-0.064,3.887
				c-0.539-0.152-0.806-0.557-1.311-0.74c-0.199,0.623,0.411,0.654,0.348,1.05c-0.082,0.526-1.076,0.086-1.07,0.866
				c0.647,0.104,1.639-0.201,2.33,0.09c0.181,2.123,0.472,4.131,0.79,6.383c-2.752-0.142-4.532-1.509-6.56-2.456
				c-0.127-4.485-0.841-9.14-2.611-12.938c1.856-1.432,3.935-2.948,6.156-3.824c0.168-0.065,1.396,1.53,1.578,1.661
				c0.995,0.706,2.231,1.264,3.387,1.815c0.07,0.53,0.234,1.218,0.522,2.138c0.316,1.017,0.579,2.45,1.921,1.717
				c-0.128,0.579-0.873,0.939-0.667,1.617c0.129,0.424,1.538,0.949,1.985,1.199c0.824,0.466,1.575,0.724,2.209,0.994
				C29.779,46.028,27.077,46.262,24.418,46.624z M29.259,43.268c0.299-1.291,1.465-1.958,2.523-2.668
				c1.094,1.387,1.758,3.172,2.49,4.895C32.544,44.971,30.775,44.126,29.259,43.268z M34.645,38.118
				c0.25-0.182,0.669-0.18,1.047-0.22c-0.328-0.16-0.786-0.224-1.162-0.131c-0.009-0.255-0.124-0.413-0.192-0.614
				c0.636-0.226,2.139-1.717,2.985-1.223c0.403,0.235,0.574,1.576,0.605,2.227c0.026,0.542-0.049,1.086-0.27,1.373
				c-1.133-0.032-2.157-0.168-3.052-0.42C34.667,38.741,34.553,38.383,34.645,38.118z M38.254,40.893
				c-0.923,1.582-1.806,3.204-2.901,4.6c0.46-1.349,0.657-3.61,0.725-5.331C37.038,39.71,37.86,40.262,38.254,40.893z
				 M35.249,52.663c-0.142-1.829-0.247-3.631-0.223-5.454c0.497-0.166,0.937-0.156,1.434-0.162c0.431,1.557,0.404,3.538,0.616,5.298
				C36.425,52.485,35.95,52.557,35.249,52.663z M38.461,45.611c-0.923,0.367-2.043-0.034-2.827,0.453
				c1.054-1.828,2.202-3.556,3.234-5.407c-0.156-0.366-0.543-0.522-0.655-0.932c0.725-1.37,0.393-5.622-1.459-4.725
				c0.259-0.381,0.938-0.695,1.255-1.162c0.781,0.629,1.253,1.222,2,1.893c0.407,0.365,1.206,0.801,1.287,1.392
				c0.045,0.328-0.157,1.132-0.231,1.503c-0.327,1.62-1.065,3.764-1.768,5.461C39.042,44.707,38.798,45.48,38.461,45.611z"/>
		</g>
	</g>
</g>
</svg>
