<svg id="Layer_1" data-name="Layer 1" xmlns="http://www.w3.org/2000/svg" width="34.01" height="27.64" viewBox="0 0 34.01 27.64"><defs><style>.cls-1{fill:#1da1f2;}</style></defs><title>twitter-logo</title><path class="cls-1" d="M10.69,27.64C23.53,27.64,30.54,17,30.54,7.79q0-.45,0-.9A14.19,14.19,0,0,0,34,3.27a13.91,13.91,0,0,1-4,1.1A7,7,0,0,0,33.07.51,14,14,0,0,1,28.64,2.2,7,7,0,0,0,16.75,8.57,19.81,19.81,0,0,1,2.37,1.28a7,7,0,0,0,2.16,9.31,6.92,6.92,0,0,1-3.16-.87s0,.06,0,.09A7,7,0,0,0,7,16.65a7,7,0,0,1-3.15.12,7,7,0,0,0,6.52,4.85,14,14,0,0,1-8.67,3A14.17,14.17,0,0,1,0,24.5a19.75,19.75,0,0,0,10.69,3.13"/></svg>